<svg xmlns="http://www.w3.org/2000/svg" xmlns:xlink="http://www.w3.org/1999/xlink" width="500" zoomAndPan="magnify" viewBox="0 0 375 374.999991" height="500" preserveAspectRatio="xMidYMid meet" version="1.0"><defs><clipPath id="f30f2d7fc0"><path d="M 32.578125 2 L 342.328125 2 L 342.328125 374 L 32.578125 374 Z M 32.578125 2 " clip-rule="nonzero"/></clipPath></defs><g clip-path="url(#f30f2d7fc0)"><path fill="#000000" d="M 332.832031 331.875 C 330.691406 325.550781 327.5 321.355469 327.707031 314.234375 C 327.863281 308.886719 327.863281 304.304688 326.667969 299.082031 C 324.203125 288.066406 318.230469 278.332031 316.054688 267.125 C 313.84375 255.785156 313.238281 242.472656 307.484375 232.167969 C 303.675781 225.386719 297.816406 222.21875 291.191406 218.519531 C 283.949219 214.457031 277.265625 210.429688 269.710938 207.308594 C 270.882812 198.484375 272.066406 189.667969 273.277344 180.867188 C 273.519531 180.566406 273.734375 180.238281 273.871094 179.828125 C 280.179688 161.691406 238.585938 153.082031 236.941406 173.007812 C 236.894531 173.441406 236.953125 173.816406 237.050781 174.15625 C 235.960938 180.117188 235.007812 186.101562 234.125 192.136719 C 219.003906 183.417969 207.109375 171.085938 209.613281 152.175781 C 209.660156 151.957031 209.660156 151.714844 209.660156 151.519531 C 211.171875 148.085938 212.488281 144.59375 213.578125 141.183594 C 223.066406 136.769531 230.171875 125.597656 230.449219 115.210938 C 230.582031 110.96875 229.300781 107.074219 227.078125 104.304688 C 228.3125 97.316406 227.898438 90.800781 227.875 84.933594 C 227.898438 83.449219 227.898438 81.972656 227.925781 80.496094 C 228.019531 79.226562 228.070312 77.933594 228.214844 76.6875 C 229.085938 75.445312 229.652344 74.015625 229.796875 72.410156 C 230.292969 71.890625 230.644531 71.175781 230.621094 70.21875 C 230.511719 51.746094 222.679688 31.855469 210.507812 17.851562 C 199.277344 4.914062 176.058594 0.238281 159.859375 3.003906 C 126.28125 8.785156 105.394531 42.179688 105.695312 75.261719 C 105.707031 76.046875 105.925781 76.652344 106.300781 77.148438 C 106.382812 77.402344 106.46875 77.644531 106.601562 77.933594 C 106.855469 78.515625 107.316406 79.070312 107.75 79.589844 C 108.222656 80.027344 108.875 80.484375 109.347656 80.765625 L 110.082031 81.042969 L 110.144531 81.972656 C 110.167969 82.019531 110.144531 81.996094 110.167969 82.128906 L 110.253906 82.566406 L 110.421875 83.398438 L 110.796875 85.117188 C 111.363281 87.316406 112.078125 89.457031 112.789062 91.511719 C 114.046875 95.210938 115.257812 98.851562 115.269531 102.203125 C 110.324219 104.304688 109.585938 112.199219 110.988281 118.464844 C 112.550781 125.273438 117.722656 138.234375 126.171875 138.933594 C 127.066406 142.742188 127.996094 146.46875 128.878906 150.09375 C 130.246094 155.597656 132.492188 160.261719 135.828125 164.351562 C 135.828125 164.421875 135.804688 164.460938 135.804688 164.53125 C 135.007812 190.976562 109.214844 200.078125 88.167969 208.652344 C 71.210938 215.554688 55.617188 224.164062 48.691406 242.046875 C 42.089844 259.074219 42.019531 277.535156 40.472656 295.515625 C 39.492188 306.785156 37.546875 317.933594 36.664062 329.25 C 35.902344 338.972656 36.179688 349.140625 34.414062 358.789062 C 34.28125 359.140625 34.171875 359.5 34.125 359.914062 C 34.015625 360.542969 33.90625 361.171875 33.800781 361.773438 C 33.546875 362.949219 33.265625 364.085938 32.917969 365.234375 C 32.722656 365.851562 32.757812 366.453125 32.917969 366.984375 C 32.746094 368.789062 34.101562 370.929688 36.121094 370.6875 C 57.464844 368.160156 79.753906 370.734375 101.234375 370.902344 C 125.097656 371.085938 148.980469 371.277344 172.867188 371.496094 C 208.753906 371.773438 244.664062 372.222656 280.578125 372.464844 C 289.679688 372.945312 298.855469 372.4375 307.980469 373.417969 C 318.90625 374.589844 329.15625 371.691406 339.722656 369.285156 C 341.945312 368.789062 342.464844 366.332031 341.667969 364.53125 C 337.039062 354.046875 336.46875 342.621094 332.832031 331.875 " fill-opacity="1" fill-rule="nonzero"/><path fill="#000000" d="M 87.5625 362.949219 C 87.601562 361.144531 87.371094 359.285156 87.296875 357.507812 C 87.191406 355.65625 87.082031 353.832031 86.984375 352.066406 C 86.886719 350.214844 86.667969 348.402344 86.695312 346.648438 C 86.71875 343.09375 86.777344 339.695312 86.960938 336.503906 C 87.042969 334.871094 87.082031 333.300781 87.128906 331.800781 C 87.152344 330.699219 87.152344 331.160156 87.175781 331.003906 C 87.175781 330.980469 87.191406 330.917969 87.175781 330.917969 C 87.152344 330.917969 87.105469 330.917969 86.984375 330.894531 L 86.9375 330.894531 L 86.5 330.808594 L 85.65625 330.59375 C 85.074219 330.484375 84.554688 330.289062 84.058594 330.046875 C 82.003906 329.164062 80.554688 327.847656 79.273438 326.566406 C 76.804688 323.929688 75.210938 321.160156 73.820312 318.511719 C 71.078125 313.191406 69.433594 308.199219 68.03125 303.675781 C 65.324219 294.609375 63.945312 287.328125 63.027344 281.753906 C 61.273438 270.546875 61.5625 265.953125 62.253906 265.890625 C 63.015625 265.808594 64.066406 270.136719 66.859375 280.945312 C 68.285156 286.339844 70.121094 293.375 73.09375 302.007812 C 74.628906 306.289062 76.394531 311.050781 78.996094 315.769531 C 80.277344 318.089844 81.785156 320.472656 83.625 322.320312 C 84.53125 323.214844 85.535156 324.039062 86.5 324.378906 C 86.695312 324.484375 86.886719 324.535156 87.082031 324.582031 C 87.429688 319.515625 85.183594 314.726562 84.398438 309.757812 C 83.574219 304.425781 82.875 299.082031 82.089844 293.761719 C 80.746094 284.5 79.101562 275.347656 76.699219 266.304688 C 74.339844 257.453125 72.550781 248.191406 68.394531 239.992188 C 66.6875 236.59375 65.128906 233.34375 64.089844 229.859375 C 61.261719 232.703125 58.785156 235.917969 56.910156 239.691406 C 47.375 258.710938 49.054688 280.363281 46.394531 300.90625 C 44.835938 312.9375 43.347656 324.886719 42.585938 336.976562 C 42.066406 345.222656 42.066406 353.503906 40.484375 361.582031 C 40.445312 362.054688 40.398438 362.464844 40.363281 362.875 C 42.609375 362.875 44.859375 362.898438 47.105469 362.898438 C 47.675781 362.898438 48.148438 363.03125 48.582031 363.226562 C 61.457031 362.683594 74.558594 363.371094 87.539062 363.914062 C 87.5625 363.589844 87.5625 363.273438 87.5625 362.949219 Z M 124.550781 131.703125 C 122.933594 124.171875 121.640625 116.46875 121.179688 108.960938 C 121.070312 108.9375 120.984375 108.914062 120.878906 108.875 C 113.925781 106.214844 116.769531 115.730469 118.0625 119.589844 C 118.761719 121.621094 121.445312 129.128906 124.550781 131.703125 Z M 121.226562 97.183594 C 121.554688 93.917969 122.171875 90.824219 123.078125 87.921875 C 121.203125 87.292969 119.402344 86.605469 117.746094 85.832031 C 118.109375 86.992188 118.496094 88.1875 118.929688 89.421875 C 119.703125 91.804688 120.636719 94.355469 121.226562 97.183594 Z M 153.308594 74.597656 C 153.222656 63.777344 152.824219 52.976562 152.402344 42.15625 C 152.003906 32.265625 152.246094 22.183594 148.824219 12.789062 C 128.105469 21.855469 115.039062 44.476562 112.609375 67.027344 C 125.53125 71.671875 139.285156 74.015625 153.308594 74.597656 Z M 164.597656 239.558594 C 164.660156 239.640625 164.730469 239.726562 164.792969 239.8125 C 160.65625 230.332031 153.886719 221.371094 148.738281 212.847656 C 145.8125 208.023438 142.140625 203.683594 140 198.421875 C 138.222656 194.046875 137.496094 189.5 136.542969 184.976562 C 135.175781 187.226562 133.558594 189.332031 131.730469 191.300781 C 128.953125 197.082031 123.910156 201 120.769531 206.8125 C 116.851562 214.058594 116.527344 223.851562 118.460938 231.941406 C 127.210938 227.9375 136.46875 225.554688 145.839844 223.34375 C 147.167969 223.027344 148.027344 223.972656 148.195312 225.011719 C 148.21875 225.035156 148.21875 225.035156 148.21875 225.058594 C 149.671875 230.296875 160.839844 234.960938 164.597656 239.558594 Z M 167.824219 339.855469 C 169.445312 329.1875 168.042969 318.476562 167.753906 307.765625 C 156.789062 297.074219 147.09375 285.816406 139.179688 272.640625 C 135.539062 266.542969 131.972656 260.4375 129.59375 253.726562 C 127.285156 247.234375 123.367188 241.394531 121.566406 234.769531 C 120.40625 235.265625 119.257812 235.808594 118.132812 236.378906 C 116.984375 236.933594 115.644531 236.460938 115.269531 235.203125 C 112.898438 227.308594 112.5 217.285156 115.339844 209.449219 C 116.609375 205.90625 118.824219 202.945312 121.121094 200.042969 C 119.753906 200.925781 118.351562 201.796875 116.851562 202.632812 C 102.578125 210.597656 83.320312 215.011719 69.589844 225.144531 C 70.640625 233.476562 76.613281 241.117188 78.824219 249.316406 C 81.21875 258.214844 83.925781 267.078125 85.703125 276.144531 C 87.757812 286.714844 88.859375 297.414062 90.660156 308.019531 C 91.613281 313.605469 93.402344 318.429688 93.464844 323.773438 C 93.511719 323.773438 93.535156 323.773438 93.570312 323.75 C 93.511719 326.433594 93.464844 329.164062 93.425781 331.957031 C 93.402344 333.53125 93.367188 335.136719 93.292969 336.722656 C 93.160156 339.9375 93.148438 343.203125 93.148438 346.539062 C 93.125 348.234375 93.34375 349.914062 93.425781 351.628906 C 93.535156 353.394531 93.65625 355.199219 93.777344 357.035156 C 93.863281 358.945312 94.089844 360.796875 94.054688 362.816406 C 94.054688 363.273438 94.054688 363.722656 94.054688 364.179688 C 97.210938 364.277344 100.363281 364.375 103.484375 364.410156 C 103.53125 364.398438 103.542969 364.375 103.566406 364.375 C 117.433594 358.535156 131.695312 353.855469 145.839844 348.8125 C 153.234375 346.191406 160.511719 343.09375 167.824219 340.179688 C 167.824219 340.070312 167.824219 339.960938 167.824219 339.855469 Z M 167.730469 297.847656 C 167.753906 288.851562 168.792969 279.722656 168.769531 270.753906 C 168.757812 266.035156 168.238281 260.933594 168.683594 256.0625 C 168.597656 255.867188 168.515625 255.652344 168.488281 255.421875 C 167.367188 246.390625 159.363281 238.988281 152.21875 234.441406 C 149.234375 232.542969 146.359375 230.730469 144.957031 227.539062 C 139.117188 228.953125 133.316406 230.441406 127.671875 232.410156 C 129.339844 238.929688 133.425781 245.421875 135.84375 251.78125 C 138.683594 259.15625 142.707031 265.832031 147.011719 272.445312 C 153.113281 281.839844 160.054688 290.28125 167.730469 297.847656 Z M 180.480469 73.679688 C 181.945312 52.820312 181.277344 31.722656 186.984375 11.46875 C 176.382812 8.203125 164.511719 7.792969 154.757812 10.648438 C 153.972656 10.863281 153.222656 11.105469 152.460938 11.382812 C 155.664062 19.910156 155.773438 28.84375 156.113281 37.902344 C 156.621094 50.148438 157.117188 62.398438 157.199219 74.65625 C 164.949219 74.816406 172.734375 74.441406 180.480469 73.679688 Z M 177.058594 365.015625 C 179.394531 365.039062 181.726562 365.0625 184.09375 365.089844 C 180.457031 358.160156 179.34375 349.878906 180.867188 342.210938 C 169.636719 346.070312 158.796875 351.148438 147.566406 355.089844 C 138.632812 358.207031 129.675781 361.277344 120.816406 364.566406 C 139.566406 364.726562 158.300781 364.871094 177.058594 365.015625 Z M 188.15625 268.636719 C 193.667969 256.957031 200.644531 246.304688 205.25 234.238281 C 200.535156 232.796875 196.183594 231.226562 193.136719 230.269531 C 193.222656 230.960938 193.28125 231.636719 193.367188 232.300781 C 193.632812 233.390625 193.039062 234.359375 192.011719 234.707031 C 185.21875 237.019531 178.570312 242.605469 174.898438 248.929688 C 174.328125 249.859375 173.941406 250.828125 173.617188 251.804688 C 172.082031 256.386719 172.648438 261.757812 172.648438 266.496094 C 172.683594 276.96875 171.5 287.703125 171.609375 298.199219 C 178.511719 289.84375 183.308594 278.9375 188.15625 268.636719 Z M 210.347656 179.9375 C 206.808594 175.050781 204.269531 169.550781 203.277344 163.429688 C 193.222656 179.027344 178.207031 190.082031 159.773438 182.582031 C 153.5625 180.042969 147.070312 174.589844 141.777344 170.203125 C 141.28125 173.574219 140.460938 176.695312 139.261719 179.585938 C 141.558594 187.527344 142.054688 195.230469 146.734375 202.65625 C 150.84375 209.148438 154.324219 216.027344 158.542969 222.460938 C 163.535156 230.078125 168.382812 237.308594 170.8125 245.640625 C 172.539062 238.300781 175.9375 231.648438 181.835938 225.882812 C 193.234375 214.6875 209.601562 197.007812 210.347656 179.9375 Z M 198.296875 84.402344 C 201.5 83.425781 219.933594 78.1875 222.859375 72.542969 C 188.15625 81.511719 148.269531 85.722656 113.757812 74.269531 C 115.402344 77.621094 120.007812 80.050781 125.675781 81.828125 C 125.722656 81.753906 125.75 81.671875 125.785156 81.585938 C 127.671875 82.214844 129.53125 82.796875 131.429688 83.363281 C 141.171875 85.539062 151.992188 86.324219 156.378906 86.710938 C 170.160156 87.945312 184.894531 88.515625 198.296875 84.402344 Z M 211.4375 102.105469 C 211.871094 96.738281 213.902344 90.933594 213.417969 85.589844 C 213.25 85.671875 213.058594 85.734375 212.898438 85.804688 C 195.554688 92.6875 178.621094 95.199219 159.90625 93.507812 C 153.5 92.941406 140.738281 92.335938 129.316406 89.652344 C 128.019531 93.460938 127.367188 97.472656 127.429688 101.402344 C 127.644531 114.039062 130.703125 126.09375 133.011719 138.449219 C 134.355469 145.597656 135.539062 155.511719 140.992188 160.832031 C 145.171875 164.941406 150.058594 168.0625 154.796875 171.460938 C 163.171875 177.46875 170.785156 181.21875 180.648438 175.367188 C 186.535156 171.90625 192.109375 167.773438 196.398438 162.390625 C 204.8125 151.789062 208.972656 139.320312 210.398438 125.972656 C 211.003906 118.027344 210.808594 110.035156 211.4375 102.105469 Z M 223.910156 65.554688 C 222.640625 49.882812 215.667969 30.429688 203.882812 20.429688 C 200.125 17.25 195.578125 14.671875 190.671875 12.773438 C 185.171875 32.484375 185.800781 53.003906 184.386719 73.28125 C 197.960938 71.695312 211.304688 68.925781 223.910156 65.554688 Z M 221.410156 84.984375 C 221.410156 84.003906 221.433594 83.074219 221.445312 82.128906 C 220.78125 82.46875 220.105469 82.820312 219.414062 83.121094 C 220.09375 86.847656 219.570312 90.679688 218.894531 94.71875 C 218.59375 96.519531 218.398438 98.332031 218.207031 100.15625 C 219.199219 100.109375 220.175781 100.195312 221.082031 100.410156 C 221.640625 95.347656 221.433594 90.160156 221.410156 84.984375 Z M 223.609375 118.390625 C 224.527344 114.136719 223.414062 105.175781 217.734375 106.640625 C 217.382812 113.070312 217.382812 119.566406 216.886719 125.972656 C 216.695312 127.847656 216.367188 129.867188 215.957031 131.945312 C 219.777344 128.332031 222.65625 123.023438 223.609375 118.390625 Z M 227.765625 236.65625 C 227.765625 236.605469 227.765625 236.59375 227.792969 236.546875 C 223.898438 238.214844 217.769531 237.476562 211.496094 235.964844 C 206.3125 249.617188 198.5625 262.277344 192.328125 275.480469 C 187.25 286.230469 181.859375 296.640625 174.21875 305.757812 C 174.304688 316.421875 175.550781 326.953125 174.546875 337.582031 C 177.96875 336.300781 181.410156 335.136719 184.894531 334.097656 C 195.988281 324.777344 207.242188 312.722656 220.816406 306.867188 C 220.695312 306.375 220.671875 305.839844 220.816406 305.238281 C 226.425781 282.890625 224.117188 259.351562 227.765625 236.65625 Z M 228.832031 224.273438 C 228.84375 218.070312 229.386719 211.46875 228.613281 205.304688 C 227.898438 199.742188 225.628906 195.738281 222.703125 192.136719 C 219.488281 189.71875 216.488281 187.058594 213.855469 184.179688 C 211.882812 195.96875 203.726562 206.425781 196.375 215.6875 C 191.09375 222.328125 183.71875 227.863281 179.261719 235.058594 C 178.113281 236.898438 177.167969 238.746094 176.382812 240.632812 C 178.269531 238.734375 180.238281 236.980469 181.96875 235.507812 C 186.015625 232.023438 188.894531 233.199219 188.917969 227.636719 C 188.929688 226.316406 190.152344 225.507812 191.382812 225.773438 C 197.546875 227.007812 203.472656 229.0625 209.527344 230.683594 C 217.105469 232.738281 228.78125 237.199219 228.832031 224.273438 Z M 239.710938 365.632812 C 240.253906 363.578125 240.808594 361.507812 241.390625 359.453125 C 240.699219 359.671875 239.988281 359.875 239.335938 360.082031 C 238.210938 360.433594 236.808594 360.917969 235.46875 361.253906 C 234.101562 361.640625 232.734375 362.078125 231.355469 362.402344 C 225.84375 363.746094 220.613281 364.59375 215.800781 365.390625 C 223.765625 365.476562 231.71875 365.558594 239.710938 365.632812 Z M 252.945312 327.773438 C 253.128906 327.304688 252.96875 327.242188 252.835938 326.953125 C 252.777344 326.84375 252.714844 326.757812 252.667969 326.648438 C 252.59375 326.542969 252.449219 326.421875 252.367188 326.289062 C 252.148438 325.960938 251.929688 325.828125 251.605469 325.464844 L 250.832031 324.800781 L 250.636719 324.617188 L 250.347656 324.449219 C 250.007812 324.183594 249.597656 324.015625 249.1875 323.820312 C 247.519531 323.144531 245.304688 323.046875 243.105469 323.277344 C 240.894531 323.46875 238.730469 323.855469 236.855469 324.125 C 234.949219 324.378906 233.375 324.484375 232.132812 324.378906 C 230.96875 324.257812 230.292969 323.882812 230.171875 323.410156 C 230.039062 322.914062 230.535156 322.320312 231.417969 321.632812 C 232.238281 320.941406 233.570312 320.097656 235.296875 319.191406 C 237.027344 318.296875 239.214844 317.328125 241.957031 316.636719 C 244.253906 316.070312 247.242188 315.707031 250.417969 316.566406 C 246.347656 302.3125 221.988281 312.914062 214.15625 318.429688 C 204.984375 324.886719 196.921875 332.625 188.242188 339.695312 C 185.992188 346.347656 186.246094 353.636719 188.929688 360.046875 C 190.066406 361.039062 191.636719 362.789062 193.609375 365.171875 C 193.996094 365.195312 194.40625 365.195312 194.792969 365.195312 C 198.589844 363.25 203.277344 361.363281 208.597656 359.972656 C 215.085938 358.269531 222.339844 357.082031 229.628906 355.332031 C 230.921875 355.003906 232.15625 354.617188 233.414062 354.289062 C 234.695312 353.964844 235.816406 353.601562 237.21875 353.191406 C 239.300781 352.597656 249.222656 352.355469 249.511719 349.660156 C 250.09375 344.144531 233.847656 350 233.980469 346.128906 C 233.980469 345.523438 235.960938 344.871094 239.433594 344.230469 C 241.765625 343.796875 244.882812 343.3125 248.582031 342.816406 C 248.992188 342.621094 249.378906 342.429688 249.71875 342.210938 C 250.285156 341.847656 250.671875 341.472656 250.867188 341.171875 C 251.046875 340.832031 251.058594 340.480469 251.167969 340.203125 L 251.324219 339.394531 C 251.277344 339.382812 251.167969 339.140625 251.167969 339.140625 C 251.132812 338.777344 251.023438 338.535156 250.964844 338.292969 C 250.78125 337.882812 250.722656 337.714844 250.394531 337.433594 C 249.789062 336.84375 248.097656 336.457031 246.671875 336.203125 C 245.222656 335.910156 243.929688 335.65625 242.996094 335.285156 C 242.066406 334.921875 241.570312 334.472656 241.546875 333.964844 C 241.5 333.445312 241.957031 332.949219 242.804688 332.453125 C 243.601562 331.957031 244.8125 331.4375 246.503906 331.027344 C 247.347656 330.832031 248.292969 330.675781 249.464844 330.664062 C 249.632812 330.664062 249.816406 330.675781 250.007812 330.675781 C 250.589844 330.289062 251.21875 329.832031 251.820312 329.296875 C 252.367188 328.8125 252.800781 328.234375 252.945312 327.773438 Z M 257.1875 179.199219 C 257.683594 178.980469 258.179688 178.785156 258.675781 178.570312 C 253.210938 178.484375 247.6875 177.734375 243.515625 174.871094 C 241.824219 185.027344 241.171875 195.4375 239.515625 205.582031 C 237.484375 217.890625 235.1875 230.136719 233.386719 242.472656 C 230.378906 263.097656 232.203125 284.171875 227.632812 304.535156 C 229.328125 304.125 231.03125 303.796875 232.757812 303.59375 C 237.871094 274.765625 243.105469 246.050781 247.109375 217.03125 C 248.28125 208.652344 247.773438 201.203125 248.097656 192.921875 C 248.253906 189.523438 248.316406 185.328125 250.09375 182.292969 C 250.964844 180.78125 257.164062 179.222656 257.1875 179.199219 Z M 259.109375 238.433594 C 261.683594 218.710938 264.257812 199.027344 267.015625 179.332031 C 262.640625 181.132812 258.398438 183.199219 253.9375 184.746094 C 251.109375 185.738281 251.953125 193.417969 252.148438 196.160156 C 252.910156 207.527344 250.867188 218.628906 249.054688 229.800781 C 245.050781 254.382812 241.050781 278.804688 236.722656 303.328125 C 241.523438 303.242188 246.117188 304.101562 249.742188 306.253906 C 254.636719 284.113281 256.195312 260.875 259.109375 238.433594 Z M 244.363281 170.675781 C 249.621094 175.875 260.089844 174.871094 267.402344 174.421875 C 264.429688 168.253906 248.449219 165.609375 244.363281 170.675781 Z M 278.367188 218.214844 C 275.269531 216.546875 272.09375 215.035156 268.828125 213.804688 C 267.183594 226.195312 265.578125 238.601562 263.957031 251.019531 C 261.382812 270.691406 259.980469 291.136719 255.472656 310.472656 C 255.386719 310.882812 255.242188 311.199219 255.050781 311.488281 C 256.511719 313.929688 257.429688 316.953125 257.492188 320.703125 C 257.492188 320.941406 257.464844 321.160156 257.441406 321.355469 C 257.730469 321.71875 258.035156 322.117188 258.226562 322.527344 C 258.457031 322.949219 258.722656 323.335938 258.894531 323.820312 C 259.085938 324.339844 259.242188 324.835938 259.375 325.332031 C 259.894531 327.519531 259.085938 329.964844 257.902344 331.257812 C 257.226562 332.066406 256.511719 332.625 255.796875 333.058594 C 256.425781 333.6875 256.996094 334.425781 257.382812 335.199219 C 259.183594 338.984375 257.550781 340.675781 257.25 344.425781 C 257.25 344.507812 257.1875 345.222656 257.1875 345.222656 C 257.128906 345.875 257.054688 346.539062 257.019531 347.21875 C 256.863281 347.882812 256.691406 348.570312 256.476562 349.285156 C 255.929688 350.652344 255.195312 352.066406 254.117188 353.191406 C 252.621094 354.847656 250.804688 355.972656 248.96875 356.839844 C 248.015625 359.753906 247.191406 362.730469 246.417969 365.691406 C 253.320312 365.753906 260.234375 365.824219 267.160156 365.863281 C 266.097656 354.351562 263.824219 343.710938 263.160156 333.445312 C 263.085938 332.527344 263.050781 331.582031 262.992188 330.664062 C 257.359375 310.421875 264.476562 288.527344 266.230469 268.140625 C 267.703125 250.851562 269.410156 233.402344 278.367188 218.214844 Z M 341.667969 364.53125 C 342.464844 366.332031 341.945312 368.789062 339.722656 369.285156 C 329.15625 371.691406 318.90625 374.589844 307.980469 373.417969 C 298.855469 372.4375 289.679688 372.945312 280.578125 372.464844 C 244.664062 372.222656 208.753906 371.773438 172.867188 371.496094 C 148.980469 371.277344 125.097656 371.085938 101.234375 370.902344 C 79.753906 370.734375 57.464844 368.160156 36.121094 370.6875 C 34.101562 370.929688 32.746094 368.789062 32.917969 366.984375 C 32.757812 366.453125 32.722656 365.851562 32.917969 365.234375 C 33.265625 364.085938 33.546875 362.949219 33.800781 361.773438 C 33.90625 361.171875 34.015625 360.542969 34.125 359.914062 C 34.171875 359.5 34.28125 359.140625 34.414062 358.789062 C 36.179688 349.140625 35.902344 338.972656 36.664062 329.25 C 37.546875 317.933594 39.492188 306.785156 40.472656 295.515625 C 42.019531 277.535156 42.089844 259.074219 48.691406 242.046875 C 55.605469 224.164062 71.210938 215.554688 88.167969 208.652344 C 109.214844 200.078125 135.007812 190.976562 135.804688 164.53125 C 135.804688 164.460938 135.828125 164.421875 135.828125 164.351562 C 132.492188 160.261719 130.246094 155.597656 128.878906 150.09375 C 127.996094 146.46875 127.066406 142.742188 126.171875 138.933594 C 117.722656 138.234375 112.550781 125.273438 110.988281 118.464844 C 109.585938 112.199219 110.324219 104.304688 115.269531 102.203125 C 115.257812 98.851562 114.035156 95.210938 112.789062 91.511719 C 112.078125 89.457031 111.363281 87.316406 110.796875 85.117188 L 110.421875 83.398438 L 110.253906 82.566406 L 110.167969 82.128906 C 110.144531 81.996094 110.167969 82.019531 110.144531 81.972656 L 110.082031 81.042969 L 109.347656 80.765625 C 108.875 80.484375 108.222656 80.027344 107.75 79.589844 C 107.316406 79.070312 106.855469 78.515625 106.601562 77.933594 C 106.46875 77.644531 106.382812 77.402344 106.300781 77.148438 C 105.925781 76.652344 105.707031 76.046875 105.695312 75.261719 C 105.394531 42.179688 126.28125 8.785156 159.859375 3.003906 C 176.058594 0.238281 199.277344 4.914062 210.507812 17.851562 C 222.679688 31.855469 230.511719 51.746094 230.621094 70.21875 C 230.644531 71.175781 230.292969 71.890625 229.796875 72.410156 C 229.652344 74.015625 229.085938 75.445312 228.214844 76.6875 C 228.070312 77.933594 228.019531 79.226562 227.925781 80.496094 C 227.898438 81.972656 227.898438 83.449219 227.875 84.933594 C 227.898438 90.800781 228.3125 97.316406 227.078125 104.304688 C 229.300781 107.074219 230.582031 110.96875 230.449219 115.210938 C 230.171875 125.597656 223.066406 136.769531 213.578125 141.183594 C 212.488281 144.59375 211.171875 148.085938 209.660156 151.519531 C 209.660156 151.714844 209.660156 151.957031 209.613281 152.175781 C 207.109375 171.085938 219.003906 183.417969 234.125 192.136719 C 235.007812 186.101562 235.960938 180.117188 237.050781 174.15625 C 236.953125 173.816406 236.894531 173.441406 236.941406 173.007812 C 238.585938 153.082031 280.179688 161.691406 273.871094 179.828125 C 273.734375 180.238281 273.519531 180.566406 273.277344 180.867188 C 272.066406 189.667969 270.882812 198.484375 269.710938 207.308594 C 277.265625 210.429688 283.949219 214.457031 291.191406 218.519531 C 297.816406 222.21875 303.675781 225.386719 307.484375 232.167969 C 313.238281 242.472656 313.84375 255.785156 316.054688 267.125 C 318.230469 278.332031 324.203125 288.066406 326.667969 299.082031 C 327.863281 304.304688 327.863281 308.886719 327.707031 314.234375 C 327.5 321.355469 330.691406 325.550781 332.832031 331.875 C 336.46875 342.621094 337.039062 354.046875 341.667969 364.53125 Z M 309.804688 268.855469 C 307.652344 256.847656 307.050781 235.363281 295.410156 228.386719 C 291.625 226.136719 287.84375 223.730469 284.011719 221.445312 C 275.378906 236.085938 274.085938 252.773438 272.636719 269.375 C 273.375 267.125 274.097656 264.984375 274.882812 263.039062 C 278.800781 253.148438 282.886719 246.933594 285.871094 243.367188 C 288.859375 239.773438 290.550781 238.578125 290.851562 238.84375 C 291.214844 239.160156 290.222656 240.898438 287.976562 244.792969 C 285.714844 248.6875 282.425781 254.925781 279.234375 264.597656 C 275.984375 274.269531 273.191406 287.402344 271.027344 304.609375 C 270.75 306.773438 270.472656 308.972656 270.183594 311.269531 C 270.0625 312.394531 269.90625 313.566406 269.785156 314.726562 C 269.675781 315.851562 269.578125 317.027344 269.492188 318.199219 C 269.410156 319.359375 269.300781 320.53125 269.214844 321.742188 C 269.214844 322.9375 269.214844 324.148438 269.191406 325.378906 C 268.972656 336.515625 271.511719 347.714844 272.9375 358.753906 C 273.132812 358.027344 273.347656 357.3125 273.589844 356.648438 C 274.933594 353.007812 276.613281 349.804688 278.257812 346.792969 C 279.101562 345.355469 279.949219 343.902344 280.746094 342.515625 L 281.023438 342.042969 C 281.050781 341.980469 280.878906 341.910156 280.878906 341.910156 C 279.101562 341.148438 277.785156 339.71875 276.9375 338.269531 C 276.140625 336.808594 275.65625 335.332031 275.34375 333.878906 C 274.195312 328.125 274.714844 323.132812 275.164062 318.753906 C 275.65625 314.390625 276.371094 310.640625 277.097656 307.414062 C 280.007812 294.558594 282.257812 290 282.644531 290.148438 C 283.105469 290.304688 281.652344 295.054688 279.34375 307.847656 C 278.800781 311.050781 278.222656 314.777344 277.847656 319.03125 C 277.507812 323.253906 277.15625 328.160156 278.257812 333.203125 C 278.558594 334.449219 278.96875 335.683594 279.574219 336.734375 C 280.226562 337.773438 281.050781 338.621094 282.089844 339.054688 L 282.5 339.226562 C 282.691406 339.296875 282.910156 339.308594 283.105469 339.359375 C 283.515625 339.417969 283.816406 339.503906 284.203125 339.601562 L 285.269531 339.878906 L 285.8125 340.011719 C 285.761719 340.132812 285.628906 340.335938 285.546875 340.480469 C 284.882812 341.667969 284.179688 342.863281 283.464844 344.097656 C 282.691406 345.476562 281.871094 346.914062 281.050781 348.355469 C 279.453125 351.304688 277.871094 354.375 276.636719 357.722656 C 275.765625 360.191406 275.136719 362.789062 274.800781 365.523438 C 282.003906 366.261719 289.234375 365.886719 296.449219 366.066406 C 304.558594 366.105469 312.65625 366.140625 320.769531 366.140625 C 320.9375 366.140625 321.09375 366.164062 321.265625 366.1875 C 325.652344 365.632812 330.003906 364.808594 334.5 363.804688 C 331.40625 354.871094 330.609375 345.546875 327.585938 336.539062 C 326.050781 331.996094 322.496094 327.085938 321.761719 322.285156 C 320.988281 317.132812 322.195312 312.09375 321.542969 306.988281 C 319.863281 293.652344 312.136719 282.09375 309.804688 268.855469 " fill-opacity="1" fill-rule="nonzero"/></g><path fill="#ffffff" d="M 290.851562 238.84375 C 290.550781 238.578125 288.859375 239.773438 285.871094 243.367188 C 282.886719 246.933594 278.800781 253.148438 274.882812 263.039062 C 274.097656 264.984375 273.375 267.125 272.636719 269.375 C 274.085938 252.773438 275.378906 236.085938 284.011719 221.445312 C 287.84375 223.730469 291.625 226.136719 295.410156 228.386719 C 307.050781 235.363281 307.652344 256.847656 309.804688 268.855469 C 312.136719 282.09375 319.863281 293.652344 321.542969 306.988281 C 322.195312 312.09375 320.988281 317.132812 321.761719 322.285156 C 322.496094 327.085938 326.050781 331.996094 327.585938 336.539062 C 330.609375 345.546875 331.40625 354.871094 334.5 363.804688 C 330.003906 364.808594 325.652344 365.632812 321.265625 366.1875 C 321.09375 366.164062 320.9375 366.140625 320.769531 366.140625 C 312.65625 366.140625 304.558594 366.105469 296.449219 366.066406 C 289.234375 365.886719 282.003906 366.261719 274.800781 365.523438 C 275.136719 362.789062 275.765625 360.191406 276.636719 357.722656 C 277.871094 354.375 279.453125 351.304688 281.050781 348.355469 C 281.871094 346.914062 282.691406 345.476562 283.464844 344.097656 C 284.179688 342.863281 284.882812 341.667969 285.546875 340.480469 C 285.628906 340.335938 285.761719 340.132812 285.8125 340.011719 L 285.269531 339.878906 L 284.203125 339.601562 C 283.816406 339.503906 283.515625 339.417969 283.105469 339.359375 C 282.910156 339.308594 282.691406 339.296875 282.5 339.226562 L 282.089844 339.054688 C 281.050781 338.621094 280.226562 337.773438 279.574219 336.734375 C 278.96875 335.683594 278.558594 334.449219 278.257812 333.203125 C 277.15625 328.160156 277.507812 323.253906 277.847656 319.03125 C 278.222656 314.777344 278.800781 311.050781 279.34375 307.847656 C 281.652344 295.054688 283.105469 290.304688 282.644531 290.148438 C 282.257812 290 280.007812 294.558594 277.097656 307.414062 C 276.371094 310.640625 275.65625 314.390625 275.164062 318.753906 C 274.714844 323.132812 274.195312 328.125 275.34375 333.878906 C 275.65625 335.332031 276.140625 336.808594 276.9375 338.269531 C 277.785156 339.71875 279.101562 341.148438 280.878906 341.910156 C 280.878906 341.910156 281.050781 341.980469 281.023438 342.042969 L 280.746094 342.515625 C 279.949219 343.902344 279.101562 345.355469 278.257812 346.792969 C 276.613281 349.804688 274.933594 353.007812 273.589844 356.648438 C 273.347656 357.3125 273.132812 358.027344 272.9375 358.753906 C 271.511719 347.714844 268.972656 336.515625 269.191406 325.378906 C 269.214844 324.148438 269.214844 322.9375 269.214844 321.742188 C 269.300781 320.53125 269.410156 319.359375 269.492188 318.199219 C 269.578125 317.027344 269.675781 315.851562 269.785156 314.726562 C 269.90625 313.566406 270.0625 312.394531 270.183594 311.269531 C 270.472656 308.972656 270.75 306.773438 271.027344 304.609375 C 273.191406 287.402344 275.984375 274.269531 279.234375 264.597656 C 282.425781 254.925781 285.714844 248.6875 287.976562 244.792969 C 290.222656 240.898438 291.214844 239.160156 290.851562 238.84375 " fill-opacity="1" fill-rule="nonzero"/><path fill="#ffcfae" d="M 250.417969 316.566406 C 247.242188 315.707031 244.253906 316.070312 241.957031 316.636719 C 239.214844 317.328125 237.027344 318.296875 235.296875 319.191406 C 233.570312 320.097656 232.238281 320.941406 231.417969 321.632812 C 230.535156 322.320312 230.039062 322.914062 230.171875 323.410156 C 230.292969 323.882812 230.96875 324.257812 232.132812 324.378906 C 233.375 324.484375 234.949219 324.378906 236.855469 324.125 C 238.730469 323.855469 240.894531 323.46875 243.105469 323.277344 C 245.304688 323.046875 247.519531 323.144531 249.1875 323.820312 C 249.597656 324.015625 250.007812 324.183594 250.347656 324.449219 L 250.636719 324.617188 L 250.832031 324.800781 L 251.605469 325.464844 C 251.929688 325.828125 252.148438 325.960938 252.367188 326.289062 C 252.449219 326.421875 252.59375 326.542969 252.667969 326.648438 C 252.714844 326.757812 252.777344 326.84375 252.835938 326.953125 C 252.96875 327.242188 253.128906 327.304688 252.945312 327.773438 C 252.800781 328.234375 252.367188 328.8125 251.820312 329.296875 C 251.21875 329.832031 250.589844 330.289062 250.007812 330.675781 C 249.816406 330.675781 249.632812 330.664062 249.464844 330.664062 C 248.292969 330.675781 247.347656 330.832031 246.503906 331.027344 C 244.8125 331.4375 243.601562 331.957031 242.804688 332.453125 C 241.957031 332.949219 241.5 333.445312 241.546875 333.964844 C 241.570312 334.472656 242.066406 334.921875 242.996094 335.285156 C 243.929688 335.65625 245.222656 335.910156 246.671875 336.203125 C 248.097656 336.457031 249.789062 336.84375 250.394531 337.433594 C 250.722656 337.714844 250.78125 337.882812 250.964844 338.292969 C 251.023438 338.535156 251.132812 338.777344 251.167969 339.140625 C 251.167969 339.140625 251.277344 339.382812 251.324219 339.394531 L 251.167969 340.203125 C 251.058594 340.480469 251.046875 340.832031 250.867188 341.171875 C 250.671875 341.472656 250.285156 341.847656 249.71875 342.210938 C 249.378906 342.429688 248.992188 342.621094 248.582031 342.816406 C 244.882812 343.3125 241.765625 343.796875 239.433594 344.230469 C 235.960938 344.871094 233.980469 345.523438 233.980469 346.128906 C 233.847656 350 250.09375 344.144531 249.511719 349.660156 C 249.222656 352.355469 239.300781 352.597656 237.21875 353.191406 C 235.816406 353.601562 234.695312 353.964844 233.414062 354.289062 C 232.15625 354.617188 230.921875 355.003906 229.628906 355.332031 C 222.339844 357.082031 215.085938 358.269531 208.597656 359.972656 C 203.277344 361.363281 198.589844 363.25 194.792969 365.195312 C 194.40625 365.195312 193.996094 365.195312 193.609375 365.171875 C 191.636719 362.789062 190.066406 361.039062 188.929688 360.046875 C 186.246094 353.636719 185.992188 346.347656 188.242188 339.695312 C 196.921875 332.625 204.984375 324.886719 214.15625 318.429688 C 221.988281 312.914062 246.347656 302.3125 250.417969 316.566406 " fill-opacity="1" fill-rule="nonzero"/><path fill="#f97c00" d="M 257.25 344.425781 C 257.550781 340.675781 259.183594 338.984375 257.382812 335.199219 C 256.996094 334.425781 256.425781 333.6875 255.796875 333.058594 C 256.511719 332.625 257.226562 332.066406 257.902344 331.257812 C 259.085938 329.964844 259.894531 327.519531 259.375 325.332031 C 259.242188 324.835938 259.085938 324.339844 258.894531 323.820312 C 258.722656 323.335938 258.457031 322.949219 258.226562 322.527344 C 258.035156 322.117188 257.730469 321.71875 257.441406 321.355469 C 257.464844 321.160156 257.492188 320.941406 257.492188 320.703125 C 257.429688 316.953125 256.511719 313.929688 255.050781 311.488281 C 255.242188 311.199219 255.386719 310.882812 255.472656 310.472656 C 259.980469 291.136719 261.382812 270.691406 263.957031 251.019531 C 265.578125 238.601562 267.183594 226.195312 268.828125 213.804688 C 272.09375 215.035156 275.269531 216.546875 278.367188 218.214844 C 269.410156 233.402344 267.703125 250.851562 266.230469 268.140625 C 264.476562 288.527344 257.359375 310.421875 262.992188 330.664062 C 263.050781 331.582031 263.085938 332.527344 263.160156 333.445312 C 263.824219 343.710938 266.097656 354.351562 267.160156 365.863281 C 260.234375 365.824219 253.320312 365.753906 246.417969 365.691406 C 247.191406 362.730469 248.015625 359.753906 248.96875 356.839844 C 250.804688 355.972656 252.621094 354.847656 254.117188 353.191406 C 255.195312 352.066406 255.929688 350.652344 256.476562 349.285156 C 256.691406 348.570312 256.863281 347.882812 257.019531 347.21875 C 257.054688 346.539062 257.128906 345.875 257.1875 345.222656 C 257.1875 345.222656 257.25 344.507812 257.25 344.425781 " fill-opacity="1" fill-rule="nonzero"/><path fill="#ffffff" d="M 171.609375 298.199219 C 171.5 287.703125 172.683594 276.96875 172.648438 266.496094 C 172.648438 261.757812 172.082031 256.386719 173.617188 251.804688 C 173.941406 250.828125 174.328125 249.859375 174.898438 248.929688 C 178.570312 242.605469 185.21875 237.019531 192.011719 234.707031 C 193.039062 234.359375 193.632812 233.390625 193.367188 232.300781 C 193.28125 231.636719 193.222656 230.960938 193.136719 230.269531 C 196.183594 231.226562 200.535156 232.796875 205.25 234.238281 C 200.644531 246.304688 193.667969 256.957031 188.15625 268.636719 C 183.308594 278.9375 178.511719 289.84375 171.609375 298.199219 " fill-opacity="1" fill-rule="nonzero"/><path fill="#e6e6e6" d="M 241.390625 359.453125 C 240.808594 361.507812 240.253906 363.578125 239.710938 365.632812 C 231.71875 365.558594 223.765625 365.476562 215.800781 365.390625 C 220.613281 364.59375 225.84375 363.746094 231.355469 362.402344 C 232.734375 362.078125 234.101562 361.640625 235.46875 361.253906 C 236.808594 360.917969 238.210938 360.433594 239.335938 360.082031 C 239.988281 359.875 240.699219 359.671875 241.390625 359.453125 " fill-opacity="1" fill-rule="nonzero"/><path fill="#e6e6e6" d="M 267.402344 174.421875 C 260.089844 174.871094 249.621094 175.875 244.363281 170.675781 C 248.449219 165.609375 264.429688 168.253906 267.402344 174.421875 " fill-opacity="1" fill-rule="nonzero"/><path fill="#e6e6e6" d="M 267.015625 179.332031 C 264.257812 199.027344 261.683594 218.710938 259.109375 238.433594 C 256.195312 260.875 254.636719 284.113281 249.742188 306.253906 C 246.117188 304.101562 241.523438 303.242188 236.722656 303.328125 C 241.050781 278.804688 245.050781 254.382812 249.054688 229.800781 C 250.867188 218.628906 252.910156 207.527344 252.148438 196.160156 C 251.953125 193.417969 251.109375 185.738281 253.9375 184.746094 C 258.398438 183.199219 262.640625 181.132812 267.015625 179.332031 " fill-opacity="1" fill-rule="nonzero"/><path fill="#e6e6e6" d="M 258.675781 178.570312 C 258.179688 178.785156 257.683594 178.980469 257.1875 179.199219 C 257.164062 179.222656 250.964844 180.78125 250.09375 182.292969 C 248.316406 185.328125 248.253906 189.523438 248.097656 192.921875 C 247.773438 201.203125 248.28125 208.652344 247.109375 217.03125 C 243.105469 246.050781 237.871094 274.765625 232.757812 303.59375 C 231.03125 303.796875 229.328125 304.125 227.632812 304.535156 C 232.203125 284.171875 230.378906 263.097656 233.386719 242.472656 C 235.1875 230.136719 237.484375 217.890625 239.515625 205.582031 C 241.171875 195.4375 241.824219 185.027344 243.515625 174.871094 C 247.6875 177.734375 253.210938 178.484375 258.675781 178.570312 " fill-opacity="1" fill-rule="nonzero"/><path fill="#ffffff" d="M 228.613281 205.304688 C 229.386719 211.46875 228.84375 218.070312 228.832031 224.273438 C 228.78125 237.199219 217.105469 232.738281 209.527344 230.683594 C 203.472656 229.0625 197.546875 227.007812 191.382812 225.773438 C 190.152344 225.507812 188.929688 226.316406 188.917969 227.636719 C 188.894531 233.199219 186.015625 232.023438 181.96875 235.507812 C 180.238281 236.980469 178.269531 238.734375 176.382812 240.632812 C 177.167969 238.746094 178.113281 236.898438 179.261719 235.058594 C 183.71875 227.863281 191.09375 222.328125 196.375 215.6875 C 203.726562 206.425781 211.882812 195.96875 213.855469 184.179688 C 216.488281 187.058594 219.488281 189.71875 222.703125 192.136719 C 225.628906 195.738281 227.898438 199.742188 228.613281 205.304688 " fill-opacity="1" fill-rule="nonzero"/><path fill="#f97c00" d="M 227.792969 236.546875 C 227.765625 236.59375 227.765625 236.605469 227.765625 236.65625 C 224.117188 259.351562 226.425781 282.890625 220.816406 305.238281 C 220.671875 305.839844 220.695312 306.375 220.816406 306.867188 C 207.242188 312.722656 195.988281 324.777344 184.894531 334.097656 C 181.410156 335.136719 177.96875 336.300781 174.546875 337.582031 C 175.550781 326.953125 174.304688 316.421875 174.21875 305.757812 C 181.859375 296.640625 187.25 286.230469 192.328125 275.480469 C 198.5625 262.277344 206.3125 249.617188 211.496094 235.964844 C 217.769531 237.476562 223.898438 238.214844 227.792969 236.546875 " fill-opacity="1" fill-rule="nonzero"/><path fill="#ffcfae" d="M 217.734375 106.640625 C 223.414062 105.175781 224.527344 114.136719 223.609375 118.390625 C 222.65625 123.023438 219.777344 128.332031 215.957031 131.945312 C 216.367188 129.867188 216.695312 127.847656 216.886719 125.972656 C 217.382812 119.566406 217.382812 113.070312 217.734375 106.640625 " fill-opacity="1" fill-rule="nonzero"/><path fill="#603813" d="M 221.445312 82.128906 C 221.433594 83.074219 221.410156 84.003906 221.410156 84.984375 C 221.433594 90.160156 221.640625 95.347656 221.082031 100.410156 C 220.175781 100.195312 219.199219 100.109375 218.207031 100.15625 C 218.398438 98.332031 218.59375 96.519531 218.894531 94.71875 C 219.570312 90.679688 220.09375 86.847656 219.414062 83.121094 C 220.105469 82.820312 220.78125 82.46875 221.445312 82.128906 " fill-opacity="1" fill-rule="nonzero"/><path fill="#ffce00" d="M 203.882812 20.429688 C 215.667969 30.429688 222.640625 49.882812 223.910156 65.554688 C 211.304688 68.925781 197.960938 71.695312 184.386719 73.28125 C 185.800781 53.003906 185.171875 32.484375 190.671875 12.773438 C 195.578125 14.671875 200.125 17.25 203.882812 20.429688 " fill-opacity="1" fill-rule="nonzero"/><path fill="#ffcfae" d="M 181.773438 135.125 C 181.882812 134.144531 181.617188 133.214844 181.085938 132.464844 C 180.542969 131.753906 179.960938 131.351562 179.476562 131.027344 C 178.488281 130.421875 177.808594 130.035156 177.496094 129.589844 L 177.363281 129.40625 L 177.363281 129.382812 L 177.300781 129.261719 L 177.035156 128.609375 C 176.820312 128.136719 176.902344 127.894531 176.792969 127.542969 C 176.6875 126.808594 176.625 125.898438 176.492188 125.054688 C 176.371094 124.390625 176.324219 123.542969 176.261719 122.878906 C 176.105469 121.460938 175.960938 120.253906 175.828125 119.261719 C 175.550781 117.316406 175.257812 116.214844 175.03125 116.214844 C 174.761719 116.226562 174.546875 117.328125 174.402344 119.324219 C 174.328125 120.339844 174.269531 121.546875 174.207031 122.984375 C 174.207031 123.710938 174.109375 124.363281 174.183594 125.296875 C 174.21875 126.058594 174.183594 126.832031 174.242188 127.894531 C 174.304688 128.390625 174.328125 129.105469 174.511719 129.492188 L 174.703125 130.167969 L 174.738281 130.335938 L 174.761719 130.421875 L 174.789062 130.445312 L 174.847656 130.640625 L 174.898438 130.710938 L 175.136719 131.136719 C 175.886719 132.332031 177.035156 132.996094 177.773438 133.542969 C 178.136719 133.808594 178.425781 134.0625 178.511719 134.230469 C 178.59375 134.363281 178.621094 134.558594 178.59375 134.714844 C 178.488281 135.5625 178.136719 136.03125 177.507812 136.613281 C 177.191406 136.878906 176.78125 137.132812 176.347656 137.328125 C 176.179688 137.433594 175.910156 137.542969 175.609375 137.675781 C 175.417969 137.761719 175.113281 137.847656 174.871094 137.929688 C 173.832031 138.304688 172.683594 138.535156 171.535156 138.71875 C 170.398438 138.851562 169.203125 138.933594 168.101562 138.800781 L 167.257812 138.691406 C 167.039062 138.632812 166.820312 138.582031 166.605469 138.523438 C 166.351562 138.582031 165.285156 137.929688 165.117188 137.894531 C 164.660156 137.59375 164.1875 137.265625 163.8125 136.988281 C 164.054688 136.636719 164.34375 136.179688 164.550781 135.753906 C 164.898438 135.101562 165.226562 134.304688 165.445312 133.625 L 165.566406 133.179688 L 165.660156 132.804688 L 165.699219 132.527344 L 165.832031 131.4375 C 165.941406 130.6875 165.890625 130.035156 165.878906 129.371094 C 165.878906 127.980469 165.699219 126.941406 165.660156 125.730469 C 165.371094 121.101562 165.335938 116.6875 164.140625 113.011719 C 163.015625 109.3125 160.574219 106.855469 158.6875 105.925781 C 157.695312 105.429688 156.957031 105.175781 156.425781 105.101562 C 155.894531 104.996094 155.605469 104.996094 155.53125 105.128906 C 155.484375 105.238281 155.691406 105.453125 156.113281 105.78125 C 156.597656 106.082031 157.199219 106.542969 157.890625 107.121094 C 159.339844 108.308594 160.984375 110.449219 161.660156 113.699219 C 162.386719 116.917969 162.191406 121.074219 162.277344 125.839844 C 162.351562 128.257812 162.605469 130.664062 162 132.585938 C 161.828125 133.15625 161.660156 133.519531 161.371094 134.039062 C 161.117188 134.558594 160.851562 134.859375 160.355469 135.683594 C 160.292969 135.816406 160.234375 135.898438 160.160156 136.058594 C 160.078125 136.25 160.003906 136.46875 159.96875 136.660156 C 159.859375 137.195312 159.921875 137.785156 160.136719 138.257812 C 160.546875 139.054688 160.984375 139.359375 161.285156 139.648438 C 161.964844 140.203125 162.519531 140.554688 163.125 140.941406 L 163.171875 140.988281 L 163.414062 141.109375 L 163.523438 141.183594 L 164.210938 141.511719 L 164.660156 141.714844 L 165.3125 141.933594 L 166.59375 142.285156 L 167.730469 142.417969 C 169.25 142.5625 170.679688 142.441406 172.054688 142.257812 C 173.445312 142.003906 174.761719 141.714844 176.042969 141.21875 C 176.371094 141.097656 176.671875 141.015625 177.011719 140.832031 C 177.277344 140.722656 177.578125 140.578125 177.917969 140.386719 C 178.570312 140.035156 179.152344 139.648438 179.71875 139.140625 C 180.84375 138.171875 181.714844 136.503906 181.773438 135.125 Z M 213.417969 85.589844 C 213.902344 90.933594 211.871094 96.738281 211.4375 102.105469 C 210.808594 110.035156 211.003906 118.027344 210.398438 125.972656 C 208.972656 139.320312 204.8125 151.789062 196.398438 162.390625 C 192.109375 167.773438 186.535156 171.90625 180.648438 175.367188 C 170.785156 181.21875 163.171875 177.46875 154.796875 171.460938 C 150.058594 168.0625 145.171875 164.941406 140.992188 160.832031 C 135.539062 155.511719 134.355469 145.597656 133.011719 138.449219 C 130.703125 126.09375 127.644531 114.039062 127.429688 101.402344 C 127.367188 97.472656 128.019531 93.460938 129.316406 89.652344 C 140.738281 92.335938 153.5 92.941406 159.90625 93.507812 C 178.621094 95.199219 195.554688 92.6875 212.898438 85.804688 C 213.058594 85.734375 213.25 85.671875 213.417969 85.589844 " fill-opacity="1" fill-rule="nonzero"/><path fill="#ffce00" d="M 222.859375 72.542969 C 219.933594 78.1875 201.5 83.425781 198.296875 84.402344 C 184.894531 88.515625 170.160156 87.945312 156.378906 86.710938 C 151.992188 86.324219 141.171875 85.539062 131.429688 83.363281 C 129.53125 82.796875 127.671875 82.214844 125.785156 81.585938 C 125.75 81.671875 125.722656 81.753906 125.675781 81.828125 C 120.007812 80.050781 115.402344 77.621094 113.757812 74.269531 C 148.269531 85.722656 188.15625 81.511719 222.859375 72.542969 " fill-opacity="1" fill-rule="nonzero"/><path fill="#ffcfae" d="M 203.277344 163.429688 C 204.269531 169.550781 206.808594 175.050781 210.347656 179.9375 C 209.601562 197.007812 193.234375 214.6875 181.835938 225.882812 C 175.9375 231.648438 172.539062 238.300781 170.8125 245.640625 C 168.382812 237.308594 163.535156 230.078125 158.542969 222.460938 C 154.324219 216.027344 150.84375 209.148438 146.734375 202.65625 C 142.054688 195.230469 141.558594 187.527344 139.261719 179.585938 C 140.460938 176.695312 141.28125 173.574219 141.777344 170.203125 C 147.070312 174.589844 153.5625 180.042969 159.773438 182.582031 C 178.207031 190.082031 193.222656 179.027344 203.277344 163.429688 " fill-opacity="1" fill-rule="nonzero"/><path fill="#ffffff" d="M 184.09375 365.089844 C 181.726562 365.0625 179.394531 365.039062 177.058594 365.015625 C 158.300781 364.871094 139.566406 364.726562 120.816406 364.566406 C 129.675781 361.277344 138.632812 358.207031 147.566406 355.089844 C 158.796875 351.148438 169.636719 346.070312 180.867188 342.210938 C 179.34375 349.878906 180.457031 358.160156 184.09375 365.089844 " fill-opacity="1" fill-rule="nonzero"/><path fill="#ffaa00" d="M 186.984375 11.46875 C 181.277344 31.722656 181.945312 52.820312 180.480469 73.679688 C 172.734375 74.441406 164.949219 74.816406 157.199219 74.65625 C 157.117188 62.398438 156.621094 50.148438 156.113281 37.902344 C 155.773438 28.84375 155.664062 19.910156 152.460938 11.382812 C 153.222656 11.105469 153.972656 10.863281 154.757812 10.648438 C 164.511719 7.792969 176.382812 8.203125 186.984375 11.46875 " fill-opacity="1" fill-rule="nonzero"/><path fill="#000000" d="M 181.085938 132.464844 C 181.617188 133.214844 181.882812 134.144531 181.773438 135.125 C 181.714844 136.503906 180.84375 138.171875 179.71875 139.140625 C 179.152344 139.648438 178.570312 140.035156 177.917969 140.386719 C 177.578125 140.578125 177.277344 140.722656 177.011719 140.832031 C 176.671875 141.015625 176.371094 141.097656 176.042969 141.21875 C 174.761719 141.714844 173.445312 142.003906 172.054688 142.257812 C 170.679688 142.441406 169.25 142.5625 167.730469 142.417969 L 166.59375 142.285156 L 165.3125 141.933594 L 164.660156 141.714844 L 164.210938 141.511719 L 163.523438 141.183594 L 163.414062 141.109375 L 163.171875 140.988281 L 163.125 140.941406 C 162.519531 140.554688 161.964844 140.203125 161.285156 139.648438 C 160.984375 139.359375 160.546875 139.054688 160.136719 138.257812 C 159.921875 137.785156 159.859375 137.195312 159.96875 136.660156 C 160.003906 136.46875 160.078125 136.25 160.160156 136.058594 C 160.234375 135.898438 160.292969 135.816406 160.355469 135.683594 C 160.851562 134.859375 161.117188 134.558594 161.371094 134.039062 C 161.660156 133.519531 161.828125 133.15625 162 132.585938 C 162.605469 130.664062 162.351562 128.257812 162.277344 125.839844 C 162.191406 121.074219 162.386719 116.917969 161.660156 113.699219 C 160.984375 110.449219 159.339844 108.308594 157.890625 107.121094 C 157.199219 106.542969 156.597656 106.082031 156.113281 105.78125 C 155.691406 105.453125 155.484375 105.238281 155.53125 105.128906 C 155.605469 104.996094 155.894531 104.996094 156.425781 105.101562 C 156.957031 105.175781 157.695312 105.429688 158.6875 105.925781 C 160.574219 106.855469 163.015625 109.3125 164.140625 113.011719 C 165.335938 116.6875 165.371094 121.101562 165.660156 125.730469 C 165.699219 126.941406 165.878906 127.980469 165.878906 129.371094 C 165.890625 130.035156 165.941406 130.6875 165.832031 131.4375 L 165.699219 132.527344 L 165.660156 132.804688 L 165.566406 133.179688 L 165.445312 133.625 C 165.226562 134.304688 164.898438 135.101562 164.550781 135.753906 C 164.34375 136.179688 164.054688 136.636719 163.8125 136.988281 C 164.1875 137.265625 164.660156 137.59375 165.117188 137.894531 C 165.285156 137.929688 166.351562 138.582031 166.605469 138.523438 C 166.820312 138.582031 167.039062 138.632812 167.257812 138.691406 L 168.101562 138.800781 C 169.203125 138.933594 170.398438 138.851562 171.535156 138.71875 C 172.683594 138.535156 173.832031 138.304688 174.871094 137.929688 C 175.113281 137.847656 175.417969 137.761719 175.609375 137.675781 C 175.910156 137.542969 176.179688 137.433594 176.347656 137.328125 C 176.78125 137.132812 177.191406 136.878906 177.507812 136.613281 C 178.136719 136.03125 178.488281 135.5625 178.59375 134.714844 C 178.621094 134.558594 178.59375 134.363281 178.511719 134.230469 C 178.425781 134.0625 178.136719 133.808594 177.773438 133.542969 C 177.035156 132.996094 175.886719 132.332031 175.136719 131.136719 L 174.898438 130.710938 L 174.847656 130.640625 L 174.789062 130.445312 L 174.761719 130.421875 L 174.738281 130.335938 L 174.703125 130.167969 L 174.511719 129.492188 C 174.328125 129.105469 174.304688 128.390625 174.242188 127.894531 C 174.183594 126.832031 174.21875 126.058594 174.183594 125.296875 C 174.109375 124.363281 174.207031 123.710938 174.207031 122.984375 C 174.269531 121.546875 174.328125 120.339844 174.402344 119.324219 C 174.546875 117.328125 174.761719 116.226562 175.03125 116.214844 C 175.257812 116.214844 175.550781 117.316406 175.828125 119.261719 C 175.960938 120.253906 176.105469 121.460938 176.261719 122.878906 C 176.324219 123.542969 176.371094 124.390625 176.492188 125.054688 C 176.625 125.898438 176.6875 126.808594 176.792969 127.542969 C 176.902344 127.894531 176.820312 128.136719 177.035156 128.609375 L 177.300781 129.261719 L 177.363281 129.382812 L 177.363281 129.40625 L 177.496094 129.589844 C 177.808594 130.035156 178.488281 130.421875 179.476562 131.027344 C 179.960938 131.351562 180.542969 131.753906 181.085938 132.464844 " fill-opacity="1" fill-rule="nonzero"/><path fill="#ffffff" d="M 168.769531 270.753906 C 168.792969 279.722656 167.753906 288.851562 167.730469 297.847656 C 160.054688 290.28125 153.113281 281.839844 147.011719 272.445312 C 142.707031 265.832031 138.683594 259.15625 135.84375 251.78125 C 133.425781 245.421875 129.339844 238.929688 127.671875 232.410156 C 133.316406 230.441406 139.117188 228.953125 144.957031 227.539062 C 146.359375 230.730469 149.234375 232.542969 152.21875 234.441406 C 159.363281 238.988281 167.367188 246.390625 168.488281 255.421875 C 168.515625 255.652344 168.597656 255.867188 168.683594 256.0625 C 168.238281 260.933594 168.757812 266.035156 168.769531 270.753906 " fill-opacity="1" fill-rule="nonzero"/><path fill="#f97c00" d="M 167.753906 307.765625 C 168.042969 318.476562 169.445312 329.1875 167.824219 339.855469 C 167.824219 339.960938 167.824219 340.070312 167.824219 340.179688 C 160.511719 343.09375 153.234375 346.191406 145.839844 348.8125 C 131.695312 353.855469 117.433594 358.535156 103.566406 364.375 C 103.542969 364.375 103.53125 364.398438 103.484375 364.410156 C 100.363281 364.375 97.210938 364.277344 94.054688 364.179688 C 94.054688 363.722656 94.054688 363.273438 94.054688 362.816406 C 94.089844 360.796875 93.863281 358.945312 93.777344 357.035156 C 93.65625 355.199219 93.535156 353.394531 93.425781 351.628906 C 93.34375 349.914062 93.125 348.234375 93.148438 346.539062 C 93.148438 343.203125 93.160156 339.9375 93.292969 336.722656 C 93.367188 335.136719 93.402344 333.53125 93.425781 331.957031 C 93.464844 329.164062 93.511719 326.433594 93.570312 323.75 C 93.535156 323.773438 93.511719 323.773438 93.464844 323.773438 C 93.402344 318.429688 91.613281 313.605469 90.660156 308.019531 C 88.859375 297.414062 87.757812 286.714844 85.703125 276.144531 C 83.925781 267.078125 81.21875 258.214844 78.824219 249.316406 C 76.613281 241.117188 70.640625 233.476562 69.589844 225.144531 C 83.320312 215.011719 102.578125 210.597656 116.851562 202.632812 C 118.351562 201.796875 119.753906 200.925781 121.121094 200.042969 C 118.824219 202.945312 116.609375 205.90625 115.339844 209.449219 C 112.5 217.285156 112.898438 227.308594 115.269531 235.203125 C 115.644531 236.460938 116.984375 236.933594 118.132812 236.378906 C 119.257812 235.808594 120.40625 235.265625 121.566406 234.769531 C 123.367188 241.394531 127.285156 247.234375 129.59375 253.726562 C 131.972656 260.4375 135.539062 266.542969 139.179688 272.640625 C 147.09375 285.816406 156.789062 297.074219 167.753906 307.765625 " fill-opacity="1" fill-rule="nonzero"/><path fill="#ffffff" d="M 164.792969 239.8125 C 164.730469 239.726562 164.660156 239.640625 164.597656 239.558594 C 160.839844 234.960938 149.671875 230.296875 148.21875 225.058594 C 148.21875 225.035156 148.21875 225.035156 148.195312 225.011719 C 148.027344 223.972656 147.167969 223.027344 145.839844 223.34375 C 136.46875 225.554688 127.210938 227.9375 118.460938 231.941406 C 116.527344 223.851562 116.851562 214.058594 120.769531 206.8125 C 123.910156 201 128.953125 197.082031 131.730469 191.300781 C 133.558594 189.332031 135.175781 187.226562 136.542969 184.976562 C 137.496094 189.5 138.222656 194.046875 140 198.421875 C 142.140625 203.683594 145.8125 208.023438 148.738281 212.847656 C 153.886719 221.371094 160.65625 230.332031 164.792969 239.8125 " fill-opacity="1" fill-rule="nonzero"/><path fill="#ffce00" d="M 152.402344 42.15625 C 152.824219 52.976562 153.222656 63.777344 153.308594 74.597656 C 139.285156 74.015625 125.53125 71.671875 112.609375 67.027344 C 115.039062 44.476562 128.105469 21.855469 148.824219 12.789062 C 152.246094 22.183594 152.003906 32.265625 152.402344 42.15625 " fill-opacity="1" fill-rule="nonzero"/><path fill="#603813" d="M 123.078125 87.921875 C 122.171875 90.824219 121.554688 93.917969 121.226562 97.183594 C 120.636719 94.355469 119.703125 91.804688 118.929688 89.421875 C 118.496094 88.1875 118.109375 86.992188 117.746094 85.832031 C 119.402344 86.605469 121.203125 87.292969 123.078125 87.921875 " fill-opacity="1" fill-rule="nonzero"/><path fill="#ffcfae" d="M 121.179688 108.960938 C 121.640625 116.46875 122.933594 124.171875 124.550781 131.703125 C 121.445312 129.128906 118.761719 121.621094 118.0625 119.589844 C 116.769531 115.730469 113.925781 106.214844 120.878906 108.875 C 120.984375 108.914062 121.070312 108.9375 121.179688 108.960938 " fill-opacity="1" fill-rule="nonzero"/><path fill="#ffffff" d="M 87.296875 357.507812 C 87.371094 359.285156 87.601562 361.144531 87.5625 362.949219 C 87.5625 363.273438 87.5625 363.589844 87.539062 363.914062 C 74.558594 363.371094 61.457031 362.683594 48.582031 363.226562 C 48.148438 363.03125 47.675781 362.898438 47.105469 362.898438 C 44.859375 362.898438 42.609375 362.875 40.363281 362.875 C 40.398438 362.464844 40.445312 362.054688 40.484375 361.582031 C 42.066406 353.503906 42.066406 345.222656 42.585938 336.976562 C 43.347656 324.886719 44.835938 312.9375 46.394531 300.90625 C 49.054688 280.363281 47.375 258.710938 56.910156 239.691406 C 58.785156 235.917969 61.261719 232.703125 64.089844 229.859375 C 65.128906 233.34375 66.6875 236.59375 68.394531 239.992188 C 72.550781 248.191406 74.339844 257.453125 76.699219 266.304688 C 79.101562 275.347656 80.746094 284.5 82.089844 293.761719 C 82.875 299.082031 83.574219 304.425781 84.398438 309.757812 C 85.183594 314.726562 87.429688 319.515625 87.082031 324.582031 C 86.886719 324.535156 86.695312 324.484375 86.5 324.378906 C 85.535156 324.039062 84.53125 323.214844 83.625 322.320312 C 81.785156 320.472656 80.277344 318.089844 78.996094 315.769531 C 76.394531 311.050781 74.628906 306.289062 73.09375 302.007812 C 70.121094 293.375 68.285156 286.339844 66.859375 280.945312 C 64.066406 270.136719 63.015625 265.808594 62.253906 265.890625 C 61.5625 265.953125 61.273438 270.546875 63.027344 281.753906 C 63.945312 287.328125 65.324219 294.609375 68.03125 303.675781 C 69.433594 308.199219 71.078125 313.191406 73.820312 318.511719 C 75.210938 321.160156 76.804688 323.929688 79.273438 326.566406 C 80.554688 327.847656 82.003906 329.164062 84.058594 330.046875 C 84.554688 330.289062 85.074219 330.484375 85.65625 330.59375 L 86.5 330.808594 L 86.9375 330.894531 L 86.984375 330.894531 C 87.105469 330.917969 87.152344 330.917969 87.175781 330.917969 C 87.191406 330.917969 87.175781 330.980469 87.175781 331.003906 C 87.152344 331.160156 87.152344 330.699219 87.128906 331.800781 C 87.082031 333.300781 87.042969 334.871094 86.960938 336.503906 C 86.777344 339.695312 86.71875 343.09375 86.695312 346.648438 C 86.667969 348.402344 86.886719 350.214844 86.984375 352.066406 C 87.082031 353.832031 87.191406 355.65625 87.296875 357.507812 " fill-opacity="1" fill-rule="nonzero"/><path fill="#ffffff" d="M 158.621094 244.546875 C 159.054688 244.976562 159.4375 245.449219 159.777344 245.953125 C 160.117188 246.460938 160.402344 246.996094 160.636719 247.5625 C 160.871094 248.125 161.046875 248.703125 161.164062 249.304688 C 161.285156 249.902344 161.34375 250.503906 161.34375 251.117188 C 161.34375 251.726562 161.285156 252.328125 161.164062 252.925781 C 161.046875 253.527344 160.871094 254.105469 160.636719 254.671875 C 160.402344 255.234375 160.117188 255.769531 159.777344 256.277344 C 159.441406 256.785156 159.054688 257.253906 158.625 257.683594 C 158.191406 258.113281 157.722656 258.5 157.214844 258.839844 C 156.707031 259.179688 156.171875 259.464844 155.609375 259.699219 C 155.046875 259.929688 154.464844 260.105469 153.867188 260.226562 C 153.269531 260.34375 152.664062 260.40625 152.054688 260.40625 C 151.445312 260.40625 150.839844 260.34375 150.242188 260.226562 C 149.644531 260.105469 149.0625 259.929688 148.5 259.699219 C 147.9375 259.464844 147.402344 259.179688 146.894531 258.839844 C 146.386719 258.5 145.917969 258.117188 145.488281 257.683594 C 145.054688 257.253906 144.671875 256.785156 144.332031 256.277344 C 143.992188 255.769531 143.707031 255.234375 143.472656 254.671875 C 143.238281 254.105469 143.0625 253.527344 142.945312 252.929688 C 142.824219 252.328125 142.765625 251.726562 142.765625 251.117188 C 142.765625 250.503906 142.824219 249.902344 142.945312 249.304688 C 143.0625 248.707031 143.238281 248.125 143.472656 247.5625 C 143.707031 246.996094 143.992188 246.460938 144.332031 245.953125 C 144.667969 245.449219 145.054688 244.976562 145.484375 244.546875 C 145.917969 244.117188 146.386719 243.730469 146.894531 243.390625 C 147.402344 243.054688 147.9375 242.765625 148.5 242.535156 C 149.0625 242.300781 149.644531 242.125 150.242188 242.003906 C 150.839844 241.886719 151.445312 241.828125 152.054688 241.828125 C 152.664062 241.828125 153.269531 241.886719 153.867188 242.003906 C 154.464844 242.125 155.046875 242.300781 155.609375 242.535156 C 156.171875 242.765625 156.707031 243.054688 157.214844 243.390625 C 157.722656 243.730469 158.191406 244.117188 158.621094 244.546875 Z M 158.621094 244.546875 " fill-opacity="1" fill-rule="nonzero"/></svg>