<svg xmlns="http://www.w3.org/2000/svg" xmlns:xlink="http://www.w3.org/1999/xlink" width="500" zoomAndPan="magnify" viewBox="0 0 375 374.999991" height="500" preserveAspectRatio="xMidYMid meet" version="1.0"><defs><filter x="0%" y="0%" width="100%" height="100%" id="35d57302e6"><feColorMatrix values="0 0 0 0 1 0 0 0 0 1 0 0 0 0 1 0 0 0 1 0" color-interpolation-filters="sRGB"/></filter><mask id="810e1dac2d"><g filter="url(#35d57302e6)"><rect x="-37.5" width="450" fill="#000000" y="-37.499999" height="449.999989" fill-opacity="0.31"/></g></mask><clipPath id="fce3b28c7d"><path d="M 1 2 L 27 2 L 27 91 L 1 91 Z M 1 2 " clip-rule="nonzero"/></clipPath><clipPath id="290c13bf99"><path d="M 78 2 L 102 2 L 102 91 L 78 91 Z M 78 2 " clip-rule="nonzero"/></clipPath><clipPath id="45d619d1e3"><path d="M 114 2 L 140 2 L 140 91 L 114 91 Z M 114 2 " clip-rule="nonzero"/></clipPath><clipPath id="07349b4c8f"><rect x="0" width="141" y="0" height="91"/></clipPath><clipPath id="ab26ac7f1b"><path d="M 244 358 L 260 358 L 260 368.375 L 244 368.375 Z M 244 358 " clip-rule="nonzero"/></clipPath><clipPath id="30e6ed98a7"><path d="M 272.691406 341.390625 C 272.691406 341.390625 268.175781 348.640625 262.097656 344.410156 L 244.972656 368.375 L 281.136719 350.074219 Z M 272.691406 341.390625 " clip-rule="nonzero"/></clipPath><clipPath id="0d62fa81cd"><path d="M 217.554688 366 L 232 366 L 232 374.953125 L 217.554688 374.953125 Z M 217.554688 366 " clip-rule="nonzero"/></clipPath><clipPath id="8184b9c4bd"><path d="M 254.554688 362.355469 C 254.554688 362.355469 247.347656 366.945312 243.699219 360.503906 L 217.890625 374.710938 L 258.414062 373.835938 Z M 254.554688 362.355469 " clip-rule="nonzero"/></clipPath></defs><path fill="#ffffff" d="M 296.617188 170.492188 L 358.332031 170.492188 C 367.867188 170.492188 374.988281 178.433594 373.035156 186.882812 L 353.320312 272.148438 L 353.320312 279.410156 C 353.320312 283.859375 349.335938 287.46875 344.421875 287.46875 L 264.957031 287.46875 L 264.957031 256.722656 L 319.84375 252.867188 Z M 296.617188 170.492188 " fill-opacity="1" fill-rule="nonzero"/><path fill="#ffad65" d="M 316.03125 196.195312 L 325.515625 232.40625 C 326.332031 236.4375 330.4375 238.898438 334.382812 237.71875 C 337.667969 236.730469 339.757812 233.507812 339.304688 230.105469 L 333.878906 199.96875 Z M 316.03125 196.195312 " fill-opacity="1" fill-rule="nonzero"/><path fill="#000000" d="M 12.613281 0 L 270.824219 0 L 270.824219 176.34375 L 12.613281 176.34375 Z M 12.613281 0 " fill-opacity="1" fill-rule="nonzero"/><path fill="#ffffff" d="M 266.023438 4.800781 L 266.023438 171.546875 L 17.417969 171.546875 L 17.417969 4.800781 Z M 266.023438 4.800781 " fill-opacity="1" fill-rule="nonzero"/><path fill="#000000" d="M 100.78125 367.777344 L 110.75 372.570312 C 111.804688 373.078125 112.445312 374.242188 112.117188 375.34375 C 111.855469 376.214844 111.007812 376.882812 108.789062 376.917969 C 103.863281 377.003906 82.0625 373.828125 82.0625 373.828125 L 82.0625 376.058594 L 71.945312 374.945312 C 71.945312 374.945312 71.234375 363.664062 74.316406 362.015625 Z M 100.78125 367.777344 " fill-opacity="1" fill-rule="nonzero"/><path fill="#ffad65" d="M 87.433594 358.253906 L 100.78125 367.777344 C 100.78125 367.777344 99.066406 372.082031 91.457031 369.210938 C 83.847656 366.339844 74.320312 362.015625 74.320312 362.015625 L 75.277344 355.589844 Z M 87.433594 358.253906 " fill-opacity="1" fill-rule="nonzero"/><path fill="#ffad65" d="M 75.226562 357.03125 L 76.492188 322.460938 L 93.058594 321.519531 L 90.347656 362.707031 Z M 75.226562 357.03125 " fill-opacity="1" fill-rule="nonzero"/><path fill="#000000" d="M 51.371094 367.777344 L 61.335938 372.570312 C 62.390625 373.078125 63.03125 374.242188 62.703125 375.34375 C 62.445312 376.214844 61.59375 376.882812 59.375 376.917969 C 54.449219 377.003906 32.648438 373.828125 32.648438 373.828125 L 32.648438 376.058594 L 22.53125 374.945312 C 22.53125 374.945312 21.824219 363.664062 24.90625 362.015625 Z M 51.371094 367.777344 " fill-opacity="1" fill-rule="nonzero"/><path fill="#ffad65" d="M 38.019531 358.253906 L 51.371094 367.777344 C 51.371094 367.777344 49.652344 372.082031 42.046875 369.210938 C 34.4375 366.339844 24.90625 362.015625 24.90625 362.015625 L 25.867188 355.589844 Z M 38.019531 358.253906 " fill-opacity="1" fill-rule="nonzero"/><path fill="#ffad65" d="M 25.8125 357.03125 L 27.082031 322.460938 L 43.644531 321.519531 L 40.9375 362.707031 Z M 25.8125 357.03125 " fill-opacity="1" fill-rule="nonzero"/><path fill="#000000" d="M 64.101562 25.398438 C 63.363281 25.378906 61.820312 27.359375 61.355469 27.933594 C 60.289062 29.253906 59.222656 30.582031 58.335938 32.03125 C 54.886719 37.691406 54.742188 43.96875 54.300781 50.386719 C 53.867188 56.746094 52.917969 63.203125 50.085938 68.914062 C 48.699219 71.710938 46.878906 74.296875 45.742188 77.207031 C 44.605469 80.113281 44.238281 83.546875 45.769531 86.269531 C 45.910156 86.519531 46.078125 86.773438 46.328125 86.914062 C 53.621094 91.085938 62.839844 92.378906 71.035156 90.503906 C 73.300781 89.984375 75.558594 89.28125 77.554688 88.085938 C 83.222656 84.6875 85.941406 77.8125 86.496094 71.230469 C 87.050781 64.644531 85.832031 58.054688 85.5625 51.457031 C 85.363281 46.640625 85.625 41.589844 83.492188 37.269531 C 82.511719 35.289062 81.078125 33.574219 79.65625 31.878906 C 78.160156 30.097656 76.621094 28.277344 74.605469 27.101562 C 71.699219 25.414062 67.464844 25.496094 64.101562 25.398438 Z M 64.101562 25.398438 " fill-opacity="1" fill-rule="nonzero"/><path fill="#3f2952" d="M 98.699219 147.390625 C 98.699219 147.390625 104.242188 150.972656 105.246094 180.894531 C 105.453125 187.046875 105.332031 195.589844 104.949219 201.730469 L 95.753906 346.984375 L 71.308594 346.984375 L 76.246094 190.878906 L 45.007812 346.980469 L 21.210938 346.308594 L 47.996094 147.390625 L 72.042969 144.457031 Z M 98.699219 147.390625 " fill-opacity="1" fill-rule="nonzero"/><path fill="#000000" d="M 75.308594 191.230469 C 75.140625 191.230469 74.988281 191.109375 74.960938 190.9375 C 74.929688 190.746094 75.058594 190.566406 75.25 190.53125 L 89.25 188.210938 C 89.441406 188.195312 89.625 188.308594 89.65625 188.5 C 89.6875 188.691406 89.558594 188.875 89.367188 188.90625 L 75.367188 191.226562 C 75.347656 191.230469 75.328125 191.230469 75.308594 191.230469 Z M 75.308594 191.230469 " fill-opacity="1" fill-rule="nonzero"/><path fill="#ffad65" d="M 114.21875 153.808594 L 153.480469 114.105469 L 149.128906 107.65625 C 149.128906 107.65625 121.097656 127.328125 103.191406 141.46875 C 100.351562 143.714844 102.089844 150.511719 104.554688 153.164062 C 106.863281 155.644531 111.734375 156.117188 114.21875 153.808594 Z M 114.21875 153.808594 " fill-opacity="1" fill-rule="nonzero"/><path fill="#ffad65" d="M 149.917969 115.199219 C 149.917969 115.199219 156.675781 115.726562 161.441406 110.296875 L 168.25 108.410156 C 169.308594 108.117188 169.964844 107.097656 169.789062 106.019531 C 169.601562 104.851562 168.507812 104.019531 167.320312 104.140625 L 163.070312 104.570312 L 164.242188 103.6875 C 166.105469 102.289062 168.410156 101.5625 170.785156 101.625 L 177.542969 101.804688 C 178.308594 101.824219 179.019531 101.433594 179.390625 100.78125 C 180.105469 99.519531 179.289062 97.910156 177.8125 97.683594 L 168.964844 96.34375 C 165.535156 95.820312 162.078125 96.777344 159.484375 98.960938 L 145.546875 110.707031 Z M 149.917969 115.199219 " fill-opacity="1" fill-rule="nonzero"/><path fill="#ffad65" d="M 91.144531 97.257812 C 91.144531 97.257812 94.523438 126.851562 101.476562 149.40625 C 102.316406 152.121094 107.519531 155.789062 110.355469 155.976562 C 114.632812 156.261719 118.121094 152.59375 117.625 148.335938 L 109.140625 95.519531 Z M 91.144531 97.257812 " fill-opacity="1" fill-rule="nonzero"/><path fill="#f89a00" d="M 99.230469 78.859375 C 99.230469 78.859375 113.617188 87.429688 116.414062 110.644531 L 95.871094 121.925781 Z M 99.230469 78.859375 " fill-opacity="1" fill-rule="nonzero"/><path fill="#f89a00" d="M 95.871094 121.925781 L 119.1875 114.953125 L 117.199219 108.425781 L 96.398438 114.019531 Z M 95.871094 121.925781 " fill-opacity="1" fill-rule="nonzero"/><path fill="#f89a00" d="M 71.746094 71.609375 C 64.664062 72.210938 57.679688 73.765625 51.078125 76.40625 C 49.460938 77.050781 47.871094 77.761719 46.414062 78.523438 C 41.824219 80.921875 43.199219 86.105469 43.773438 91.398438 L 46.46875 162.957031 L 104.234375 161.488281 L 106.527344 93.757812 C 107.03125 86.378906 102.664062 79.597656 95.914062 77.21875 C 88.347656 74.554688 79.113281 71.570312 75.089844 71.324219 Z M 71.746094 71.609375 " fill-opacity="1" fill-rule="nonzero"/><path fill="#000000" d="M 104.839844 118.675781 C 104.832031 118.675781 104.824219 118.675781 104.816406 118.675781 C 104.621094 118.664062 104.476562 118.496094 104.488281 118.300781 L 105.925781 97.347656 C 105.941406 97.152344 106.113281 97.015625 106.300781 97.019531 C 106.492188 97.03125 106.640625 97.199219 106.628906 97.394531 L 105.1875 118.347656 C 105.175781 118.535156 105.023438 118.675781 104.839844 118.675781 Z M 104.839844 118.675781 " fill-opacity="1" fill-rule="nonzero"/><path fill="#f89a00" d="M 92.507812 76.039062 C 92.507812 76.039062 81.875 71.875 75.089844 71.324219 C 75.089844 71.324219 65.816406 71.71875 59.441406 73.679688 C 59.441406 73.679688 62.976562 81.222656 79.253906 82.457031 C 95.53125 83.695312 92.507812 76.039062 92.507812 76.039062 Z M 92.507812 76.039062 " fill-opacity="1" fill-rule="nonzero"/><path fill="#ffad65" d="M 14.207031 112.191406 L 41.371094 153.65625 L 34.054688 161.953125 L 4.066406 131.492188 Z M 14.207031 112.191406 " fill-opacity="1" fill-rule="nonzero"/><path fill="#ffad65" d="M 66.328125 155.546875 L 54.710938 149.417969 L 55.851562 146.773438 C 56.265625 145.8125 56.007812 144.679688 55.222656 144.011719 C 54.410156 143.320312 53.25 143.300781 52.414062 143.964844 L 40.972656 153.28125 L 34.054688 161.953125 C 40.332031 167.527344 44.433594 167.457031 46.796875 166.378906 C 47.074219 166.472656 47.347656 166.578125 47.625 166.660156 L 57.28125 169.53125 C 58.175781 169.929688 59.214844 169.542969 59.652344 168.640625 C 59.972656 167.988281 60.082031 166.941406 58.222656 165.960938 L 60.082031 166.941406 C 61.027344 167.363281 62.125 166.933594 62.566406 165.972656 C 62.980469 165.121094 62.472656 163.996094 61.378906 163.257812 L 62.804688 163.835938 C 63.832031 164.296875 65.046875 163.773438 65.433594 162.640625 C 65.765625 161.660156 65.265625 160.578125 64.371094 160.109375 L 62.320312 159.03125 L 64.757812 159.644531 C 65.878906 160.054688 67.132812 159.433594 67.5 158.210938 C 67.816406 157.167969 67.273438 156.042969 66.328125 155.546875 Z M 66.328125 155.546875 " fill-opacity="1" fill-rule="nonzero"/><path fill="#000000" d="M 62.933594 159.5625 C 62.902344 159.5625 62.867188 159.554688 62.835938 159.539062 L 55.964844 156.175781 C 55.851562 156.121094 55.804688 155.984375 55.859375 155.871094 C 55.917969 155.757812 56.054688 155.710938 56.164062 155.765625 L 63.035156 159.128906 C 63.148438 159.183594 63.195312 159.320312 63.140625 159.433594 C 63.101562 159.515625 63.019531 159.5625 62.933594 159.5625 Z M 62.933594 159.5625 " fill-opacity="1" fill-rule="nonzero"/><path fill="#000000" d="M 61.085938 163.359375 C 61.058594 163.359375 61.027344 163.355469 60.996094 163.34375 L 54.375 160.484375 C 54.257812 160.433594 54.207031 160.296875 54.257812 160.183594 C 54.304688 160.066406 54.441406 160.015625 54.554688 160.066406 L 61.179688 162.925781 C 61.296875 162.972656 61.347656 163.109375 61.296875 163.222656 C 61.261719 163.308594 61.175781 163.359375 61.085938 163.359375 Z M 61.085938 163.359375 " fill-opacity="1" fill-rule="nonzero"/><path fill="#000000" d="M 58.839844 166.441406 C 58.808594 166.441406 58.78125 166.4375 58.753906 166.425781 L 53.140625 164.128906 C 53.023438 164.082031 52.96875 163.949219 53.015625 163.832031 C 53.0625 163.71875 53.199219 163.660156 53.3125 163.707031 L 58.925781 166.003906 C 59.039062 166.050781 59.097656 166.183594 59.050781 166.300781 C 59.015625 166.390625 58.929688 166.441406 58.839844 166.441406 Z M 58.839844 166.441406 " fill-opacity="1" fill-rule="nonzero"/><path fill="#ffad65" d="M 52.304688 100.761719 L 17.761719 131.652344 C 14.539062 135.03125 9.449219 135.550781 5.652344 132.886719 C 0.867188 129.527344 0.046875 122.5625 3.910156 118.105469 L 36.390625 85.199219 C 40.273438 80.726562 46.851562 80.171875 51.378906 83.941406 C 56.4375 88.15625 56.867188 95.980469 52.304688 100.761719 Z M 52.304688 100.761719 " fill-opacity="1" fill-rule="nonzero"/><path fill="#f89a00" d="M 53.066406 75.644531 C 53.066406 75.644531 39.191406 78.449219 21.972656 99.808594 L 36.71875 119.59375 L 59.191406 102.90625 Z M 53.066406 75.644531 " fill-opacity="1" fill-rule="nonzero"/><path fill="#f89a00" d="M 36.28125 119.894531 L 42.277344 115.445312 L 26.117188 93.09375 L 20 97.621094 Z M 36.28125 119.894531 " fill-opacity="1" fill-rule="nonzero"/><path fill="#000000" d="M 44.347656 114.28125 C 44.242188 114.28125 44.136719 114.230469 44.066406 114.140625 C 43.949219 113.984375 43.984375 113.761719 44.140625 113.648438 L 57.175781 103.96875 C 57.332031 103.855469 57.550781 103.886719 57.667969 104.042969 C 57.78125 104.199219 57.75 104.417969 57.59375 104.53125 L 44.558594 114.210938 C 44.496094 114.257812 44.421875 114.28125 44.347656 114.28125 Z M 44.347656 114.28125 " fill-opacity="1" fill-rule="nonzero"/><path fill="#000000" d="M 77.277344 20.609375 C 77.277344 20.609375 90.652344 16.671875 97.136719 22.429688 C 106.628906 30.859375 94.894531 37.222656 94.894531 37.222656 Z M 77.277344 20.609375 " fill-opacity="1" fill-rule="nonzero"/><path fill="#000000" d="M 97.644531 39.359375 C 97.667969 40 97.65625 40.636719 97.613281 41.273438 C 97.574219 41.910156 97.496094 42.542969 97.390625 43.175781 C 97.28125 43.804688 97.144531 44.429688 96.972656 45.046875 C 96.800781 45.664062 96.597656 46.269531 96.363281 46.871094 C 96.128906 47.46875 95.863281 48.054688 95.570312 48.628906 C 95.273438 49.203125 94.953125 49.761719 94.601562 50.304688 C 94.246094 50.847656 93.867188 51.375 93.460938 51.882812 C 93.058594 52.390625 92.625 52.882812 92.167969 53.347656 C 91.714844 53.816406 91.234375 54.261719 90.730469 54.6875 C 90.230469 55.109375 89.707031 55.507812 89.164062 55.882812 C 88.621094 56.257812 88.0625 56.605469 87.484375 56.929688 C 86.902344 57.25 86.308594 57.546875 85.703125 57.8125 C 85.09375 58.078125 84.472656 58.316406 83.839844 58.527344 C 83.207031 58.734375 82.5625 58.914062 81.914062 59.0625 C 81.261719 59.210938 80.605469 59.328125 79.941406 59.414062 C 79.277344 59.5 78.613281 59.554688 77.945312 59.582031 C 77.277344 59.605469 76.609375 59.597656 75.941406 59.558594 C 75.273438 59.523438 74.609375 59.453125 73.949219 59.351562 C 73.289062 59.253906 72.636719 59.121094 71.988281 58.960938 C 71.339844 58.796875 70.707031 58.605469 70.078125 58.382812 C 69.453125 58.164062 68.839844 57.914062 68.238281 57.632812 C 67.636719 57.355469 67.050781 57.046875 66.484375 56.714844 C 65.914062 56.378906 65.363281 56.019531 64.832031 55.636719 C 64.300781 55.25 63.789062 54.839844 63.300781 54.40625 C 62.8125 53.972656 62.347656 53.515625 61.90625 53.039062 C 61.460938 52.5625 61.046875 52.066406 60.65625 51.546875 C 60.265625 51.03125 59.902344 50.496094 59.566406 49.945312 C 59.230469 49.394531 58.921875 48.832031 58.644531 48.25 C 58.367188 47.671875 58.121094 47.078125 57.90625 46.476562 C 57.6875 45.875 57.503906 45.261719 57.351562 44.640625 C 57.195312 44.019531 57.074219 43.394531 56.988281 42.761719 C 56.898438 42.128906 56.839844 41.492188 56.816406 40.855469 C 56.792969 40.21875 56.804688 39.582031 56.847656 38.945312 C 56.890625 38.308594 56.964844 37.671875 57.070312 37.042969 C 57.179688 36.414062 57.316406 35.789062 57.488281 35.171875 C 57.660156 34.554688 57.863281 33.945312 58.097656 33.347656 C 58.332031 32.75 58.597656 32.164062 58.890625 31.589844 C 59.1875 31.015625 59.511719 30.457031 59.863281 29.910156 C 60.214844 29.367188 60.59375 28.839844 61 28.332031 C 61.40625 27.824219 61.835938 27.335938 62.292969 26.867188 C 62.75 26.398438 63.226562 25.953125 63.730469 25.53125 C 64.230469 25.105469 64.753906 24.707031 65.296875 24.332031 C 65.839844 23.957031 66.398438 23.609375 66.980469 23.289062 C 67.558594 22.964844 68.152344 22.671875 68.761719 22.40625 C 69.367188 22.136719 69.988281 21.898438 70.621094 21.691406 C 71.253906 21.484375 71.898438 21.304688 72.546875 21.15625 C 73.199219 21.007812 73.855469 20.890625 74.519531 20.804688 C 75.183594 20.714844 75.847656 20.660156 76.515625 20.636719 C 77.1875 20.613281 77.855469 20.617188 78.519531 20.65625 C 79.1875 20.695312 79.851562 20.765625 80.511719 20.863281 C 81.171875 20.964844 81.828125 21.097656 82.472656 21.257812 C 83.121094 21.417969 83.757812 21.609375 84.382812 21.832031 C 85.007812 22.054688 85.625 22.304688 86.222656 22.582031 C 86.824219 22.863281 87.410156 23.167969 87.976562 23.503906 C 88.546875 23.835938 89.097656 24.195312 89.628906 24.582031 C 90.160156 24.96875 90.671875 25.378906 91.160156 25.8125 C 91.648438 26.246094 92.113281 26.699219 92.558594 27.175781 C 93 27.65625 93.414062 28.152344 93.808594 28.667969 C 94.199219 29.183594 94.5625 29.71875 94.898438 30.269531 C 95.234375 30.820312 95.539062 31.386719 95.816406 31.964844 C 96.09375 32.546875 96.339844 33.136719 96.558594 33.742188 C 96.773438 34.34375 96.957031 34.957031 97.113281 35.578125 C 97.265625 36.199219 97.386719 36.824219 97.476562 37.457031 C 97.5625 38.089844 97.621094 38.722656 97.644531 39.359375 Z M 97.644531 39.359375 " fill-opacity="1" fill-rule="nonzero"/><path fill="#ffad65" d="M 101.863281 46.722656 C 101.863281 47.066406 101.828125 47.410156 101.761719 47.75 C 101.695312 48.09375 101.59375 48.421875 101.460938 48.742188 C 101.328125 49.0625 101.164062 49.367188 100.972656 49.65625 C 100.78125 49.945312 100.5625 50.210938 100.316406 50.457031 C 100.070312 50.703125 99.804688 50.921875 99.515625 51.113281 C 99.226562 51.308594 98.921875 51.46875 98.601562 51.601562 C 98.28125 51.734375 97.949219 51.835938 97.609375 51.902344 C 97.269531 51.96875 96.925781 52.003906 96.578125 52.003906 C 96.230469 52.003906 95.886719 51.96875 95.546875 51.902344 C 95.207031 51.835938 94.875 51.734375 94.554688 51.601562 C 94.234375 51.46875 93.929688 51.308594 93.640625 51.113281 C 93.351562 50.921875 93.085938 50.703125 92.839844 50.457031 C 92.59375 50.210938 92.375 49.945312 92.183594 49.65625 C 91.988281 49.367188 91.828125 49.0625 91.695312 48.742188 C 91.5625 48.421875 91.460938 48.09375 91.394531 47.75 C 91.324219 47.410156 91.292969 47.066406 91.292969 46.722656 C 91.292969 46.375 91.324219 46.03125 91.394531 45.691406 C 91.460938 45.351562 91.5625 45.019531 91.695312 44.699219 C 91.828125 44.378906 91.988281 44.074219 92.183594 43.785156 C 92.375 43.496094 92.59375 43.230469 92.839844 42.984375 C 93.085938 42.738281 93.351562 42.519531 93.640625 42.328125 C 93.929688 42.136719 94.234375 41.972656 94.554688 41.839844 C 94.875 41.707031 95.207031 41.605469 95.546875 41.539062 C 95.886719 41.472656 96.230469 41.4375 96.578125 41.4375 C 96.925781 41.4375 97.269531 41.472656 97.609375 41.539062 C 97.949219 41.605469 98.28125 41.707031 98.601562 41.839844 C 98.921875 41.972656 99.226562 42.136719 99.515625 42.328125 C 99.804688 42.519531 100.070312 42.738281 100.316406 42.984375 C 100.5625 43.230469 100.78125 43.496094 100.972656 43.785156 C 101.164062 44.074219 101.328125 44.378906 101.460938 44.699219 C 101.59375 45.019531 101.695312 45.351562 101.761719 45.691406 C 101.828125 46.03125 101.863281 46.375 101.863281 46.722656 Z M 101.863281 46.722656 " fill-opacity="1" fill-rule="nonzero"/><path fill="#ffad65" d="M 84.355469 58.953125 L 84.683594 79.097656 L 69.730469 78.792969 L 71.785156 48.234375 Z M 84.355469 58.953125 " fill-opacity="1" fill-rule="nonzero"/><path fill="#000000" d="M 84.527344 69.574219 L 73.339844 57.617188 L 84.355469 58.953125 Z M 84.527344 69.574219 " fill-opacity="1" fill-rule="nonzero"/><path fill="#ffad65" d="M 94.570312 27.929688 C 95.945312 29.003906 96.851562 30.554688 97.253906 32.246094 C 98.449219 37.261719 100.757812 46.085938 99.167969 51.515625 C 97.09375 58.570312 91.609375 63.722656 82.394531 62.316406 C 82.394531 62.316406 71.382812 61.613281 68.617188 47.804688 C 64.214844 25.808594 82.808594 18.707031 94.570312 27.929688 Z M 94.570312 27.929688 " fill-opacity="1" fill-rule="nonzero"/><path fill="#000000" d="M 92.742188 49.5625 C 92.597656 49.5625 92.464844 49.464844 92.429688 49.316406 C 92.394531 49.144531 92.5 48.976562 92.671875 48.9375 L 93.96875 48.648438 C 94.0625 48.617188 94.132812 48.492188 94.101562 48.371094 L 93.1875 46.148438 C 93.121094 45.984375 93.199219 45.800781 93.359375 45.734375 C 93.523438 45.667969 93.707031 45.746094 93.773438 45.90625 L 94.699219 48.171875 C 94.832031 48.660156 94.574219 49.121094 94.128906 49.257812 L 92.808594 49.554688 C 92.785156 49.5625 92.765625 49.5625 92.742188 49.5625 Z M 92.742188 49.5625 " fill-opacity="1" fill-rule="nonzero"/><path fill="#000000" d="M 87.71875 43.714844 C 87.71875 43.882812 87.683594 44.050781 87.621094 44.207031 C 87.554688 44.363281 87.460938 44.503906 87.339844 44.625 C 87.21875 44.746094 87.078125 44.839844 86.921875 44.90625 C 86.761719 44.96875 86.597656 45.003906 86.429688 45.003906 C 86.257812 45.003906 86.09375 44.96875 85.933594 44.90625 C 85.777344 44.839844 85.636719 44.746094 85.515625 44.625 C 85.394531 44.503906 85.300781 44.363281 85.234375 44.207031 C 85.171875 44.050781 85.136719 43.882812 85.136719 43.714844 C 85.136719 43.542969 85.171875 43.378906 85.234375 43.21875 C 85.300781 43.0625 85.394531 42.921875 85.515625 42.800781 C 85.636719 42.679688 85.777344 42.589844 85.933594 42.523438 C 86.09375 42.457031 86.257812 42.425781 86.429688 42.425781 C 86.597656 42.425781 86.761719 42.457031 86.921875 42.523438 C 87.078125 42.589844 87.21875 42.679688 87.339844 42.800781 C 87.460938 42.921875 87.554688 43.0625 87.621094 43.21875 C 87.683594 43.378906 87.71875 43.542969 87.71875 43.714844 Z M 87.71875 43.714844 " fill-opacity="1" fill-rule="nonzero"/><path fill="#000000" d="M 95.472656 43.269531 C 95.472656 43.929688 96.007812 44.464844 96.667969 44.464844 C 97.328125 44.464844 97.863281 43.929688 97.863281 43.269531 C 97.863281 42.609375 97.328125 42.074219 96.667969 42.074219 C 96.007812 42.074219 95.472656 42.609375 95.472656 43.269531 Z M 95.472656 43.269531 " fill-opacity="1" fill-rule="nonzero"/><path fill="#000000" d="M 91.125 53.152344 C 89.777344 53.152344 88.160156 52.800781 86.660156 51.558594 C 86.527344 51.449219 86.507812 51.246094 86.621094 51.113281 C 86.734375 50.980469 86.929688 50.960938 87.066406 51.074219 C 90.117188 53.605469 93.863281 52.007812 93.898438 51.992188 C 94.058594 51.921875 94.246094 51.992188 94.316406 52.152344 C 94.386719 52.3125 94.316406 52.5 94.15625 52.570312 C 94.0625 52.613281 92.804688 53.152344 91.125 53.152344 Z M 91.125 53.152344 " fill-opacity="1" fill-rule="nonzero"/><path fill="#000000" d="M 94.871094 36.210938 C 94.871094 36.210938 94.386719 37.660156 96.195312 37.957031 C 97.5625 38.179688 98.433594 38.300781 99.203125 38.632812 C 99.636719 38.824219 100.144531 38.667969 100.40625 38.273438 C 100.613281 37.957031 100.621094 37.542969 100.410156 37.222656 C 99.988281 36.574219 99.078125 35.570312 97.414062 35.273438 C 95.277344 34.890625 94.871094 36.210938 94.871094 36.210938 Z M 94.871094 36.210938 " fill-opacity="1" fill-rule="nonzero"/><path fill="#000000" d="M 88.546875 36.273438 C 88.546875 36.273438 89.101562 37.730469 86.769531 37.988281 C 85.003906 38.179688 82.890625 38.847656 81.890625 39.160156 C 81.324219 39.339844 80.679688 39.171875 80.367188 38.769531 C 80.113281 38.445312 80.121094 38.035156 80.40625 37.71875 C 80.980469 37.082031 83.179688 35.535156 85.328125 35.273438 C 88.085938 34.945312 88.546875 36.273438 88.546875 36.273438 Z M 88.546875 36.273438 " fill-opacity="1" fill-rule="nonzero"/><path fill="#000000" d="M 90.304688 23.988281 C 90.304688 23.988281 92.421875 35.445312 64.753906 33.90625 C 64.753906 33.90625 63.140625 17.894531 90.304688 23.988281 Z M 90.304688 23.988281 " fill-opacity="1" fill-rule="nonzero"/><path fill="#000000" d="M 73.339844 31.5625 L 71.785156 48.234375 L 58.714844 37.132812 Z M 73.339844 31.5625 " fill-opacity="1" fill-rule="nonzero"/><path fill="#ffad65" d="M 61.546875 50.730469 C 62.632812 53.894531 66.082031 55.578125 69.246094 54.492188 C 72.410156 53.40625 74.097656 49.957031 73.011719 46.792969 C 71.921875 43.628906 68.472656 41.945312 65.308594 43.03125 C 62.144531 44.121094 60.457031 47.566406 61.546875 50.730469 Z M 61.546875 50.730469 " fill-opacity="1" fill-rule="nonzero"/><path fill="#000000" d="M 69.523438 50.394531 C 69.378906 50.394531 69.246094 50.292969 69.214844 50.144531 C 68.933594 48.867188 68.367188 47.984375 67.535156 47.53125 C 66.207031 46.808594 64.609375 47.386719 64.589844 47.390625 C 64.425781 47.453125 64.246094 47.367188 64.183594 47.203125 C 64.121094 47.039062 64.207031 46.859375 64.371094 46.796875 C 64.445312 46.769531 66.246094 46.109375 67.832031 46.972656 C 68.835938 47.515625 69.511719 48.539062 69.832031 50.011719 C 69.871094 50.179688 69.761719 50.351562 69.59375 50.386719 C 69.570312 50.394531 69.546875 50.394531 69.523438 50.394531 Z M 69.523438 50.394531 " fill-opacity="1" fill-rule="nonzero"/><path fill="#ffffff" d="M 81.03125 79.332031 L 70.378906 72.15625 L 70.484375 68.144531 L 68.644531 68.144531 C 67.886719 68.144531 67.15625 68.460938 66.621094 69.023438 L 63.28125 72.507812 L 70.949219 84.535156 C 71.753906 85.792969 73.421875 86.039062 74.527344 85.066406 Z M 81.03125 79.332031 " fill-opacity="1" fill-rule="nonzero"/><path fill="#ffffff" d="M 84.371094 68.144531 L 85.753906 68.144531 C 86.710938 68.144531 87.605469 68.644531 88.140625 69.476562 L 90.445312 73.082031 L 89.441406 83.507812 C 89.339844 84.566406 88.164062 85.09375 87.355469 84.445312 L 81.03125 79.332031 L 84.59375 73.097656 Z M 84.371094 68.144531 " fill-opacity="1" fill-rule="nonzero"/><path fill="#ffffff" d="M 82.132812 84.300781 C 82.132812 84.9375 81.640625 85.453125 81.03125 85.453125 C 80.421875 85.453125 79.929688 84.9375 79.929688 84.300781 C 79.929688 83.664062 80.421875 83.148438 81.03125 83.148438 C 81.640625 83.148438 82.132812 83.664062 82.132812 84.300781 Z M 82.132812 84.300781 " fill-opacity="1" fill-rule="nonzero"/><path fill="#ffffff" d="M 82.378906 88.898438 C 82.378906 89.535156 81.882812 90.050781 81.277344 90.050781 C 80.667969 90.050781 80.171875 89.535156 80.171875 88.898438 C 80.171875 88.261719 80.667969 87.746094 81.277344 87.746094 C 81.882812 87.742188 82.378906 88.257812 82.378906 88.898438 Z M 82.378906 88.898438 " fill-opacity="1" fill-rule="nonzero"/><path fill="#ffffff" d="M 248.101562 287.46875 L 233.394531 381.773438 L 223.714844 381.773438 L 235.90625 286.101562 Z M 248.101562 287.46875 " fill-opacity="1" fill-rule="nonzero"/><path fill="#ffffff" d="M 300.941406 286.101562 L 312.1875 381.773438 L 323.410156 381.773438 L 314.441406 286.101562 Z M 300.941406 286.101562 " fill-opacity="1" fill-rule="nonzero"/><path fill="#ffffff" d="M 336.957031 287.46875 L 351.667969 381.773438 L 361.34375 381.773438 L 349.148438 286.101562 Z M 336.957031 287.46875 " fill-opacity="1" fill-rule="nonzero"/><path fill="#ffffff" d="M 248.101562 287.46875 L 233.394531 381.773438 L 223.714844 381.773438 L 235.90625 286.101562 Z M 248.101562 287.46875 " fill-opacity="1" fill-rule="nonzero"/><path fill="#ffffff" d="M 300.941406 286.101562 L 312.1875 381.773438 L 323.410156 381.773438 L 314.441406 286.101562 Z M 300.941406 286.101562 " fill-opacity="1" fill-rule="nonzero"/><path fill="#ffffff" d="M 336.957031 287.46875 L 351.667969 381.773438 L 361.34375 381.773438 L 349.148438 286.101562 Z M 336.957031 287.46875 " fill-opacity="1" fill-rule="nonzero"/><g mask="url(#810e1dac2d)"><g transform="matrix(1, 0, 0, 1, 222, 284)"><g clip-path="url(#07349b4c8f)"><g clip-path="url(#fce3b28c7d)"><path fill="#000000" d="M 26.101562 3.46875 L 11.394531 97.773438 L 1.714844 97.773438 L 13.90625 2.101562 Z M 26.101562 3.46875 " fill-opacity="1" fill-rule="nonzero"/></g><g clip-path="url(#290c13bf99)"><path fill="#000000" d="M 78.941406 2.101562 L 90.1875 97.773438 L 101.410156 97.773438 L 92.441406 2.101562 Z M 78.941406 2.101562 " fill-opacity="1" fill-rule="nonzero"/></g><g clip-path="url(#45d619d1e3)"><path fill="#000000" d="M 114.957031 3.46875 L 129.667969 97.773438 L 139.34375 97.773438 L 127.148438 2.101562 Z M 114.957031 3.46875 " fill-opacity="1" fill-rule="nonzero"/></g></g></g></g><path fill="#ffffff" d="M 229.050781 374.710938 L 235.90625 372.152344 L 254.523438 372.417969 L 258.417969 373.835938 L 252.082031 376.042969 L 231.613281 376.042969 Z M 229.050781 374.710938 " fill-opacity="1" fill-rule="nonzero"/><path fill="#ffffff" d="M 281.136719 350.074219 L 260.78125 358.144531 L 239.582031 367.851562 L 241.09375 371.890625 L 264.191406 359.589844 L 280.839844 350.972656 Z M 281.136719 350.074219 " fill-opacity="1" fill-rule="nonzero"/><path fill="#ffffff" d="M 266.109375 327.742188 L 274.222656 345.074219 L 265.542969 349.8125 L 255.808594 332.875 Z M 266.109375 327.742188 " fill-opacity="1" fill-rule="nonzero"/><path fill="#000000" d="M 272.691406 341.390625 C 272.691406 341.390625 268.175781 348.640625 262.097656 344.410156 L 244.972656 368.375 L 281.136719 350.074219 Z M 272.691406 341.390625 " fill-opacity="1" fill-rule="nonzero"/><g clip-path="url(#ab26ac7f1b)"><g clip-path="url(#30e6ed98a7)"><path fill="#ffffff" d="M 245.449219 358.941406 C 245.449219 358.941406 255.070312 355.820312 259.933594 367.292969 L 242.316406 370.769531 Z M 245.449219 358.941406 " fill-opacity="1" fill-rule="nonzero"/></g></g><path fill="#ffffff" d="M 244.957031 368.375 L 281.121094 350.078125 L 282.722656 353.238281 L 246.558594 371.535156 Z M 244.957031 368.375 " fill-opacity="1" fill-rule="nonzero"/><path fill="#ffffff" d="M 262.355469 351.832031 C 262.238281 351.839844 262.117188 351.820312 262.007812 351.765625 C 259.675781 350.621094 257.808594 350.417969 257.789062 350.414062 C 257.421875 350.375 257.167969 350.054688 257.21875 349.695312 C 257.273438 349.335938 257.625 349.082031 257.984375 349.113281 C 258.070312 349.121094 260.097656 349.339844 262.65625 350.59375 C 262.980469 350.753906 263.101562 351.144531 262.925781 351.46875 C 262.804688 351.683594 262.585938 351.816406 262.355469 351.832031 Z M 262.355469 351.832031 " fill-opacity="1" fill-rule="nonzero"/><path fill="#ffffff" d="M 260.128906 354.792969 C 260.015625 354.800781 259.894531 354.78125 259.785156 354.726562 C 257.453125 353.582031 255.585938 353.375 255.5625 353.375 C 255.195312 353.335938 254.941406 353.015625 254.996094 352.65625 C 255.050781 352.296875 255.398438 352.035156 255.757812 352.074219 C 255.84375 352.082031 257.871094 352.300781 260.429688 353.554688 C 260.757812 353.714844 260.878906 354.105469 260.699219 354.429688 C 260.582031 354.644531 260.359375 354.773438 260.128906 354.792969 Z M 260.128906 354.792969 " fill-opacity="1" fill-rule="nonzero"/><path fill="#ffffff" d="M 257.90625 357.75 C 257.789062 357.757812 257.667969 357.738281 257.558594 357.683594 C 255.230469 356.539062 253.359375 356.335938 253.339844 356.332031 C 252.972656 356.292969 252.71875 355.972656 252.773438 355.613281 C 252.824219 355.253906 253.175781 354.996094 253.535156 355.03125 C 253.621094 355.039062 255.648438 355.257812 258.207031 356.511719 C 258.53125 356.671875 258.652344 357.066406 258.476562 357.386719 C 258.355469 357.601562 258.136719 357.730469 257.90625 357.75 Z M 257.90625 357.75 " fill-opacity="1" fill-rule="nonzero"/><path fill="#ffffff" d="M 254.523438 347.203125 L 254.34375 366.339844 L 244.46875 366.859375 L 243.015625 347.378906 Z M 254.523438 347.203125 " fill-opacity="1" fill-rule="nonzero"/><path fill="#000000" d="M 254.554688 362.355469 C 254.554688 362.355469 247.347656 366.945312 243.699219 360.503906 L 217.890625 374.710938 L 258.414062 373.835938 Z M 254.554688 362.355469 " fill-opacity="1" fill-rule="nonzero"/><g clip-path="url(#0d62fa81cd)"><g clip-path="url(#8184b9c4bd)"><path fill="#ffffff" d="M 222.398438 366.410156 C 222.398438 366.410156 232.425781 367.753906 231.847656 380.199219 L 214.460938 375.722656 Z M 222.398438 366.410156 " fill-opacity="1" fill-rule="nonzero"/></g></g><path fill="#ffffff" d="M 217.902344 374.71875 L 258.429688 373.84375 L 258.503906 377.386719 L 217.980469 378.261719 Z M 217.902344 374.71875 " fill-opacity="1" fill-rule="nonzero"/><path fill="#ffffff" d="M 240.722656 367.304688 C 240.613281 367.265625 240.511719 367.191406 240.4375 367.097656 C 238.828125 365.058594 237.230469 364.0625 237.214844 364.054688 C 236.902344 363.859375 236.8125 363.460938 237.015625 363.160156 C 237.21875 362.859375 237.644531 362.78125 237.953125 362.964844 C 238.027344 363.011719 239.761719 364.082031 241.527344 366.320312 C 241.75 366.605469 241.691406 367.011719 241.390625 367.226562 C 241.191406 367.367188 240.933594 367.390625 240.722656 367.304688 Z M 240.722656 367.304688 " fill-opacity="1" fill-rule="nonzero"/><path fill="#ffffff" d="M 237.433594 369.011719 C 237.324219 368.972656 237.226562 368.898438 237.148438 368.804688 C 235.542969 366.765625 233.945312 365.769531 233.929688 365.761719 C 233.617188 365.566406 233.523438 365.167969 233.726562 364.867188 C 233.929688 364.566406 234.359375 364.484375 234.667969 364.671875 C 234.742188 364.71875 236.476562 365.789062 238.238281 368.027344 C 238.464844 368.3125 238.402344 368.71875 238.101562 368.933594 C 237.902344 369.074219 237.648438 369.097656 237.433594 369.011719 Z M 237.433594 369.011719 " fill-opacity="1" fill-rule="nonzero"/><path fill="#ffffff" d="M 234.148438 370.71875 C 234.039062 370.679688 233.941406 370.605469 233.863281 370.511719 C 232.257812 368.472656 230.660156 367.480469 230.644531 367.46875 C 230.328125 367.273438 230.238281 366.875 230.441406 366.574219 C 230.644531 366.273438 231.070312 366.1875 231.378906 366.378906 C 231.453125 366.421875 233.1875 367.496094 234.953125 369.730469 C 235.179688 370.019531 235.117188 370.421875 234.816406 370.636719 C 234.617188 370.78125 234.363281 370.804688 234.148438 370.71875 Z M 234.148438 370.71875 " fill-opacity="1" fill-rule="nonzero"/><path fill="#ffad65" d="M 280.183594 234.019531 C 280.171875 234.667969 280.160156 235.316406 280.148438 235.96875 C 279.914062 246.160156 278.703125 256.246094 277.878906 266.417969 C 276.964844 272.304688 274.53125 274.136719 272.605469 274.632812 C 272.5 274.816406 272.382812 274.992188 272.261719 275.164062 L 268.035156 281.136719 C 267.703125 281.753906 266.90625 282.023438 266.199219 281.730469 C 265.695312 281.527344 265.121094 281.027344 265.695312 279.652344 L 265.109375 281.015625 C 264.765625 281.675781 263.910156 281.945312 263.167969 281.625 C 262.5 281.355469 262.242188 280.519531 262.523438 279.621094 L 261.972656 280.585938 C 261.59375 281.296875 260.632812 281.570312 259.832031 281.136719 C 259.152344 280.757812 258.917969 279.945312 259.199219 279.285156 L 259.808594 277.890625 L 259.867188 277.757812 L 258.738281 279.210938 C 258.292969 279.945312 257.246094 280.183594 256.425781 279.683594 C 255.71875 279.273438 255.484375 278.417969 255.792969 277.714844 L 259.550781 269.101562 L 257.578125 268.191406 C 256.847656 267.867188 256.4375 267.132812 256.566406 266.417969 C 256.695312 265.671875 257.378906 265.128906 258.1875 265.109375 L 269.421875 264.902344 C 266.566406 243.757812 264.121094 222.652344 262.101562 201.433594 C 262.054688 196.605469 266.402344 192.625 271.558594 192.625 C 271.734375 192.625 271.910156 192.625 272.101562 192.632812 C 276.929688 192.894531 276.945312 197.925781 277.914062 202.308594 C 280.152344 212.449219 280.289062 223.035156 280.183594 234.019531 Z M 280.183594 234.019531 " fill-opacity="1" fill-rule="nonzero"/><path fill="#000000" d="M 259.65625 278.378906 C 259.632812 278.378906 259.609375 278.371094 259.585938 278.359375 C 259.5 278.320312 259.464844 278.21875 259.503906 278.136719 L 261.859375 273.179688 C 261.902344 273.097656 262 273.0625 262.085938 273.101562 C 262.167969 273.140625 262.203125 273.242188 262.164062 273.328125 L 259.808594 278.28125 C 259.78125 278.34375 259.722656 278.378906 259.65625 278.378906 Z M 259.65625 278.378906 " fill-opacity="1" fill-rule="nonzero"/><path fill="#000000" d="M 262.628906 279.582031 C 262.601562 279.582031 262.574219 279.578125 262.546875 279.5625 C 262.464844 279.519531 262.433594 279.417969 262.480469 279.335938 L 264.9375 274.765625 C 264.980469 274.683594 265.085938 274.652344 265.167969 274.695312 C 265.25 274.742188 265.28125 274.84375 265.234375 274.925781 L 262.773438 279.496094 C 262.746094 279.550781 262.6875 279.582031 262.628906 279.582031 Z M 262.628906 279.582031 " fill-opacity="1" fill-rule="nonzero"/><path fill="#000000" d="M 265.472656 280.21875 C 265.445312 280.21875 265.417969 280.210938 265.390625 280.195312 C 265.308594 280.148438 265.28125 280.046875 265.328125 279.964844 L 267.476562 276.164062 C 267.519531 276.082031 267.625 276.054688 267.703125 276.101562 C 267.785156 276.144531 267.8125 276.246094 267.769531 276.328125 L 265.621094 280.132812 C 265.589844 280.1875 265.53125 280.21875 265.472656 280.21875 Z M 265.472656 280.21875 " fill-opacity="1" fill-rule="nonzero"/><path fill="#f89a00" d="M 322.230469 243.910156 L 322.230469 264.894531 C 322.230469 274.421875 314.320312 282.039062 304.796875 281.683594 L 269.257812 280.386719 L 264.851562 314.246094 L 272.160156 336.449219 L 261.5 339.96875 L 259.511719 355.265625 L 239.601562 353.753906 L 239.246094 310.476562 L 226.96875 285.445312 C 223.191406 277.742188 226.652344 268.597656 234.738281 264.90625 L 243.140625 261.074219 C 246.636719 256.644531 251.773438 253.597656 257.613281 252.796875 Z M 322.230469 243.910156 " fill-opacity="1" fill-rule="nonzero"/><path fill="#3f2952" d="M 275.273438 177.152344 C 275.273438 177.152344 262.550781 184.730469 260.078125 205.257812 L 278.242188 215.234375 Z M 275.273438 177.152344 " fill-opacity="1" fill-rule="nonzero"/><path fill="#3f2952" d="M 299.574219 170.742188 C 305.835938 171.277344 312.011719 172.652344 317.847656 174.984375 C 320.105469 175.886719 322.632812 176.992188 324.011719 179.109375 C 325.863281 181.945312 324.421875 185.152344 324.308594 188.242188 C 324.308594 188.242188 322.578125 251.511719 322.578125 251.511719 L 270.695312 251.511719 L 268.824219 190.324219 C 268.375 183.800781 272.234375 177.804688 278.207031 175.703125 C 284.894531 173.34375 293.058594 170.703125 296.617188 170.492188 Z M 299.574219 170.742188 " fill-opacity="1" fill-rule="nonzero"/><path fill="#000000" d="M 269.851562 211.476562 C 269.691406 211.476562 269.5625 211.351562 269.558594 211.191406 L 269.085938 192.625 C 269.082031 192.460938 269.210938 192.324219 269.375 192.320312 C 269.527344 192.332031 269.671875 192.445312 269.675781 192.609375 L 270.144531 211.175781 C 270.148438 211.339844 270.019531 211.472656 269.859375 211.476562 C 269.855469 211.476562 269.851562 211.476562 269.851562 211.476562 Z M 269.851562 211.476562 " fill-opacity="1" fill-rule="nonzero"/><path fill="#ffad65" d="M 281.214844 174.660156 C 281.214844 174.660156 290.617188 170.980469 296.617188 170.492188 C 296.617188 170.492188 304.816406 170.839844 310.453125 172.574219 C 310.453125 172.574219 307.328125 179.242188 292.933594 180.335938 C 278.542969 181.429688 281.214844 174.660156 281.214844 174.660156 Z M 281.214844 174.660156 " fill-opacity="1" fill-rule="nonzero"/><path fill="#3f2952" d="M 321.28125 176.605469 C 321.28125 176.605469 335.453125 184.238281 337.769531 213.777344 L 316.96875 220.378906 L 309.445312 196.804688 Z M 321.28125 176.605469 " fill-opacity="1" fill-rule="nonzero"/><path fill="#000000" d="M 238.921875 310.121094 C 238.917969 310.121094 238.917969 310.121094 238.917969 310.121094 C 238.738281 310.117188 238.597656 309.972656 238.601562 309.796875 C 238.601562 309.625 238.78125 292.164062 238.585938 279.421875 C 238.390625 266.5625 242.695312 261.105469 242.875 260.882812 C 242.984375 260.742188 243.1875 260.722656 243.324219 260.835938 C 243.460938 260.945312 243.484375 261.144531 243.375 261.28125 C 243.328125 261.335938 239.035156 266.808594 239.226562 279.410156 C 239.421875 292.160156 239.242188 309.628906 239.238281 309.804688 C 239.238281 309.980469 239.09375 310.121094 238.921875 310.121094 Z M 238.921875 310.121094 " fill-opacity="1" fill-rule="nonzero"/><path fill="#000000" d="M 261.507812 340.28125 C 261.492188 340.28125 261.480469 340.28125 261.464844 340.28125 C 261.292969 340.257812 261.167969 340.097656 261.191406 339.921875 L 264.457031 314.808594 C 264.480469 314.632812 264.632812 314.511719 264.816406 314.53125 C 264.992188 314.554688 265.117188 314.714844 265.09375 314.890625 L 261.824219 340.003906 C 261.804688 340.167969 261.667969 340.28125 261.507812 340.28125 Z M 261.507812 340.28125 " fill-opacity="1" fill-rule="nonzero"/><path fill="#000000" d="M 317.542969 220.515625 C 317.382812 220.515625 317.246094 220.394531 317.226562 220.230469 L 314.476562 196.230469 C 314.457031 196.054688 314.582031 195.894531 314.757812 195.875 C 314.929688 195.855469 315.09375 195.980469 315.113281 196.15625 L 317.863281 220.160156 C 317.882812 220.332031 317.753906 220.492188 317.582031 220.511719 C 317.566406 220.515625 317.554688 220.515625 317.542969 220.515625 Z M 317.542969 220.515625 " fill-opacity="1" fill-rule="nonzero"/><path fill="#ffffff" d="M 217.890625 374.710938 L 224.90625 373.453125 L 231.226562 374.425781 L 227.375 375.769531 L 220.265625 375.769531 Z M 217.890625 374.710938 " fill-opacity="1" fill-rule="nonzero"/><path fill="#ffffff" d="M 177.207031 233.632812 L 352.984375 233.632812 L 352.984375 240.839844 L 177.207031 240.839844 Z M 177.207031 233.632812 " fill-opacity="1" fill-rule="nonzero"/><path fill="#000000" d="M 177.207031 233.632812 L 352.984375 233.632812 L 352.984375 240.839844 L 177.207031 240.839844 Z M 177.207031 233.632812 " fill-opacity="0.27" fill-rule="nonzero"/><path fill="#ffad65" d="M 290.5625 233.886719 L 332.089844 233.695312 C 335.382812 233.652344 338.710938 229.464844 338.621094 226.175781 C 338.515625 222.515625 334.699219 218.675781 331.109375 219.402344 L 290.492188 227.519531 Z M 290.5625 233.886719 " fill-opacity="1" fill-rule="nonzero"/><path fill="#ffad65" d="M 292.761719 227.316406 C 292.761719 227.316406 274.539062 222.960938 274.539062 233.886719 L 290.5625 233.886719 Z M 292.761719 227.316406 " fill-opacity="1" fill-rule="nonzero"/><path fill="#000000" d="M 317.582031 141.316406 C 317.582031 141.316406 341.167969 135.335938 330.457031 160.429688 C 328.597656 164.785156 327.503906 168.328125 326.949219 171.214844 C 325.480469 178.839844 314.128906 178.171875 313.714844 170.417969 C 313.515625 166.699219 314.5625 161.949219 317.558594 155.878906 C 317.558594 155.878906 322.390625 147.035156 316.789062 144.992188 Z M 317.582031 141.316406 " fill-opacity="1" fill-rule="nonzero"/><path fill="#f89a00" d="M 319.5625 142.769531 C 319.5625 143.058594 319.53125 143.347656 319.476562 143.632812 C 319.417969 143.917969 319.335938 144.195312 319.222656 144.464844 C 319.113281 144.734375 318.976562 144.992188 318.8125 145.234375 C 318.652344 145.472656 318.46875 145.699219 318.261719 145.902344 C 318.054688 146.109375 317.832031 146.292969 317.589844 146.457031 C 317.347656 146.617188 317.09375 146.753906 316.824219 146.867188 C 316.554688 146.976562 316.277344 147.0625 315.992188 147.117188 C 315.707031 147.175781 315.417969 147.203125 315.125 147.203125 C 314.835938 147.203125 314.546875 147.175781 314.261719 147.117188 C 313.972656 147.0625 313.695312 146.976562 313.429688 146.867188 C 313.160156 146.753906 312.902344 146.617188 312.660156 146.457031 C 312.417969 146.292969 312.195312 146.109375 311.988281 145.902344 C 311.78125 145.699219 311.597656 145.472656 311.4375 145.230469 C 311.273438 144.992188 311.136719 144.734375 311.027344 144.464844 C 310.914062 144.195312 310.832031 143.917969 310.773438 143.632812 C 310.71875 143.347656 310.691406 143.058594 310.691406 142.769531 C 310.691406 142.476562 310.71875 142.191406 310.773438 141.902344 C 310.832031 141.617188 310.914062 141.339844 311.027344 141.074219 C 311.136719 140.804688 311.273438 140.546875 311.4375 140.304688 C 311.597656 140.0625 311.78125 139.839844 311.988281 139.632812 C 312.195312 139.429688 312.417969 139.246094 312.660156 139.082031 C 312.902344 138.921875 313.160156 138.785156 313.429688 138.671875 C 313.695312 138.5625 313.972656 138.476562 314.261719 138.421875 C 314.546875 138.363281 314.835938 138.335938 315.125 138.335938 C 315.417969 138.335938 315.707031 138.363281 315.992188 138.421875 C 316.277344 138.476562 316.554688 138.5625 316.824219 138.671875 C 317.09375 138.785156 317.347656 138.921875 317.589844 139.082031 C 317.832031 139.246094 318.054688 139.429688 318.261719 139.632812 C 318.46875 139.839844 318.652344 140.0625 318.8125 140.304688 C 318.976562 140.546875 319.113281 140.804688 319.222656 141.074219 C 319.335938 141.339844 319.417969 141.617188 319.476562 141.902344 C 319.53125 142.191406 319.5625 142.476562 319.5625 142.769531 Z M 319.5625 142.769531 " fill-opacity="1" fill-rule="nonzero"/><path fill="#000000" d="M 301.917969 125.378906 C 301.917969 125.378906 290.980469 119.421875 284.234375 123.230469 C 274.359375 128.804688 283.40625 136.570312 283.40625 136.570312 Z M 301.917969 125.378906 " fill-opacity="1" fill-rule="nonzero"/><path fill="#000000" d="M 302.574219 125.539062 C 303.152344 125.683594 303.726562 125.859375 304.289062 126.058594 C 304.851562 126.257812 305.402344 126.484375 305.941406 126.738281 C 306.484375 126.992188 307.007812 127.265625 307.523438 127.566406 C 308.035156 127.871094 308.535156 128.195312 309.015625 128.539062 C 309.496094 128.886719 309.960938 129.257812 310.402344 129.648438 C 310.847656 130.039062 311.273438 130.449219 311.675781 130.875 C 312.078125 131.304688 312.460938 131.753906 312.820312 132.21875 C 313.175781 132.679688 313.511719 133.160156 313.820312 133.65625 C 314.132812 134.148438 314.417969 134.65625 314.675781 135.179688 C 314.933594 135.699219 315.164062 136.230469 315.371094 136.769531 C 315.574219 137.3125 315.753906 137.859375 315.902344 138.417969 C 316.050781 138.972656 316.171875 139.535156 316.261719 140.101562 C 316.355469 140.667969 316.417969 141.238281 316.453125 141.808594 C 316.484375 142.378906 316.488281 142.949219 316.464844 143.523438 C 316.441406 144.09375 316.386719 144.660156 316.304688 145.222656 C 316.21875 145.789062 316.109375 146.347656 315.96875 146.898438 C 315.828125 147.449219 315.660156 147.996094 315.460938 148.53125 C 315.265625 149.066406 315.042969 149.589844 314.789062 150.101562 C 314.539062 150.617188 314.261719 151.117188 313.960938 151.601562 C 313.65625 152.085938 313.332031 152.558594 312.980469 153.011719 C 312.628906 153.464844 312.253906 153.902344 311.855469 154.320312 C 311.460938 154.738281 311.042969 155.136719 310.605469 155.511719 C 310.164062 155.890625 309.707031 156.246094 309.230469 156.578125 C 308.753906 156.914062 308.261719 157.222656 307.753906 157.511719 C 307.246094 157.796875 306.722656 158.058594 306.1875 158.296875 C 305.648438 158.53125 305.101562 158.742188 304.542969 158.925781 C 303.980469 159.113281 303.414062 159.269531 302.835938 159.398438 C 302.257812 159.53125 301.675781 159.632812 301.085938 159.707031 C 300.5 159.785156 299.90625 159.832031 299.3125 159.851562 C 298.714844 159.871094 298.121094 159.863281 297.527344 159.824219 C 296.929688 159.789062 296.335938 159.726562 295.746094 159.632812 C 295.15625 159.539062 294.574219 159.421875 293.992188 159.273438 C 293.414062 159.125 292.84375 158.953125 292.28125 158.75 C 291.71875 158.550781 291.167969 158.324219 290.625 158.074219 C 290.085938 157.820312 289.558594 157.542969 289.046875 157.242188 C 288.53125 156.941406 288.035156 156.617188 287.554688 156.269531 C 287.070312 155.921875 286.609375 155.554688 286.164062 155.164062 C 285.71875 154.773438 285.296875 154.363281 284.890625 153.933594 C 284.488281 153.503906 284.109375 153.058594 283.75 152.59375 C 283.390625 152.128906 283.054688 151.648438 282.746094 151.15625 C 282.4375 150.660156 282.152344 150.152344 281.894531 149.632812 C 281.632812 149.113281 281.402344 148.582031 281.199219 148.039062 C 280.992188 147.5 280.816406 146.949219 280.667969 146.394531 C 280.515625 145.835938 280.398438 145.277344 280.304688 144.710938 C 280.214844 144.140625 280.152344 143.574219 280.117188 143.003906 C 280.082031 142.429688 280.078125 141.859375 280.105469 141.289062 C 280.128906 140.71875 280.183594 140.152344 280.265625 139.585938 C 280.347656 139.023438 280.460938 138.464844 280.601562 137.910156 C 280.742188 137.359375 280.910156 136.816406 281.105469 136.28125 C 281.304688 135.746094 281.527344 135.222656 281.777344 134.707031 C 282.027344 134.195312 282.304688 133.695312 282.609375 133.210938 C 282.910156 132.722656 283.238281 132.253906 283.589844 131.800781 C 283.941406 131.34375 284.316406 130.910156 284.710938 130.492188 C 285.109375 130.074219 285.527344 129.675781 285.964844 129.296875 C 286.402344 128.921875 286.859375 128.566406 287.335938 128.230469 C 287.8125 127.898438 288.304688 127.585938 288.8125 127.300781 C 289.324219 127.015625 289.847656 126.753906 290.382812 126.515625 C 290.917969 126.277344 291.46875 126.070312 292.027344 125.882812 C 292.585938 125.699219 293.15625 125.542969 293.730469 125.410156 C 294.308594 125.28125 294.890625 125.175781 295.480469 125.101562 C 296.070312 125.027344 296.660156 124.980469 297.257812 124.960938 C 297.851562 124.941406 298.445312 124.949219 299.042969 124.984375 C 299.636719 125.019531 300.230469 125.085938 300.820312 125.179688 C 301.410156 125.269531 301.996094 125.390625 302.574219 125.539062 Z M 302.574219 125.539062 " fill-opacity="1" fill-rule="nonzero"/><path fill="#ffad65" d="M 288.910156 158.851562 L 288.621094 176.847656 L 301.976562 176.574219 L 300.136719 149.277344 Z M 288.910156 158.851562 " fill-opacity="1" fill-rule="nonzero"/><path fill="#000000" d="M 288.757812 168.339844 L 298.75 157.65625 L 288.910156 158.851562 Z M 288.757812 168.339844 " fill-opacity="1" fill-rule="nonzero"/><path fill="#ffad65" d="M 285.265625 128.601562 C 283.957031 129.253906 282.953125 130.378906 282.320312 131.699219 C 280.34375 135.835938 276.613281 143.171875 276.984375 148.242188 C 277.460938 154.796875 281.28125 160.324219 289.59375 160.832031 C 289.59375 160.832031 299.339844 162.289062 304.355469 150.753906 C 312.382812 132.289062 297.300781 122.582031 285.265625 128.601562 Z M 285.265625 128.601562 " fill-opacity="1" fill-rule="nonzero"/><path fill="#000000" d="M 283.019531 147.753906 C 282.980469 147.753906 282.941406 147.746094 282.902344 147.730469 L 281.824219 147.234375 C 281.445312 147.019531 281.304688 146.566406 281.492188 146.199219 L 282.746094 144.363281 C 282.835938 144.234375 283.011719 144.199219 283.140625 144.289062 C 283.269531 144.378906 283.304688 144.554688 283.214844 144.683594 L 281.976562 146.484375 C 281.945312 146.550781 281.984375 146.675781 282.082031 146.730469 L 283.136719 147.214844 C 283.28125 147.28125 283.34375 147.449219 283.277344 147.589844 C 283.230469 147.695312 283.128906 147.753906 283.019531 147.753906 Z M 283.019531 147.753906 " fill-opacity="1" fill-rule="nonzero"/><path fill="#000000" d="M 290.726562 143.832031 C 290.726562 143.984375 290.699219 144.128906 290.640625 144.269531 C 290.582031 144.410156 290.496094 144.535156 290.390625 144.644531 C 290.28125 144.753906 290.15625 144.835938 290.015625 144.894531 C 289.875 144.953125 289.726562 144.980469 289.574219 144.980469 C 289.421875 144.980469 289.277344 144.953125 289.132812 144.894531 C 288.992188 144.835938 288.871094 144.753906 288.761719 144.644531 C 288.652344 144.535156 288.570312 144.410156 288.511719 144.269531 C 288.453125 144.128906 288.421875 143.984375 288.425781 143.832031 C 288.421875 143.679688 288.453125 143.53125 288.511719 143.390625 C 288.570312 143.25 288.652344 143.125 288.761719 143.015625 C 288.871094 142.910156 288.992188 142.824219 289.132812 142.765625 C 289.277344 142.707031 289.421875 142.679688 289.574219 142.679688 C 289.726562 142.679688 289.875 142.707031 290.015625 142.765625 C 290.15625 142.824219 290.28125 142.910156 290.390625 143.015625 C 290.496094 143.125 290.582031 143.25 290.640625 143.390625 C 290.699219 143.53125 290.726562 143.679688 290.726562 143.832031 Z M 290.726562 143.832031 " fill-opacity="1" fill-rule="nonzero"/><path fill="#000000" d="M 281.761719 141.742188 C 281.636719 142.316406 281.070312 142.683594 280.492188 142.558594 C 279.917969 142.4375 279.550781 141.867188 279.675781 141.292969 C 279.796875 140.714844 280.367188 140.347656 280.941406 140.472656 C 281.519531 140.597656 281.886719 141.164062 281.761719 141.742188 Z M 281.761719 141.742188 " fill-opacity="1" fill-rule="nonzero"/><path fill="#000000" d="M 285.070312 151.335938 C 282.886719 151.335938 281.253906 150.179688 281.160156 150.109375 C 281.035156 150.015625 281.007812 149.839844 281.097656 149.714844 C 281.191406 149.585938 281.367188 149.558594 281.492188 149.652344 C 281.523438 149.671875 284.496094 151.769531 287.628906 150.132812 C 287.769531 150.0625 287.941406 150.113281 288.011719 150.253906 C 288.085938 150.394531 288.03125 150.5625 287.894531 150.636719 C 286.90625 151.152344 285.941406 151.335938 285.070312 151.335938 Z M 285.070312 151.335938 " fill-opacity="1" fill-rule="nonzero"/><path fill="#000000" d="M 283.617188 135.691406 C 283.617188 135.691406 283.765625 137.046875 282.132812 136.964844 C 280.894531 136.902344 280.113281 136.84375 279.378906 136.992188 C 278.964844 137.074219 278.550781 136.84375 278.398438 136.449219 C 278.273438 136.132812 278.34375 135.769531 278.589844 135.53125 C 279.082031 135.046875 280.0625 134.339844 281.574219 134.394531 C 283.511719 134.460938 283.617188 135.691406 283.617188 135.691406 Z M 283.617188 135.691406 " fill-opacity="1" fill-rule="nonzero"/><path fill="#000000" d="M 289.125 136.933594 C 289.125 136.933594 288.367188 138.105469 290.351562 138.765625 C 291.859375 139.265625 293.578125 140.246094 294.390625 140.707031 C 294.855469 140.96875 295.445312 140.945312 295.796875 140.65625 C 296.082031 140.421875 296.148438 140.058594 295.960938 139.730469 C 295.582031 139.066406 293.949219 137.300781 292.125 136.667969 C 289.78125 135.859375 289.125 136.933594 289.125 136.933594 Z M 289.125 136.933594 " fill-opacity="1" fill-rule="nonzero"/><path fill="#000000" d="M 289.90625 125.878906 C 289.90625 125.878906 285.898438 135.480469 310.347656 139.34375 C 310.347656 139.34375 314.769531 125.667969 289.90625 125.878906 Z M 289.90625 125.878906 " fill-opacity="1" fill-rule="nonzero"/><path fill="#000000" d="M 303.292969 135.683594 L 301.507812 150.53125 L 315.011719 143.300781 Z M 303.292969 135.683594 " fill-opacity="1" fill-rule="nonzero"/><path fill="#ffad65" d="M 309.980469 154.640625 C 308.433594 157.199219 305.105469 158.019531 302.546875 156.476562 C 299.988281 154.929688 299.164062 151.605469 300.710938 149.046875 C 302.257812 146.488281 305.585938 145.664062 308.144531 147.210938 C 310.703125 148.753906 311.527344 152.082031 309.980469 154.640625 Z M 309.980469 154.640625 " fill-opacity="1" fill-rule="nonzero"/><path fill="#000000" d="M 303.136719 152.851562 C 303.097656 152.851562 303.054688 152.84375 303.019531 152.824219 C 302.875 152.761719 302.8125 152.59375 302.878906 152.449219 C 303.4375 151.226562 304.21875 150.460938 305.199219 150.171875 C 306.742188 149.71875 308.195312 150.632812 308.253906 150.671875 C 308.386719 150.757812 308.421875 150.933594 308.339844 151.0625 C 308.253906 151.195312 308.078125 151.234375 307.949219 151.148438 C 307.933594 151.140625 306.640625 150.335938 305.351562 150.71875 C 304.539062 150.960938 303.878906 151.621094 303.394531 152.6875 C 303.34375 152.789062 303.242188 152.851562 303.136719 152.851562 Z M 303.136719 152.851562 " fill-opacity="1" fill-rule="nonzero"/><path fill="#000000" d="M 186.589844 240.839844 L 195.949219 240.839844 L 195.949219 381.773438 L 186.589844 381.773438 Z M 186.589844 240.839844 " fill-opacity="1" fill-rule="nonzero"/><path fill="#000000" d="M 331.300781 240.839844 L 340.660156 240.839844 L 340.660156 381.773438 L 331.300781 381.773438 Z M 331.300781 240.839844 " fill-opacity="1" fill-rule="nonzero"/><path fill="#000000" d="M 148.027344 64.214844 C 148.253906 63.511719 148.476562 62.839844 148.683594 62.195312 C 148.890625 61.546875 149.074219 60.953125 149.234375 60.402344 C 149.394531 59.851562 149.523438 59.367188 149.617188 58.945312 C 149.710938 58.523438 149.761719 58.191406 149.773438 57.941406 C 149.835938 57.699219 149.941406 57.511719 150.097656 57.367188 C 150.253906 57.226562 150.433594 57.152344 150.632812 57.152344 C 150.757812 57.152344 150.859375 57.183594 150.945312 57.238281 C 151.035156 57.292969 151.101562 57.367188 151.15625 57.457031 C 151.210938 57.550781 151.25 57.652344 151.273438 57.765625 C 151.300781 57.882812 151.3125 57.996094 151.3125 58.113281 C 151.3125 58.199219 151.308594 58.277344 151.296875 58.351562 C 151.289062 58.421875 151.273438 58.488281 151.257812 58.554688 C 151.140625 59.023438 151.003906 59.503906 150.839844 60.003906 C 150.675781 60.503906 150.511719 61.007812 150.339844 61.515625 C 150.167969 62.027344 150 62.539062 149.832031 63.054688 C 149.664062 63.566406 149.515625 64.070312 149.382812 64.5625 L 149.246094 65.082031 C 149.175781 65.34375 149.113281 65.597656 149.0625 65.835938 C 149.011719 66.074219 148.988281 66.265625 148.988281 66.414062 C 148.988281 66.496094 149.003906 66.5625 149.035156 66.609375 C 149.066406 66.65625 149.121094 66.679688 149.210938 66.679688 C 149.417969 66.679688 149.664062 66.644531 149.941406 66.578125 C 150.222656 66.507812 150.511719 66.425781 150.8125 66.324219 C 151.109375 66.226562 151.410156 66.117188 151.707031 66 C 152.003906 65.878906 152.277344 65.765625 152.527344 65.660156 C 152.660156 65.605469 152.773438 65.554688 152.867188 65.515625 C 152.960938 65.472656 153.078125 65.425781 153.214844 65.367188 C 153.355469 65.308594 153.542969 65.230469 153.777344 65.132812 C 154.011719 65.039062 154.332031 64.902344 154.746094 64.730469 C 154.816406 64.703125 154.878906 64.683594 154.933594 64.664062 C 154.984375 64.644531 155.035156 64.636719 155.082031 64.636719 C 155.160156 64.636719 155.230469 64.652344 155.289062 64.683594 C 155.347656 64.714844 155.394531 64.753906 155.425781 64.804688 C 155.460938 64.855469 155.484375 64.914062 155.5 64.980469 C 155.515625 65.046875 155.523438 65.113281 155.523438 65.179688 C 155.523438 65.292969 155.511719 65.386719 155.496094 65.472656 C 155.476562 65.554688 155.457031 65.625 155.4375 65.683594 C 155.375 65.777344 155.296875 65.867188 155.199219 65.945312 C 155.105469 66.023438 155.003906 66.09375 154.894531 66.152344 C 154.789062 66.210938 154.683594 66.261719 154.582031 66.300781 C 154.480469 66.339844 154.398438 66.371094 154.332031 66.390625 C 154.25 66.421875 154.140625 66.464844 154.007812 66.511719 C 153.871094 66.5625 153.726562 66.621094 153.570312 66.679688 C 153.410156 66.742188 153.25 66.804688 153.082031 66.867188 C 152.914062 66.929688 152.753906 66.992188 152.609375 67.046875 C 152.460938 67.101562 152.328125 67.152344 152.214844 67.195312 C 152.101562 67.238281 152.019531 67.269531 151.976562 67.28125 C 151.757812 67.363281 151.511719 67.457031 151.246094 67.558594 C 150.980469 67.660156 150.714844 67.753906 150.449219 67.847656 C 150.183594 67.9375 149.933594 68.015625 149.699219 68.082031 C 149.460938 68.144531 149.265625 68.175781 149.105469 68.175781 C 148.914062 68.175781 148.761719 68.160156 148.652344 68.128906 C 148.542969 68.097656 148.445312 68.058594 148.359375 68.003906 C 148.273438 67.949219 148.183594 67.886719 148.09375 67.808594 C 148.007812 67.734375 147.886719 67.648438 147.742188 67.558594 C 147.609375 67.476562 147.515625 67.363281 147.460938 67.222656 C 147.402344 67.078125 147.375 66.925781 147.375 66.765625 C 147.375 66.683594 147.382812 66.589844 147.394531 66.480469 C 147.40625 66.375 147.425781 66.261719 147.445312 66.144531 C 147.464844 66.027344 147.488281 65.914062 147.511719 65.804688 C 147.539062 65.691406 147.566406 65.59375 147.597656 65.507812 Z M 148.027344 64.214844 " fill-opacity="1" fill-rule="nonzero"/><path fill="#000000" d="M 156.347656 65.203125 C 156.347656 64.984375 156.402344 64.800781 156.523438 64.648438 C 156.636719 64.496094 156.792969 64.394531 156.988281 64.34375 C 157.042969 64.230469 157.128906 64.078125 157.246094 63.890625 C 157.363281 63.699219 157.507812 63.492188 157.679688 63.269531 C 157.855469 63.042969 158.050781 62.820312 158.273438 62.59375 C 158.492188 62.367188 158.738281 62.160156 159.003906 61.976562 C 159.269531 61.792969 159.558594 61.640625 159.867188 61.523438 C 160.171875 61.40625 160.5 61.347656 160.84375 61.347656 C 161.140625 61.347656 161.398438 61.382812 161.617188 61.453125 C 161.832031 61.523438 162.015625 61.625 162.15625 61.75 C 162.300781 61.878906 162.40625 62.03125 162.476562 62.203125 C 162.550781 62.378906 162.585938 62.570312 162.585938 62.773438 C 162.585938 62.945312 162.5625 63.109375 162.515625 63.269531 C 162.445312 63.554688 162.3125 63.800781 162.117188 64.015625 C 161.925781 64.230469 161.699219 64.414062 161.4375 64.574219 C 161.175781 64.734375 160.890625 64.867188 160.582031 64.976562 C 160.273438 65.082031 159.96875 65.171875 159.660156 65.242188 C 159.351562 65.3125 159.054688 65.367188 158.769531 65.40625 C 158.484375 65.445312 158.242188 65.472656 158.03125 65.492188 C 157.984375 65.585938 157.949219 65.699219 157.914062 65.839844 C 157.882812 65.980469 157.867188 66.117188 157.867188 66.25 C 157.867188 66.542969 157.980469 66.769531 158.214844 66.933594 C 158.449219 67.097656 158.773438 67.179688 159.183594 67.179688 C 159.421875 67.179688 159.652344 67.152344 159.871094 67.097656 C 160.089844 67.042969 160.296875 66.976562 160.492188 66.890625 C 160.6875 66.808594 160.871094 66.714844 161.042969 66.617188 C 161.214844 66.519531 161.375 66.421875 161.515625 66.324219 C 161.699219 66.203125 161.875 66.097656 162.039062 66.015625 C 162.203125 65.929688 162.351562 65.890625 162.476562 65.890625 C 162.605469 65.890625 162.6875 65.921875 162.722656 65.984375 C 162.757812 66.046875 162.773438 66.117188 162.773438 66.1875 C 162.773438 66.226562 162.773438 66.265625 162.773438 66.304688 C 162.769531 66.34375 162.765625 66.375 162.757812 66.402344 C 162.734375 66.535156 162.683594 66.664062 162.605469 66.796875 C 162.53125 66.929688 162.433594 67.042969 162.316406 67.140625 C 161.789062 67.558594 161.246094 67.855469 160.691406 68.03125 C 160.132812 68.210938 159.539062 68.296875 158.910156 68.296875 C 158.785156 68.296875 158.644531 68.289062 158.476562 68.273438 C 158.3125 68.261719 158.140625 68.230469 157.964844 68.183594 C 157.785156 68.136719 157.609375 68.074219 157.4375 67.984375 C 157.265625 67.898438 157.109375 67.785156 156.976562 67.644531 C 156.839844 67.5 156.730469 67.324219 156.648438 67.117188 C 156.5625 66.910156 156.523438 66.65625 156.523438 66.363281 C 156.523438 66.125 156.554688 65.859375 156.621094 65.5625 C 156.554688 65.554688 156.492188 65.519531 156.433594 65.460938 C 156.375 65.402344 156.347656 65.316406 156.347656 65.203125 Z M 161.121094 63.09375 C 161.128906 63.066406 161.136719 63.042969 161.136719 63.023438 C 161.136719 63.003906 161.136719 62.980469 161.136719 62.953125 C 161.136719 62.816406 161.085938 62.714844 160.984375 62.648438 C 160.882812 62.578125 160.757812 62.542969 160.617188 62.542969 C 160.394531 62.542969 160.171875 62.601562 159.957031 62.71875 C 159.742188 62.835938 159.539062 62.980469 159.347656 63.15625 C 159.15625 63.332031 158.988281 63.519531 158.839844 63.722656 C 158.695312 63.921875 158.578125 64.105469 158.5 64.265625 C 158.863281 64.238281 159.199219 64.1875 159.503906 64.117188 C 159.808594 64.050781 160.074219 63.964844 160.300781 63.859375 C 160.527344 63.753906 160.710938 63.640625 160.851562 63.507812 C 160.988281 63.378906 161.078125 63.242188 161.121094 63.09375 Z M 161.121094 63.09375 " fill-opacity="1" fill-rule="nonzero"/><path fill="#000000" d="M 164.351562 66.796875 C 164.394531 66.796875 164.429688 66.800781 164.464844 66.8125 C 164.496094 66.824219 164.535156 66.835938 164.574219 66.847656 C 164.613281 66.859375 164.660156 66.871094 164.710938 66.882812 C 164.761719 66.890625 164.828125 66.898438 164.910156 66.898438 C 165.148438 66.898438 165.414062 66.871094 165.707031 66.820312 C 166 66.769531 166.273438 66.703125 166.535156 66.625 C 166.792969 66.542969 167.015625 66.449219 167.199219 66.347656 C 167.386719 66.242188 167.492188 66.132812 167.519531 66.019531 C 167.535156 65.960938 167.539062 65.90625 167.539062 65.859375 C 167.539062 65.773438 167.5 65.691406 167.414062 65.613281 C 167.332031 65.535156 167.226562 65.460938 167.097656 65.386719 C 166.972656 65.316406 166.835938 65.25 166.6875 65.191406 C 166.539062 65.128906 166.402344 65.074219 166.273438 65.023438 L 166.015625 64.917969 C 165.882812 64.867188 165.753906 64.804688 165.625 64.730469 C 165.5 64.65625 165.382812 64.570312 165.273438 64.472656 C 165.164062 64.378906 165.066406 64.265625 164.984375 64.136719 C 164.898438 64.007812 164.835938 63.855469 164.796875 63.6875 C 164.777344 63.617188 164.757812 63.546875 164.746094 63.476562 C 164.734375 63.402344 164.726562 63.328125 164.726562 63.246094 C 164.726562 63.113281 164.773438 62.964844 164.859375 62.792969 C 164.949219 62.621094 165.070312 62.453125 165.21875 62.285156 C 165.371094 62.121094 165.539062 61.960938 165.730469 61.808594 C 165.921875 61.65625 166.121094 61.527344 166.328125 61.425781 C 166.484375 61.320312 166.628906 61.222656 166.773438 61.136719 C 166.914062 61.050781 167.058594 60.976562 167.203125 60.914062 C 167.347656 60.855469 167.496094 60.808594 167.644531 60.769531 C 167.796875 60.734375 167.953125 60.71875 168.121094 60.71875 C 168.273438 60.71875 168.4375 60.726562 168.617188 60.738281 C 168.792969 60.753906 168.957031 60.789062 169.105469 60.847656 C 169.253906 60.902344 169.375 60.984375 169.476562 61.09375 C 169.574219 61.203125 169.621094 61.351562 169.621094 61.53125 C 169.621094 61.589844 169.613281 61.664062 169.601562 61.753906 C 169.585938 61.84375 169.558594 61.9375 169.523438 62.027344 C 169.488281 62.121094 169.445312 62.199219 169.394531 62.265625 C 169.34375 62.328125 169.28125 62.363281 169.210938 62.363281 C 169.09375 62.363281 168.996094 62.339844 168.921875 62.292969 C 168.847656 62.246094 168.777344 62.199219 168.714844 62.144531 C 168.65625 62.089844 168.589844 62.042969 168.523438 61.996094 C 168.457031 61.949219 168.378906 61.925781 168.28125 61.925781 C 168.164062 61.925781 168.027344 61.949219 167.875 61.992188 C 167.71875 62.035156 167.558594 62.09375 167.398438 62.167969 C 167.234375 62.238281 167.074219 62.324219 166.921875 62.421875 C 166.765625 62.519531 166.625 62.617188 166.503906 62.71875 C 166.378906 62.820312 166.277344 62.921875 166.199219 63.019531 C 166.125 63.121094 166.085938 63.210938 166.085938 63.292969 C 166.085938 63.378906 166.113281 63.449219 166.167969 63.503906 C 166.226562 63.5625 166.296875 63.609375 166.382812 63.648438 C 166.496094 63.710938 166.625 63.773438 166.769531 63.832031 C 166.914062 63.894531 167.058594 63.957031 167.207031 64.015625 C 167.355469 64.078125 167.5 64.136719 167.636719 64.199219 C 167.777344 64.261719 167.898438 64.316406 168 64.367188 C 168.136719 64.4375 168.261719 64.507812 168.371094 64.578125 C 168.480469 64.644531 168.570312 64.71875 168.648438 64.800781 C 168.722656 64.882812 168.78125 64.972656 168.824219 65.078125 C 168.863281 65.175781 168.882812 65.296875 168.882812 65.433594 C 168.882812 65.5 168.878906 65.566406 168.871094 65.632812 C 168.859375 65.699219 168.84375 65.777344 168.824219 65.863281 C 168.808594 65.9375 168.78125 66.027344 168.742188 66.128906 C 168.703125 66.230469 168.664062 66.332031 168.621094 66.429688 C 168.578125 66.527344 168.535156 66.617188 168.488281 66.695312 C 168.441406 66.777344 168.402344 66.828125 168.375 66.851562 C 168.175781 67.035156 167.941406 67.207031 167.671875 67.367188 C 167.402344 67.527344 167.121094 67.667969 166.828125 67.785156 C 166.535156 67.90625 166.246094 68 165.953125 68.074219 C 165.660156 68.144531 165.390625 68.179688 165.148438 68.179688 C 165.027344 68.179688 164.890625 68.15625 164.742188 68.105469 C 164.597656 68.058594 164.460938 67.996094 164.335938 67.914062 C 164.210938 67.835938 164.109375 67.746094 164.023438 67.644531 C 163.941406 67.542969 163.898438 67.441406 163.898438 67.339844 C 163.898438 67.289062 163.914062 67.234375 163.941406 67.167969 C 163.972656 67.105469 164.011719 67.046875 164.058594 66.992188 C 164.101562 66.9375 164.152344 66.894531 164.207031 66.855469 C 164.261719 66.816406 164.308594 66.796875 164.351562 66.796875 Z M 164.351562 66.796875 " fill-opacity="1" fill-rule="nonzero"/><path fill="#000000" d="M 170.8125 66.796875 C 170.851562 66.796875 170.890625 66.800781 170.921875 66.8125 C 170.953125 66.824219 170.992188 66.835938 171.03125 66.847656 C 171.074219 66.859375 171.117188 66.871094 171.167969 66.882812 C 171.21875 66.890625 171.285156 66.898438 171.367188 66.898438 C 171.605469 66.898438 171.871094 66.871094 172.164062 66.820312 C 172.457031 66.769531 172.734375 66.703125 172.992188 66.625 C 173.25 66.542969 173.472656 66.449219 173.660156 66.347656 C 173.84375 66.242188 173.953125 66.132812 173.976562 66.019531 C 173.992188 65.960938 174 65.90625 174 65.859375 C 174 65.773438 173.957031 65.691406 173.875 65.613281 C 173.789062 65.535156 173.683594 65.460938 173.558594 65.386719 C 173.429688 65.316406 173.292969 65.25 173.144531 65.191406 C 172.996094 65.128906 172.859375 65.074219 172.734375 65.023438 L 172.476562 64.917969 C 172.34375 64.867188 172.210938 64.804688 172.085938 64.730469 C 171.957031 64.65625 171.839844 64.570312 171.730469 64.472656 C 171.621094 64.378906 171.523438 64.265625 171.441406 64.136719 C 171.359375 64.007812 171.296875 63.855469 171.253906 63.6875 C 171.234375 63.617188 171.21875 63.546875 171.207031 63.476562 C 171.191406 63.402344 171.1875 63.328125 171.1875 63.246094 C 171.1875 63.113281 171.230469 62.964844 171.320312 62.792969 C 171.410156 62.621094 171.527344 62.453125 171.679688 62.285156 C 171.828125 62.121094 172 61.960938 172.191406 61.808594 C 172.378906 61.65625 172.578125 61.527344 172.789062 61.425781 C 172.941406 61.320312 173.089844 61.222656 173.230469 61.136719 C 173.375 61.050781 173.515625 60.976562 173.660156 60.914062 C 173.804688 60.855469 173.953125 60.808594 174.105469 60.769531 C 174.253906 60.734375 174.414062 60.71875 174.578125 60.71875 C 174.730469 60.71875 174.898438 60.726562 175.074219 60.738281 C 175.253906 60.753906 175.414062 60.789062 175.5625 60.847656 C 175.710938 60.902344 175.835938 60.984375 175.933594 61.09375 C 176.03125 61.203125 176.082031 61.351562 176.082031 61.53125 C 176.082031 61.589844 176.074219 61.664062 176.058594 61.753906 C 176.042969 61.84375 176.019531 61.9375 175.984375 62.027344 C 175.949219 62.121094 175.902344 62.199219 175.851562 62.265625 C 175.804688 62.328125 175.742188 62.363281 175.671875 62.363281 C 175.550781 62.363281 175.457031 62.339844 175.378906 62.292969 C 175.304688 62.246094 175.234375 62.199219 175.175781 62.144531 C 175.113281 62.089844 175.050781 62.042969 174.984375 61.996094 C 174.917969 61.949219 174.835938 61.925781 174.738281 61.925781 C 174.621094 61.925781 174.488281 61.949219 174.332031 61.992188 C 174.175781 62.035156 174.019531 62.09375 173.855469 62.167969 C 173.691406 62.238281 173.535156 62.324219 173.378906 62.421875 C 173.222656 62.519531 173.085938 62.617188 172.960938 62.71875 C 172.835938 62.820312 172.734375 62.921875 172.660156 63.019531 C 172.582031 63.121094 172.546875 63.210938 172.546875 63.292969 C 172.546875 63.378906 172.574219 63.449219 172.628906 63.503906 C 172.683594 63.5625 172.753906 63.609375 172.84375 63.648438 C 172.953125 63.710938 173.082031 63.773438 173.226562 63.832031 C 173.371094 63.894531 173.519531 63.957031 173.664062 64.015625 C 173.8125 64.078125 173.957031 64.136719 174.097656 64.199219 C 174.238281 64.261719 174.355469 64.316406 174.460938 64.367188 C 174.597656 64.4375 174.71875 64.507812 174.828125 64.578125 C 174.9375 64.644531 175.03125 64.71875 175.105469 64.800781 C 175.183594 64.882812 175.242188 64.972656 175.28125 65.078125 C 175.324219 65.175781 175.34375 65.296875 175.34375 65.433594 C 175.34375 65.5 175.335938 65.566406 175.328125 65.632812 C 175.316406 65.699219 175.300781 65.777344 175.28125 65.863281 C 175.265625 65.9375 175.238281 66.027344 175.203125 66.128906 C 175.164062 66.230469 175.121094 66.332031 175.078125 66.429688 C 175.035156 66.527344 174.992188 66.617188 174.945312 66.695312 C 174.898438 66.777344 174.863281 66.828125 174.832031 66.851562 C 174.632812 67.035156 174.398438 67.207031 174.128906 67.367188 C 173.859375 67.527344 173.582031 67.667969 173.289062 67.785156 C 172.996094 67.90625 172.703125 68 172.410156 68.074219 C 172.117188 68.144531 171.851562 68.179688 171.605469 68.179688 C 171.484375 68.179688 171.351562 68.15625 171.203125 68.105469 C 171.054688 68.058594 170.917969 67.996094 170.792969 67.914062 C 170.671875 67.835938 170.566406 67.746094 170.480469 67.644531 C 170.398438 67.542969 170.355469 67.441406 170.355469 67.339844 C 170.355469 67.289062 170.371094 67.234375 170.402344 67.167969 C 170.433594 67.105469 170.472656 67.046875 170.515625 66.992188 C 170.5625 66.9375 170.609375 66.894531 170.664062 66.855469 C 170.71875 66.816406 170.765625 66.796875 170.8125 66.796875 Z M 170.8125 66.796875 " fill-opacity="1" fill-rule="nonzero"/><path fill="#000000" d="M 177.164062 65.226562 C 177.238281 64.917969 177.355469 64.589844 177.515625 64.242188 C 177.675781 63.894531 177.886719 63.542969 178.144531 63.1875 C 178.40625 62.832031 178.714844 62.480469 179.078125 62.140625 C 179.441406 61.800781 179.863281 61.484375 180.339844 61.191406 C 180.417969 61.144531 180.535156 61.09375 180.691406 61.039062 C 180.851562 60.988281 181.011719 60.957031 181.179688 60.945312 C 181.378906 60.730469 181.644531 60.625 181.980469 60.625 C 182.378906 60.625 182.710938 60.726562 182.984375 60.925781 C 183.257812 61.128906 183.480469 61.398438 183.660156 61.746094 C 183.714844 61.855469 183.765625 61.964844 183.816406 62.074219 C 183.863281 62.179688 183.90625 62.292969 183.9375 62.410156 C 183.96875 62.53125 183.996094 62.660156 184.015625 62.796875 C 184.039062 62.933594 184.046875 63.089844 184.046875 63.261719 C 184.046875 63.664062 183.984375 64.070312 183.855469 64.488281 C 183.730469 64.90625 183.550781 65.3125 183.316406 65.707031 C 183.082031 66.105469 182.796875 66.484375 182.464844 66.847656 C 182.132812 67.210938 181.761719 67.535156 181.355469 67.828125 C 181.082031 68.023438 180.777344 68.179688 180.445312 68.289062 C 180.109375 68.398438 179.738281 68.453125 179.328125 68.453125 C 178.933594 68.453125 178.597656 68.398438 178.308594 68.296875 C 178.023438 68.191406 177.785156 68.042969 177.59375 67.851562 C 177.402344 67.65625 177.257812 67.425781 177.164062 67.15625 C 177.070312 66.886719 177.023438 66.585938 177.023438 66.257812 C 177.027344 65.9375 177.070312 65.59375 177.164062 65.226562 Z M 178.429688 65.324219 C 178.398438 65.445312 178.375 65.554688 178.363281 65.65625 C 178.351562 65.761719 178.34375 65.863281 178.34375 65.957031 C 178.34375 66.125 178.367188 66.285156 178.410156 66.429688 C 178.453125 66.574219 178.523438 66.695312 178.621094 66.800781 C 178.714844 66.90625 178.835938 66.984375 178.980469 67.042969 C 179.125 67.101562 179.304688 67.132812 179.511719 67.132812 C 179.898438 67.132812 180.257812 67.035156 180.589844 66.839844 C 180.925781 66.640625 181.21875 66.398438 181.480469 66.101562 C 181.738281 65.808594 181.957031 65.492188 182.128906 65.152344 C 182.304688 64.816406 182.429688 64.503906 182.5 64.21875 C 182.546875 64.042969 182.585938 63.875 182.617188 63.714844 C 182.652344 63.558594 182.667969 63.414062 182.667969 63.28125 C 182.667969 63.148438 182.644531 63.027344 182.597656 62.914062 C 182.546875 62.800781 182.484375 62.671875 182.410156 62.527344 C 182.363281 62.441406 182.316406 62.351562 182.273438 62.257812 C 182.226562 62.164062 182.1875 62.070312 182.152344 61.980469 C 182.109375 62.050781 182.066406 62.113281 182.019531 62.164062 C 181.976562 62.21875 181.90625 62.265625 181.816406 62.308594 C 181.722656 62.355469 181.597656 62.390625 181.441406 62.429688 C 181.28125 62.464844 181.078125 62.496094 180.824219 62.519531 C 180.65625 62.574219 180.484375 62.660156 180.3125 62.777344 C 180.140625 62.894531 179.96875 63.03125 179.804688 63.191406 C 179.640625 63.347656 179.484375 63.519531 179.332031 63.699219 C 179.183594 63.882812 179.046875 64.070312 178.929688 64.261719 C 178.808594 64.453125 178.703125 64.636719 178.613281 64.820312 C 178.527344 65.007812 178.464844 65.171875 178.429688 65.324219 Z M 178.429688 65.324219 " fill-opacity="1" fill-rule="nonzero"/><path fill="#000000" d="M 190.757812 61.890625 C 190.582031 61.890625 190.390625 61.929688 190.1875 62.015625 C 189.984375 62.101562 189.773438 62.210938 189.554688 62.355469 C 189.335938 62.496094 189.113281 62.65625 188.886719 62.835938 C 188.660156 63.019531 188.4375 63.203125 188.21875 63.398438 C 188.109375 63.496094 188.003906 63.582031 187.898438 63.660156 C 187.800781 63.738281 187.699219 63.800781 187.59375 63.839844 C 187.523438 63.957031 187.449219 64.109375 187.371094 64.300781 C 187.292969 64.492188 187.214844 64.699219 187.136719 64.925781 C 187.0625 65.152344 186.988281 65.382812 186.921875 65.621094 C 186.851562 65.855469 186.792969 66.074219 186.75 66.277344 C 186.722656 66.386719 186.703125 66.488281 186.6875 66.589844 C 186.671875 66.691406 186.652344 66.800781 186.632812 66.914062 C 186.613281 67.03125 186.589844 67.152344 186.5625 67.285156 C 186.535156 67.417969 186.5 67.566406 186.457031 67.726562 C 186.429688 67.824219 186.390625 67.902344 186.335938 67.960938 C 186.28125 68.019531 186.222656 68.0625 186.160156 68.09375 C 186.097656 68.125 186.042969 68.144531 185.984375 68.148438 C 185.929688 68.15625 185.886719 68.160156 185.855469 68.160156 C 185.664062 68.160156 185.503906 68.117188 185.382812 68.023438 C 185.261719 67.933594 185.199219 67.753906 185.199219 67.492188 C 185.199219 67.417969 185.203125 67.34375 185.207031 67.265625 C 185.214844 67.1875 185.226562 67.097656 185.253906 67.003906 C 185.367188 66.519531 185.472656 66.085938 185.578125 65.699219 C 185.679688 65.3125 185.785156 64.953125 185.894531 64.625 C 186 64.292969 186.109375 63.984375 186.21875 63.691406 C 186.328125 63.398438 186.4375 63.105469 186.554688 62.808594 C 186.667969 62.511719 186.789062 62.203125 186.914062 61.886719 C 187.039062 61.566406 187.171875 61.214844 187.3125 60.828125 C 187.34375 60.742188 187.421875 60.671875 187.554688 60.613281 C 187.683594 60.554688 187.824219 60.523438 187.96875 60.523438 C 188.164062 60.523438 188.320312 60.570312 188.445312 60.65625 C 188.570312 60.742188 188.632812 60.863281 188.632812 61.027344 C 188.632812 61.042969 188.625 61.070312 188.617188 61.109375 C 188.605469 61.152344 188.589844 61.195312 188.570312 61.242188 L 188.234375 62.035156 C 188.449219 61.867188 188.671875 61.699219 188.902344 61.53125 C 189.132812 61.363281 189.371094 61.210938 189.613281 61.078125 C 189.859375 60.941406 190.105469 60.832031 190.351562 60.75 C 190.597656 60.664062 190.839844 60.621094 191.078125 60.621094 C 191.566406 60.621094 191.949219 60.753906 192.222656 61.015625 C 192.496094 61.277344 192.632812 61.683594 192.632812 62.230469 C 192.632812 62.546875 192.578125 62.90625 192.472656 63.304688 C 192.363281 63.707031 192.222656 64.136719 192.058594 64.597656 C 191.894531 65.058594 191.714844 65.539062 191.527344 66.046875 C 191.335938 66.550781 191.15625 67.066406 190.996094 67.589844 C 190.949219 67.730469 190.902344 67.851562 190.855469 67.949219 C 190.804688 68.042969 190.75 68.121094 190.683594 68.179688 C 190.617188 68.238281 190.539062 68.28125 190.449219 68.304688 C 190.359375 68.332031 190.253906 68.34375 190.125 68.34375 C 189.925781 68.34375 189.789062 68.304688 189.710938 68.234375 C 189.636719 68.160156 189.597656 68.042969 189.597656 67.878906 C 189.597656 67.738281 189.621094 67.5625 189.664062 67.359375 C 189.707031 67.152344 189.765625 66.925781 189.847656 66.679688 C 189.925781 66.433594 190.015625 66.171875 190.121094 65.890625 C 190.226562 65.609375 190.335938 65.324219 190.460938 65.035156 C 190.554688 64.804688 190.652344 64.570312 190.746094 64.335938 C 190.839844 64.101562 190.921875 63.875 190.996094 63.65625 C 191.070312 63.4375 191.128906 63.230469 191.175781 63.03125 C 191.222656 62.832031 191.246094 62.648438 191.246094 62.480469 C 191.246094 62.324219 191.210938 62.1875 191.144531 62.066406 C 191.074219 61.949219 190.949219 61.890625 190.757812 61.890625 Z M 190.757812 61.890625 " fill-opacity="1" fill-rule="nonzero"/><path fill="#000000" d="M 205.09375 58.511719 C 204.953125 58.558594 204.675781 58.660156 204.261719 58.816406 C 203.363281 59.15625 202.800781 59.328125 202.570312 59.328125 C 202.414062 59.328125 202.292969 59.28125 202.207031 59.1875 C 202.125 59.09375 202.082031 58.980469 202.082031 58.855469 C 202.082031 58.5 202.242188 58.230469 202.5625 58.046875 C 202.882812 57.863281 203.546875 57.648438 204.558594 57.394531 C 205.570312 57.144531 206.179688 57.019531 206.390625 57.019531 C 206.703125 57.019531 206.863281 57.164062 206.863281 57.453125 C 206.863281 57.664062 206.753906 57.953125 206.535156 58.332031 C 206.015625 59.214844 205.386719 60.671875 204.652344 62.703125 C 203.914062 64.730469 203.457031 66.367188 203.285156 67.613281 C 203.261719 67.804688 203.171875 67.953125 203.023438 68.054688 C 202.871094 68.15625 202.699219 68.207031 202.5 68.207031 C 202.054688 68.207031 201.828125 68.003906 201.828125 67.597656 C 201.828125 66.933594 202.199219 65.558594 202.933594 63.472656 C 203.671875 61.390625 204.394531 59.738281 205.09375 58.511719 Z M 205.09375 58.511719 " fill-opacity="1" fill-rule="nonzero"/></svg>