<svg xmlns="http://www.w3.org/2000/svg" xmlns:xlink="http://www.w3.org/1999/xlink" width="500" zoomAndPan="magnify" viewBox="0 0 375 374.999991" height="500" preserveAspectRatio="xMidYMid meet" version="1.0"><defs><clipPath id="741a6f9f75"><path d="M 0 0 L 374.992188 0 L 374.992188 374.984375 L 0 374.984375 Z M 0 0 " clip-rule="nonzero"/></clipPath><clipPath id="1d858635fa"><path d="M 104.570312 143 L 274.78125 143 L 274.78125 374.984375 L 104.570312 374.984375 Z M 104.570312 143 " clip-rule="nonzero"/></clipPath></defs><path fill="#ffffff" d="M 158.621094 244.546875 C 159.054688 244.976562 159.4375 245.449219 159.777344 245.953125 C 160.117188 246.460938 160.402344 246.996094 160.636719 247.5625 C 160.871094 248.125 161.046875 248.703125 161.164062 249.304688 C 161.285156 249.902344 161.34375 250.503906 161.34375 251.117188 C 161.34375 251.726562 161.285156 252.328125 161.164062 252.925781 C 161.046875 253.527344 160.871094 254.105469 160.636719 254.671875 C 160.402344 255.234375 160.117188 255.769531 159.777344 256.277344 C 159.441406 256.785156 159.054688 257.253906 158.625 257.683594 C 158.191406 258.113281 157.722656 258.5 157.214844 258.839844 C 156.707031 259.179688 156.171875 259.464844 155.609375 259.699219 C 155.046875 259.929688 154.464844 260.105469 153.867188 260.226562 C 153.269531 260.34375 152.664062 260.40625 152.054688 260.40625 C 151.445312 260.40625 150.839844 260.34375 150.242188 260.226562 C 149.644531 260.105469 149.0625 259.929688 148.5 259.699219 C 147.9375 259.464844 147.402344 259.179688 146.894531 258.839844 C 146.386719 258.5 145.917969 258.117188 145.488281 257.683594 C 145.054688 257.253906 144.671875 256.785156 144.332031 256.277344 C 143.992188 255.769531 143.707031 255.234375 143.472656 254.671875 C 143.238281 254.105469 143.0625 253.527344 142.945312 252.929688 C 142.824219 252.328125 142.765625 251.726562 142.765625 251.117188 C 142.765625 250.503906 142.824219 249.902344 142.945312 249.304688 C 143.0625 248.707031 143.238281 248.125 143.472656 247.5625 C 143.707031 246.996094 143.992188 246.460938 144.332031 245.953125 C 144.667969 245.449219 145.054688 244.976562 145.484375 244.546875 C 145.917969 244.117188 146.386719 243.730469 146.894531 243.390625 C 147.402344 243.054688 147.9375 242.765625 148.5 242.535156 C 149.0625 242.300781 149.644531 242.125 150.242188 242.003906 C 150.839844 241.886719 151.445312 241.828125 152.054688 241.828125 C 152.664062 241.828125 153.269531 241.886719 153.867188 242.003906 C 154.464844 242.125 155.046875 242.300781 155.609375 242.535156 C 156.171875 242.765625 156.707031 243.054688 157.214844 243.390625 C 157.722656 243.730469 158.191406 244.117188 158.621094 244.546875 Z M 158.621094 244.546875 " fill-opacity="1" fill-rule="nonzero"/><g clip-path="url(#741a6f9f75)"><path fill="#adcfff" d="M 374.992188 187.488281 C 374.992188 261.652344 331.933594 325.761719 269.449219 356.167969 C 267.628906 357.058594 265.792969 357.921875 263.929688 358.75 C 251.953125 364.101562 239.320312 368.238281 226.167969 370.988281 C 213.6875 373.609375 200.753906 374.984375 187.496094 374.984375 C 175.152344 374.984375 163.089844 373.792969 151.414062 371.511719 C 138.984375 369.089844 126.988281 365.441406 115.566406 360.6875 C 113.109375 359.671875 110.671875 358.597656 108.269531 357.472656 C 44.316406 327.617188 0 262.734375 0 187.488281 C 0 83.941406 83.945312 -0.00390625 187.496094 -0.00390625 C 291.046875 -0.00390625 374.992188 83.941406 374.992188 187.488281 " fill-opacity="1" fill-rule="nonzero"/></g><g clip-path="url(#1d858635fa)"><path fill="#adcfff" d="M 272.691406 218.75 C 272.542969 219.640625 267.894531 235.671875 262.816406 264.226562 C 262.730469 264.695312 262.644531 265.164062 262.566406 265.644531 C 262.160156 267.945312 261.75 270.320312 261.347656 272.773438 C 261.195312 273.691406 261.046875 274.621094 260.894531 275.554688 C 260.226562 279.660156 259.8125 284.144531 259.605469 288.929688 C 259.570312 289.511719 259.550781 290.105469 259.53125 290.707031 C 259.21875 300.015625 259.613281 310.367188 260.378906 321.101562 C 260.457031 322.265625 260.550781 323.433594 260.644531 324.613281 C 261.511719 335.890625 262.742188 347.515625 263.929688 358.75 C 251.953125 364.101562 239.320312 368.238281 226.167969 370.988281 C 213.6875 373.609375 200.753906 374.984375 187.496094 374.984375 C 175.152344 374.984375 163.089844 373.792969 151.414062 371.511719 C 138.984375 369.089844 126.988281 365.441406 115.566406 360.6875 C 116.726562 348.578125 117.9375 335.96875 118.753906 323.808594 C 118.753906 323.789062 118.753906 323.769531 118.757812 323.75 C 118.902344 321.574219 119.03125 319.414062 119.152344 317.269531 C 119.179688 316.773438 119.203125 316.28125 119.230469 315.789062 C 119.234375 315.679688 119.246094 315.5625 119.246094 315.449219 C 119.296875 314.480469 119.347656 313.519531 119.386719 312.558594 C 119.648438 306.507812 119.777344 300.65625 119.699219 295.128906 C 119.6875 294.210938 119.667969 293.296875 119.648438 292.394531 C 119.613281 291.125 119.566406 289.875 119.507812 288.640625 C 119.496094 288.316406 119.476562 287.996094 119.460938 287.675781 C 119.222656 283.257812 118.828125 279.121094 118.226562 275.332031 C 118.210938 275.246094 118.199219 275.15625 118.183594 275.078125 C 117.601562 271.488281 117.039062 268.0625 116.492188 264.800781 C 116.21875 263.160156 115.945312 261.5625 115.679688 260.003906 C 111.222656 233.90625 108.125 219.589844 107.941406 218.75 C 97.609375 172.347656 114.472656 157.511719 117.527344 155.257812 C 117.824219 155.039062 117.988281 154.9375 117.988281 154.9375 C 118.105469 154.917969 118.226562 154.90625 118.34375 154.886719 C 137.308594 152.214844 149.425781 148.601562 155.945312 146.210938 C 156.011719 146.183594 156.082031 146.160156 156.144531 146.136719 C 158.179688 145.382812 159.648438 144.757812 160.597656 144.328125 C 161.480469 143.925781 161.910156 143.695312 161.910156 143.695312 C 164.082031 143.359375 166.167969 143.257812 168.179688 143.324219 C 176.695312 143.566406 183.878906 146.628906 190.316406 146.402344 C 196.148438 146.605469 201.707031 144.5625 208.738281 144.148438 C 211.292969 143.996094 214.03125 144.066406 217.054688 144.539062 C 217.054688 144.539062 217.335938 144.679688 217.921875 144.9375 C 218.558594 145.210938 219.558594 145.617188 220.96875 146.125 C 221.042969 146.148438 221.117188 146.175781 221.195312 146.199219 C 221.40625 146.277344 221.636719 146.355469 221.867188 146.433594 C 221.9375 146.460938 222 146.484375 222.070312 146.507812 C 227.742188 148.441406 238.613281 151.492188 256.644531 154.136719 C 257.480469 154.265625 258.335938 154.382812 259.203125 154.507812 C 259.203125 154.507812 259.617188 154.859375 260.3125 155.597656 C 264.558594 160.085938 279.226562 178.886719 272.691406 218.75 " fill-opacity="1" fill-rule="nonzero"/></g><path fill="#ffffff" d="M 156.402344 146.105469 L 156.390625 146.671875 L 156.347656 148.570312 L 154.433594 235.019531 L 154.414062 235.898438 L 154.375 237.753906 L 154.179688 246.476562 L 153.988281 255.121094 L 153.933594 257.457031 L 153.917969 258.363281 L 153.566406 274.183594 L 153.507812 276.878906 L 153.429688 280.277344 L 153.027344 298.609375 L 152.777344 309.738281 L 152.648438 315.550781 L 152.648438 315.785156 L 151.414062 371.511719 C 138.984375 369.089844 126.988281 365.441406 115.566406 360.6875 C 113.109375 359.671875 110.671875 358.597656 108.269531 357.472656 C 109.242188 346.519531 110.179688 335.558594 111.058594 324.703125 C 111.058594 324.699219 111.066406 324.691406 111.066406 324.691406 C 111.273438 322.070312 111.488281 319.457031 111.691406 316.847656 C 111.777344 315.742188 111.867188 314.640625 111.953125 313.542969 C 112.253906 309.714844 112.546875 305.902344 112.828125 302.109375 C 112.972656 300.179688 113.117188 298.25 113.257812 296.324219 C 113.316406 295.46875 113.382812 294.613281 113.445312 293.753906 C 113.527344 292.597656 113.609375 291.441406 113.691406 290.292969 C 113.699219 290.257812 113.699219 290.222656 113.703125 290.191406 C 114.308594 281.625 114.871094 273.1875 115.378906 264.9375 C 115.484375 263.285156 115.582031 261.636719 115.679688 260.003906 C 118.207031 217.488281 119.210938 180.171875 117.527344 155.257812 C 117.519531 155.144531 117.511719 155.023438 117.503906 154.910156 L 117.621094 154.878906 L 155.945312 146.210938 L 156.109375 146.171875 L 156.402344 146.105469 " fill-opacity="1" fill-rule="nonzero"/><path fill="#ffffff" d="M 263.929688 358.75 C 251.953125 364.101562 239.320312 368.238281 226.167969 370.988281 L 225.011719 318.425781 L 224.921875 314.691406 L 224.289062 285.796875 L 224.21875 282.734375 L 224.203125 282.242188 L 224.125 278.476562 L 223.78125 262.871094 L 223.414062 246.382812 L 221.34375 147.761719 L 221.421875 146.199219 L 221.421875 146.105469 L 221.433594 146.132812 L 222.265625 146.3125 L 258.839844 153.835938 L 260.417969 154.164062 C 260.386719 154.636719 260.347656 155.117188 260.320312 155.597656 C 258.679688 181.417969 259.796875 220.121094 262.46875 264.003906 C 262.5 264.546875 262.53125 265.097656 262.566406 265.644531 C 262.871094 270.644531 263.195312 275.710938 263.539062 280.832031 C 263.75 283.925781 263.964844 287.042969 264.183594 290.175781 C 264.207031 290.441406 264.222656 290.707031 264.238281 290.964844 C 264.964844 301.1875 265.746094 311.585938 266.589844 322.082031 C 266.675781 323.117188 266.753906 324.148438 266.839844 325.179688 C 267.667969 335.457031 268.539062 345.8125 269.449219 356.167969 C 267.628906 357.058594 265.792969 357.921875 263.929688 358.75 " fill-opacity="1" fill-rule="nonzero"/><path fill="#fdcba9" d="M 218.3125 145.746094 C 208.480469 161.152344 197.96875 158.140625 189.261719 159.117188 C 171.90625 161.074219 157.359375 149.570312 157.359375 149.570312 C 160.644531 144.320312 163.457031 140.292969 164.886719 133.339844 C 164.90625 133.273438 164.914062 133.21875 164.929688 133.152344 L 165.191406 131.871094 C 166.21875 126.875 167.386719 120.984375 168.050781 117.609375 L 168.316406 116.246094 C 168.480469 115.367188 168.585938 113.878906 168.585938 113.878906 C 170.378906 107.914062 180.019531 107.554688 189.707031 107.554688 L 189.71875 107.554688 C 200.519531 109.652344 211.351562 113.085938 211.351562 113.085938 C 208.042969 116.394531 210.09375 125.386719 212.804688 132.75 C 215.28125 139.484375 218.3125 145.746094 218.3125 145.746094 " fill-opacity="1" fill-rule="nonzero"/><path fill="#32394f" d="M 192.839844 158.261719 L 200.484375 169.488281 L 187.609375 185.519531 L 177.097656 169.730469 L 185.140625 158.875 C 185.140625 158.875 187.964844 160.019531 192.839844 158.261719 " fill-opacity="1" fill-rule="nonzero"/><path fill="#ffae81" d="M 212.804688 133.242188 C 192.265625 153.984375 178.652344 146.105469 164.929688 133.152344 L 165.191406 131.871094 L 168.050781 117.609375 L 168.316406 115.265625 L 189.707031 107.554688 L 189.71875 107.554688 C 200.519531 109.652344 211.351562 113.085938 211.351562 113.085938 C 208.042969 116.394531 210.09375 125.875 212.804688 133.242188 " fill-opacity="1" fill-rule="nonzero"/><path fill="#32394f" d="M 193.535156 171.390625 C 193.535156 171.390625 204.0625 298.429688 207.113281 337.265625 L 188.308594 358.601562 L 170.28125 337.410156 C 170.28125 337.410156 172.875 295.765625 182.679688 170.03125 L 193.535156 171.390625 " fill-opacity="1" fill-rule="nonzero"/><path fill="#ffcdab" d="M 230.511719 63.550781 C 230.511719 95.515625 211.835938 138.757812 188.796875 138.757812 C 165.757812 138.757812 147.078125 95.515625 147.078125 63.550781 C 147.078125 31.585938 165.757812 22.992188 188.796875 22.992188 C 211.835938 22.992188 230.511719 31.585938 230.511719 63.550781 " fill-opacity="1" fill-rule="nonzero"/><path fill="#ffcdab" d="M 153.835938 98.074219 C 153.835938 98.074219 143.316406 102.171875 140.332031 72.640625 C 140.070312 70.101562 144.738281 67.386719 147.742188 70.972656 C 150.746094 74.5625 153.835938 98.074219 153.835938 98.074219 " fill-opacity="1" fill-rule="nonzero"/><path fill="#ffcdab" d="M 223.75 98.074219 C 223.75 98.074219 234.269531 102.171875 237.257812 72.640625 C 237.519531 70.101562 232.851562 67.386719 229.847656 70.972656 C 226.84375 74.5625 223.75 98.074219 223.75 98.074219 " fill-opacity="1" fill-rule="nonzero"/><path fill="#32394f" d="M 150.828125 82.132812 C 151.101562 84.253906 143.113281 60.4375 143.113281 34.976562 C 143.113281 33.898438 147.996094 4.535156 166.796875 15.058594 C 166.796875 15.058594 171.539062 30.726562 173.28125 32.621094 C 173.28125 32.621094 153.234375 30.160156 150.824219 53.78125 C 150.824219 53.78125 150.015625 75.800781 150.828125 82.132812 " fill-opacity="1" fill-rule="nonzero"/><path fill="#32394f" d="M 162.878906 16.175781 C 162.738281 15.730469 164.003906 12.085938 168.179688 8.460938 C 172.359375 4.839844 178.578125 2.40625 187.945312 4.121094 C 187.945312 4.121094 200.367188 4.242188 208.773438 7.835938 C 219.933594 12.613281 230.714844 19.820312 231.820312 34.015625 C 231.820312 34.015625 233.042969 71.75 226.796875 82.226562 L 227.546875 65.671875 C 227.546875 65.671875 227.589844 41.410156 208.835938 41.355469 C 208.835938 41.355469 185.535156 42.210938 173.410156 34.0625 C 163.355469 27.308594 162.878906 16.175781 162.878906 16.175781 " fill-opacity="1" fill-rule="nonzero"/><path fill="#ffae81" d="M 147.230469 296.027344 C 147.230469 296.027344 137.292969 291.011719 124.039062 291.621094 C 124.039062 291.621094 81.234375 322.910156 142 314.078125 L 147.230469 296.027344 " fill-opacity="1" fill-rule="nonzero"/><path fill="#ffe1cc" d="M 138.164062 305.140625 C 138.164062 305.140625 136.753906 298.300781 124.0625 309.753906 C 120.386719 313.070312 114.789062 313.441406 112.632812 316.71875 C 110.796875 319.503906 117.066406 316.636719 125.625 317.035156 C 125.625 317.035156 140.53125 318.238281 138.164062 305.140625 " fill-opacity="1" fill-rule="nonzero"/><path fill="#ffffff" d="M 133.851562 177.65625 C 133.851562 177.65625 130.652344 229.542969 110.988281 305.234375 C 107.695312 317.90625 91.308594 328.195312 78.949219 321.324219 C 64.3125 313.1875 65.375 292.433594 66.335938 278.15625 C 68.445312 247.03125 78.109375 217.175781 87.796875 187.746094 C 92.152344 174.503906 100.613281 159.0625 116.859375 154.902344 C 135.320312 150.179688 133.851562 177.65625 133.851562 177.65625 " fill-opacity="1" fill-rule="nonzero"/><path fill="#ffffff" d="M 270.601562 305.480469 C 240.808594 205.121094 242.910156 172.167969 242.910156 172.167969 C 242.910156 172.167969 250.464844 150.210938 261.636719 154.503906 C 271.007812 158.105469 281.015625 166.015625 285.722656 174.992188 C 292.394531 187.707031 301.078125 253.820312 305.175781 272.621094 C 319.5 338.394531 277.410156 328.445312 270.601562 305.480469 " fill-opacity="1" fill-rule="nonzero"/><path fill="#f2f2f2" d="M 258.539062 266.777344 C 259.042969 262.003906 259.484375 257.214844 259.898438 252.425781 C 260.308594 247.636719 260.679688 242.84375 261.007812 238.042969 C 261.339844 233.246094 261.609375 228.445312 261.839844 223.640625 C 262.0625 218.835938 262.210938 214.027344 262.292969 209.214844 C 262.363281 214.027344 262.371094 218.839844 262.300781 223.652344 C 262.222656 228.46875 262.109375 233.28125 261.929688 238.09375 C 261.753906 242.902344 261.539062 247.714844 261.28125 252.523438 C 261.019531 257.332031 260.730469 262.136719 260.378906 266.949219 L 258.539062 266.777344 " fill-opacity="1" fill-rule="nonzero"/><path fill="#ffffff" d="M 300.160156 320.070312 C 297.289062 323.214844 290.746094 324.464844 283.933594 325.175781 C 252.695312 328.457031 187.160156 309.476562 152.273438 298.367188 C 138.324219 293.925781 129.277344 290.746094 129.277344 290.746094 L 133.855469 275.488281 L 135.0625 271.457031 C 145.511719 273.113281 155.746094 274.519531 165.65625 275.769531 C 210.613281 281.460938 248.5625 285.230469 271.359375 292.558594 C 314.722656 306.507812 300.160156 320.070312 300.160156 320.070312 " fill-opacity="1" fill-rule="nonzero"/><path fill="#ffcdab" d="M 238.40625 259.886719 C 268.789062 255.535156 283.855469 282.746094 268.425781 290.882812 C 267.796875 291.21875 267.085938 291.363281 266.375 291.335938 C 262.46875 291.175781 248.152344 290.273438 232.398438 285.347656 C 213.890625 279.5625 195.46875 266.035156 238.40625 259.886719 " fill-opacity="1" fill-rule="nonzero"/><path fill="#f2f2f2" d="M 283.933594 325.175781 C 259.460938 327.75 213.9375 316.65625 178.589844 306.378906 C 181.179688 305.382812 180.96875 304.269531 183.394531 303.277344 C 224.253906 317.738281 270.367188 321.746094 283.933594 325.175781 " fill-opacity="1" fill-rule="nonzero"/><path fill="#f2f2f2" d="M 156.488281 146.617188 L 138.65625 154.355469 L 147.570312 182.457031 L 138.65625 185.546875 L 154.429688 247.449219 L 156.488281 146.617188 " fill-opacity="1" fill-rule="nonzero"/><path fill="#f2f2f2" d="M 220.964844 145.933594 L 238.800781 153.945312 L 229.882812 181.769531 L 238.800781 184.855469 L 223.308594 246.820312 L 220.964844 145.933594 " fill-opacity="1" fill-rule="nonzero"/><path fill="#f2f2f2" d="M 212.882812 267.15625 C 199.308594 270.429688 144.855469 277.1875 104.136719 293.214844 C 104.890625 293 105.660156 292.773438 106.449219 292.558594 C 131.527344 285.554688 113.085938 281.132812 212.882812 267.15625 " fill-opacity="1" fill-rule="nonzero"/><path fill="#ffffff" d="M 227.238281 283.523438 C 227.238281 283.523438 218.648438 288.8125 218.636719 288.820312 C 218.222656 289.03125 204.78125 295.769531 186.109375 303.386719 L 178.589844 306.378906 C 144.933594 319.484375 99.195312 332.984375 78.992188 319.546875 C 78.992188 319.546875 78.878906 319.5 78.683594 319.402344 C 75.878906 318.039062 56.019531 307.152344 104.136719 293.214844 C 104.890625 293 105.660156 292.773438 106.449219 292.558594 C 131.527344 285.554688 116.460938 279.90625 216.257812 265.925781 L 227.238281 283.523438 " fill-opacity="1" fill-rule="nonzero"/><path fill="#f2f2f2" d="M 227.238281 283.523438 C 226.820312 283.734375 204.78125 295.769531 186.109375 303.386719 L 178.589844 306.378906 C 103.15625 336.957031 78.460938 320.992188 78.261719 320.898438 C 109.398438 324.828125 168.207031 309.753906 227.238281 283.523438 " fill-opacity="1" fill-rule="nonzero"/><path fill="#9ac0e3" d="M 155.40625 146.890625 L 163.242188 138.871094 L 185.5625 159 L 173.242188 178.648438 L 155.40625 146.890625 " fill-opacity="1" fill-rule="nonzero"/><path fill="#9ac0e3" d="M 222.253906 146.242188 L 215.28125 138.871094 L 190.324219 159 L 201.929688 176.480469 L 222.253906 146.242188 " fill-opacity="1" fill-rule="nonzero"/><path fill="#f2f2f2" d="M 165.65625 275.769531 L 165.65625 276.464844 L 134.421875 273.597656 L 135.0625 271.457031 C 145.511719 273.113281 155.746094 274.519531 165.65625 275.769531 " fill-opacity="1" fill-rule="nonzero"/><path fill="#808080" d="M 131.8125 260.566406 C 126.441406 260.566406 122.070312 256.195312 122.070312 250.824219 L 122.070312 242.210938 C 122.070312 236.84375 126.441406 232.472656 131.8125 232.472656 L 149.945312 232.472656 C 155.320312 232.472656 159.6875 236.84375 159.6875 242.210938 L 159.6875 250.824219 C 159.6875 256.195312 155.320312 260.566406 149.945312 260.566406 L 131.8125 260.566406 " fill-opacity="1" fill-rule="nonzero"/><path fill="#ffffff" d="M 157.683594 250.824219 C 157.683594 255.101562 154.222656 258.5625 149.945312 258.5625 L 131.8125 258.5625 C 127.539062 258.5625 124.074219 255.101562 124.074219 250.824219 L 124.074219 242.214844 C 124.074219 237.941406 127.539062 234.476562 131.8125 234.476562 L 149.945312 234.476562 C 154.222656 234.476562 157.683594 237.941406 157.683594 242.214844 L 157.683594 250.824219 " fill-opacity="1" fill-rule="nonzero"/><path fill="#808080" d="M 150.503906 240.695312 L 131.257812 240.695312 L 131.257812 239.863281 L 150.503906 239.863281 L 150.503906 240.695312 " fill-opacity="1" fill-rule="nonzero"/><path fill="#808080" d="M 150.503906 244.855469 L 131.257812 244.855469 L 131.257812 244.023438 L 150.503906 244.023438 L 150.503906 244.855469 " fill-opacity="1" fill-rule="nonzero"/><path fill="#808080" d="M 150.503906 249.015625 L 131.257812 249.015625 L 131.257812 248.183594 L 150.503906 248.183594 L 150.503906 249.015625 " fill-opacity="1" fill-rule="nonzero"/><path fill="#808080" d="M 150.503906 253.171875 L 131.257812 253.171875 L 131.257812 252.34375 L 150.503906 252.34375 L 150.503906 253.171875 " fill-opacity="1" fill-rule="nonzero"/><path fill="#ffcdab" d="M 102.722656 282.390625 C 102.273438 285.054688 102.402344 287.699219 103.550781 290 C 105.058594 293.023438 108.425781 294.648438 111.75 294.058594 C 116.460938 293.230469 125.507812 291.304688 136.007812 287.367188 C 144.457031 284.199219 141.339844 275.789062 133.855469 270.152344 C 122.179688 261.359375 105.148438 267.976562 102.722656 282.390625 " fill-opacity="1" fill-rule="nonzero"/><path fill="#f2f2f2" d="M 117.214844 266.949219 C 116.863281 262.136719 116.570312 257.332031 116.3125 252.523438 C 116.054688 247.714844 115.839844 242.902344 115.664062 238.09375 C 115.480469 233.28125 115.367188 228.46875 115.292969 223.652344 C 115.222656 218.839844 115.230469 214.027344 115.300781 209.214844 C 115.382812 214.027344 115.53125 218.835938 115.753906 223.640625 C 115.984375 228.445312 116.25 233.246094 116.585938 238.042969 C 116.917969 242.84375 117.28125 247.636719 117.695312 252.425781 C 118.105469 257.214844 118.554688 262.003906 119.058594 266.777344 L 117.214844 266.949219 " fill-opacity="1" fill-rule="nonzero"/></svg>