<svg xmlns="http://www.w3.org/2000/svg" xmlns:xlink="http://www.w3.org/1999/xlink" width="500" zoomAndPan="magnify" viewBox="0 0 375 374.999991" height="500" preserveAspectRatio="xMidYMid meet" version="1.0"><defs><clipPath id="a3be65e2ab"><path d="M 254.265625 206.277344 L 285.765625 206.277344 L 285.765625 237.777344 L 254.265625 237.777344 Z M 254.265625 206.277344 " clip-rule="nonzero"/></clipPath><clipPath id="8a037a5bf8"><path d="M 37.746094 0 L 341.019531 0 L 341.019531 374.976562 L 37.746094 374.976562 Z M 37.746094 0 " clip-rule="nonzero"/></clipPath><clipPath id="a5a30d9cdb"><path d="M 112.660156 88.5 L 269.984375 88.5 L 269.984375 374.976562 L 112.660156 374.976562 Z M 112.660156 88.5 " clip-rule="nonzero"/></clipPath><clipPath id="442fa26ad6"><path d="M 46 0 L 341.019531 0 L 341.019531 361.5 L 46 361.5 Z M 46 0 " clip-rule="nonzero"/></clipPath><clipPath id="92c5e30147"><path d="M 37.746094 11.25 L 332 11.25 L 332 374.976562 L 37.746094 374.976562 Z M 37.746094 11.25 " clip-rule="nonzero"/></clipPath></defs><path fill="#ffffff" d="M 158.621094 244.546875 C 159.054688 244.976562 159.4375 245.449219 159.777344 245.953125 C 160.117188 246.460938 160.402344 246.996094 160.636719 247.5625 C 160.871094 248.125 161.046875 248.703125 161.164062 249.304688 C 161.285156 249.902344 161.34375 250.503906 161.34375 251.117188 C 161.34375 251.726562 161.285156 252.328125 161.164062 252.925781 C 161.046875 253.527344 160.871094 254.105469 160.636719 254.671875 C 160.402344 255.234375 160.117188 255.769531 159.777344 256.277344 C 159.441406 256.785156 159.054688 257.253906 158.625 257.683594 C 158.191406 258.113281 157.722656 258.5 157.214844 258.839844 C 156.707031 259.179688 156.171875 259.464844 155.609375 259.699219 C 155.046875 259.929688 154.464844 260.105469 153.867188 260.226562 C 153.269531 260.34375 152.664062 260.40625 152.054688 260.40625 C 151.445312 260.40625 150.839844 260.34375 150.242188 260.226562 C 149.644531 260.105469 149.0625 259.929688 148.5 259.699219 C 147.9375 259.464844 147.402344 259.179688 146.894531 258.839844 C 146.386719 258.5 145.917969 258.117188 145.488281 257.683594 C 145.054688 257.253906 144.671875 256.785156 144.332031 256.277344 C 143.992188 255.769531 143.707031 255.234375 143.472656 254.671875 C 143.238281 254.105469 143.0625 253.527344 142.945312 252.929688 C 142.824219 252.328125 142.765625 251.726562 142.765625 251.117188 C 142.765625 250.503906 142.824219 249.902344 142.945312 249.304688 C 143.0625 248.707031 143.238281 248.125 143.472656 247.5625 C 143.707031 246.996094 143.992188 246.460938 144.332031 245.953125 C 144.667969 245.449219 145.054688 244.976562 145.484375 244.546875 C 145.917969 244.117188 146.386719 243.730469 146.894531 243.390625 C 147.402344 243.054688 147.9375 242.765625 148.5 242.535156 C 149.0625 242.300781 149.644531 242.125 150.242188 242.003906 C 150.839844 241.886719 151.445312 241.828125 152.054688 241.828125 C 152.664062 241.828125 153.269531 241.886719 153.867188 242.003906 C 154.464844 242.125 155.046875 242.300781 155.609375 242.535156 C 156.171875 242.765625 156.707031 243.054688 157.214844 243.390625 C 157.722656 243.730469 158.191406 244.117188 158.621094 244.546875 Z M 158.621094 244.546875 " fill-opacity="1" fill-rule="nonzero"/><g clip-path="url(#a3be65e2ab)"><path fill="#fffce3" d="M 270.117188 206.277344 C 278.871094 206.277344 285.964844 213.375 285.964844 222.128906 C 285.964844 230.878906 278.871094 237.976562 270.117188 237.976562 C 261.363281 237.976562 254.265625 230.878906 254.265625 222.128906 C 254.265625 213.375 261.363281 206.277344 270.117188 206.277344 Z M 270.117188 206.277344 " fill-opacity="1" fill-rule="evenodd"/></g><g clip-path="url(#8a037a5bf8)"><path fill="#e99189" d="M 329.363281 337.867188 L 329.363281 337.886719 C 329.34375 337.910156 329.328125 337.929688 329.308594 337.949219 C 327.214844 340.878906 324.839844 343.363281 322.1875 345.277344 C 310.570312 355.832031 302.683594 356.203125 302.679688 356.203125 C 289.636719 361.90625 273.503906 365.753906 266.75 355.4375 C 266.054688 354.378906 265.476562 353.203125 265.011719 351.929688 C 262.542969 358.179688 258.703125 364.703125 252.71875 369.660156 C 233.734375 370.328125 222.90625 361.671875 219.21875 358.046875 C 212.953125 359.078125 204.289062 360.246094 194.191406 360.90625 C 194.210938 361.21875 193.972656 361.480469 193.664062 361.496094 C 193.65625 361.5 193.644531 361.5 193.632812 361.5 C 193.339844 361.5 193.09375 361.269531 193.078125 360.972656 C 184.722656 361.484375 175.441406 361.636719 165.761719 361.078125 C 162.636719 364.613281 156.472656 371.359375 151.878906 374.957031 C 118.371094 375.730469 105.714844 352.4375 105.714844 352.4375 L 106.664062 346.019531 C 100.992188 342.957031 95.589844 339.347656 90.59375 335.078125 L 90.917969 330.886719 C 80.445312 339.839844 68.097656 345.832031 62.027344 340.996094 C 61.515625 340.585938 61.046875 340.101562 60.628906 339.53125 C 55.441406 333.917969 37.511719 312.628906 37.746094 286.621094 C 38.027344 256.226562 56.226562 219.734375 56.226562 219.734375 C 56.226562 219.734375 56.210938 219.769531 56.1875 219.824219 C 58.941406 213.644531 61.984375 207.699219 65.246094 202.335938 C 73.613281 188.570312 88.433594 173.523438 102.792969 162.226562 L 90.59375 155.203125 C 94.214844 135.960938 110.09375 128.992188 110.09375 128.992188 L 126.050781 142.808594 C 127.246094 141.84375 135.609375 135.527344 143.429688 141.347656 C 143.460938 141.308594 143.492188 141.261719 143.539062 141.230469 C 143.785156 141.046875 144.132812 141.097656 144.320312 141.34375 C 144.332031 141.359375 144.367188 141.414062 144.414062 141.480469 C 145.617188 141.085938 148.636719 140.367188 151.453125 141.75 C 156.855469 140.394531 172.699219 136.847656 174.8125 141.171875 L 175.554688 133.164062 L 176.230469 125.84375 L 176.3125 124.96875 C 175.597656 124.679688 174.898438 124.363281 174.210938 124.023438 C 167.125 120.511719 162.933594 114.597656 160.769531 103.867188 C 159.789062 104.144531 158.75 104.265625 157.679688 104.195312 C 152.597656 103.847656 148.761719 99.445312 149.101562 94.359375 C 149.375 90.402344 152.105469 87.210938 155.695312 86.148438 C 152.824219 79.128906 153.425781 73.242188 155.167969 68.699219 C 151.667969 67.257812 147.925781 65.644531 144.28125 63.945312 C 135.769531 60.15625 125.101562 55.226562 123.414062 53.585938 C 120.535156 50.796875 122.1875 47.355469 126.605469 43.222656 C 131.027344 39.097656 160.558594 14.441406 167.519531 11.894531 C 178.527344 4.550781 188.246094 -0.71875 191.898438 0.0742188 C 201.546875 2.175781 263.191406 30.933594 263.402344 34.082031 C 263.503906 35.59375 256.601562 44.105469 248.46875 52.679688 C 264.777344 67.398438 265.558594 78.753906 265.046875 83.222656 C 266.457031 83.671875 268.542969 84.789062 269.460938 87.546875 C 271.910156 94.921875 270.371094 103.242188 270.371094 103.242188 C 265.148438 107.441406 256.527344 102.535156 256.527344 102.535156 C 256.527344 102.535156 258.023438 98.449219 258.738281 92.539062 C 259.644531 85.082031 261.917969 83.683594 261.917969 83.683594 L 262.339844 83.5 C 263.667969 71.144531 255.175781 60.695312 247.355469 53.847656 C 242.488281 58.910156 237.285156 63.878906 232.925781 67.328125 C 235.789062 73.339844 234.351562 80.988281 232.695312 86.234375 C 236.722656 87.542969 239.515625 91.449219 239.210938 95.867188 C 238.855469 101.085938 234.347656 105.023438 229.140625 104.664062 C 228.171875 104.601562 227.246094 104.390625 226.386719 104.058594 C 224.460938 113.851562 220.863281 118.730469 214.730469 123.058594 C 213.632812 123.835938 212.46875 124.492188 211.246094 125.058594 L 213.519531 142.214844 C 213.558594 142.199219 229.898438 134.851562 249.378906 140.980469 C 249.378906 140.980469 273.054688 141.816406 290.605469 166.082031 C 308.152344 190.339844 333.503906 247.234375 339.078125 273.726562 C 343.542969 294.972656 340.300781 322.480469 329.363281 337.867188 " fill-opacity="1" fill-rule="nonzero"/></g><g clip-path="url(#a5a30d9cdb)"><path fill="#dc4d4e" d="M 155.101562 145.378906 C 155.128906 145.363281 155.148438 145.34375 155.179688 145.332031 C 155.472656 145.234375 155.789062 145.386719 155.886719 145.675781 C 155.894531 145.6875 155.90625 145.722656 155.917969 145.753906 C 157.453125 145.554688 161.785156 145.679688 163.585938 152.847656 C 163.886719 152.777344 164.1875 152.957031 164.261719 153.253906 C 164.265625 153.265625 164.269531 153.292969 164.28125 153.332031 C 165.578125 153.355469 168.792969 154.367188 170.027344 163.5 C 170.027344 163.5 170.027344 167.976562 168.878906 174.980469 L 170.363281 176.171875 C 171.984375 163.972656 173.40625 154.207031 174.242188 148.351562 C 174.339844 147.671875 174.429688 147.039062 174.511719 146.464844 C 174.835938 144.179688 175.027344 142.761719 175.042969 142.375 C 175.0625 141.917969 174.980469 141.519531 174.8125 141.171875 C 172.699219 136.847656 156.855469 140.394531 151.453125 141.75 C 152.785156 142.402344 154.070312 143.527344 155.101562 145.378906 Z M 160.238281 297.988281 C 160.238281 272.078125 162.765625 241.445312 165.734375 214.234375 L 158.21875 206.96875 C 157.640625 208.058594 157.042969 209.15625 156.40625 210.253906 C 144.09375 231.464844 128.410156 276.585938 118.382812 286 C 118.242188 286.128906 118.097656 286.25 117.953125 286.378906 C 117.839844 287.515625 117.730469 288.648438 117.617188 289.773438 C 117.617188 289.785156 117.617188 289.800781 117.617188 289.8125 L 118.113281 288.855469 L 112.726562 350.699219 C 126.703125 371.265625 151.878906 374.957031 151.878906 374.957031 C 156.472656 371.359375 162.636719 364.613281 165.761719 361.078125 C 166.996094 359.679688 167.757812 358.785156 167.757812 358.785156 C 167.757812 358.785156 160.238281 324.761719 160.238281 297.988281 Z M 267.355469 324.722656 C 264.355469 314.570312 261.835938 303.898438 259.722656 293.015625 L 250.210938 283.777344 C 246.402344 286.679688 241.945312 288.90625 236.84375 289.621094 L 216.585938 265.835938 L 213.304688 268.847656 C 213.164062 268.890625 213.035156 268.910156 212.898438 268.945312 C 213.5625 283.304688 214.449219 295.816406 215.402344 306.515625 C 215.355469 303.246094 215.339844 301.242188 215.339844 301.242188 C 216.089844 311.855469 221.800781 354.601562 221.800781 354.601562 C 235.5625 367.738281 250.683594 369.476562 252.53125 369.644531 C 252.558594 369.648438 252.582031 369.648438 252.605469 369.648438 C 252.621094 369.652344 252.648438 369.65625 252.664062 369.65625 C 252.699219 369.660156 252.71875 369.660156 252.71875 369.660156 C 258.703125 364.703125 262.542969 358.179688 265.011719 351.929688 C 269.210938 341.300781 269.433594 331.457031 269.433594 331.457031 C 268.714844 329.242188 268.023438 326.992188 267.355469 324.722656 Z M 213.257812 147.855469 C 213.125 150.78125 213 153.675781 212.886719 156.542969 C 212.136719 175.527344 211.777344 193.113281 211.707031 209.300781 L 213.304688 210.582031 C 221.433594 209.097656 238.507812 212.785156 247.84375 220.480469 C 245.113281 198.414062 240.480469 151.160156 249.378906 140.980469 C 229.898438 134.851562 213.558594 142.199219 213.519531 142.214844 C 213.519531 142.214844 213.515625 142.21875 213.515625 142.21875 C 213.425781 144.109375 213.339844 145.984375 213.257812 147.855469 Z M 243.664062 250.300781 L 253.113281 254.878906 C 248.945312 252.507812 245.480469 250.757812 243.664062 250.300781 Z M 226.535156 256.714844 L 225.523438 257.640625 C 229.375 254.589844 233.945312 251.605469 238.164062 250.484375 C 232.242188 251.96875 226.535156 256.714844 226.535156 256.714844 Z M 182.554688 98.414062 C 182.589844 94.640625 180.382812 91.375 177.183594 89.863281 C 176.671875 90.753906 175.945312 91.308594 175.140625 91.300781 C 174.105469 91.289062 173.210938 90.355469 172.753906 88.984375 C 167.839844 89.21875 163.90625 93.246094 163.859375 98.230469 C 163.808594 103.398438 167.949219 107.632812 173.113281 107.675781 C 178.277344 107.730469 182.503906 103.582031 182.554688 98.414062 Z M 209.390625 90.519531 C 209.8125 90.988281 210.324219 91.261719 210.878906 91.265625 C 211.882812 91.28125 212.769531 90.390625 213.242188 89.066406 C 213.695312 89.003906 214.160156 88.960938 214.632812 88.964844 C 219.796875 89.019531 223.945312 93.242188 223.898438 98.40625 C 223.839844 103.582031 219.617188 107.726562 214.457031 107.675781 C 209.292969 107.628906 205.148438 103.398438 205.199219 98.230469 C 205.230469 95.007812 206.890625 92.175781 209.390625 90.519531 " fill-opacity="1" fill-rule="nonzero"/></g><path fill="#cdeaec" d="M 266.75 261.484375 L 253.113281 254.878906 L 243.664062 250.300781 C 241.980469 249.839844 240.109375 249.964844 238.164062 250.484375 C 233.945312 251.605469 229.375 254.589844 225.523438 257.640625 C 220.417969 261.691406 216.585938 265.835938 216.585938 265.835938 L 236.84375 289.621094 C 241.945312 288.90625 246.402344 286.679688 250.210938 283.777344 C 261.167969 275.433594 266.75 261.484375 266.75 261.484375 Z M 119.605469 171.910156 L 120.027344 172.152344 L 120.964844 172.695312 C 120.964844 172.695312 121.183594 172.628906 121.550781 172.476562 C 122.339844 172.144531 123.84375 171.390625 125.589844 169.902344 C 129 166.996094 133.316406 161.296875 134.898438 150.472656 L 133.550781 149.300781 L 132.792969 148.648438 L 126.050781 142.808594 L 110.09375 128.992188 C 110.09375 128.992188 94.214844 135.960938 90.59375 155.203125 L 102.792969 162.226562 L 112.070312 167.570312 Z M 212.699219 210.699219 C 212.894531 210.65625 213.101562 210.617188 213.304688 210.582031 L 211.707031 209.300781 L 192.722656 194.085938 L 191.699219 193.265625 L 170.363281 176.171875 L 168.878906 174.980469 C 167.53125 183.207031 164.59375 194.921875 158.21875 206.96875 L 165.734375 214.234375 L 185.609375 233.457031 L 188.15625 230.222656 C 196.574219 219.34375 205.363281 212.375 212.699219 210.699219 Z M 193.15625 184.648438 C 193.285156 184.421875 193.550781 184.300781 193.804688 184.386719 C 194.097656 184.480469 194.261719 184.796875 194.164062 185.089844 C 194.164062 185.089844 194.160156 185.101562 194.15625 185.125 C 194.765625 185.316406 195.351562 185.304688 195.894531 185.042969 C 200.644531 182.753906 208.066406 167.476562 212.886719 156.542969 C 213 153.675781 213.125 150.78125 213.257812 147.855469 C 200.121094 151.613281 181.480469 148.050781 174.511719 146.464844 C 174.429688 147.039062 174.339844 147.671875 174.242188 148.351562 C 177.414062 156.886719 186.65625 180.550781 193.15625 184.648438 Z M 247.355469 53.847656 C 247.726562 53.457031 248.097656 53.070312 248.46875 52.679688 C 264.777344 67.398438 265.558594 78.753906 265.046875 83.222656 C 266.457031 83.671875 268.542969 84.789062 269.460938 87.546875 C 271.910156 94.921875 270.371094 103.242188 270.371094 103.242188 C 265.148438 107.441406 256.527344 102.535156 256.527344 102.535156 C 256.527344 102.535156 258.023438 98.449219 258.738281 92.539062 C 259.644531 85.082031 261.917969 83.683594 261.917969 83.683594 L 262.339844 83.5 C 263.667969 71.144531 255.175781 60.695312 247.355469 53.847656 " fill-opacity="1" fill-rule="nonzero"/><g clip-path="url(#442fa26ad6)"><path fill="#304850" d="M 188.539062 105.460938 C 188.328125 105.683594 188.328125 106.035156 188.550781 106.246094 C 188.644531 106.339844 190.78125 108.386719 193.730469 108.386719 C 193.855469 108.386719 193.980469 108.378906 194.105469 108.375 C 196.167969 108.25 198.070312 107.132812 199.761719 105.039062 C 199.957031 104.800781 199.917969 104.449219 199.675781 104.253906 C 199.445312 104.058594 199.085938 104.09375 198.894531 104.335938 C 197.410156 106.167969 195.78125 107.148438 194.050781 107.253906 C 191.421875 107.417969 189.351562 105.464844 189.328125 105.449219 C 189.109375 105.234375 188.753906 105.238281 188.539062 105.460938 Z M 329.363281 337.867188 C 340.300781 322.480469 343.542969 294.972656 339.078125 273.726562 C 333.503906 247.234375 308.152344 190.339844 290.605469 166.082031 C 273.054688 141.816406 249.378906 140.980469 249.378906 140.980469 C 240.480469 151.160156 245.113281 198.414062 247.84375 220.480469 C 248.28125 220.839844 248.703125 221.203125 249.101562 221.578125 C 250.21875 222.628906 251.984375 224.339844 254.214844 226.527344 L 252.164062 206.953125 C 252.128906 206.644531 252.355469 206.371094 252.664062 206.339844 C 252.957031 206.304688 253.242188 206.527344 253.273438 206.839844 L 255.394531 227.082031 C 255.414062 227.253906 255.347656 227.414062 255.234375 227.527344 C 271.921875 243.941406 310.660156 282.929688 310.660156 282.929688 L 315.476562 287.171875 C 320.90625 287.316406 329.25 289.9375 331.277344 304.125 C 332.183594 310.488281 331.542969 316.824219 330.203125 322.59375 C 329.910156 323.613281 323.9375 343.703125 302.679688 356.203125 C 302.683594 356.203125 310.570312 355.832031 322.1875 345.277344 C 324.839844 343.363281 327.214844 340.878906 329.308594 337.949219 C 329.328125 337.929688 329.34375 337.910156 329.363281 337.886719 Z M 119.605469 171.910156 C 119.617188 171.917969 119.769531 172.03125 120.027344 172.152344 Z M 125.589844 169.902344 C 123.84375 171.390625 122.339844 172.144531 121.550781 172.476562 C 122.632812 172.449219 124.066406 171.890625 125.589844 169.902344 Z M 132.792969 148.648438 L 133.550781 149.300781 C 133.289062 149.042969 133.039062 148.832031 132.792969 148.648438 Z M 58.28125 329.78125 C 58.28125 329.78125 62.707031 303.472656 80.105469 284.839844 C 76.152344 275.535156 77.65625 259.117188 84.746094 248.558594 C 84.746094 248.558594 109.398438 204.636719 110.859375 199.617188 C 112.324219 194.59375 108.328125 171.820312 110 166.378906 L 112.070312 167.570312 L 102.792969 162.226562 C 88.433594 173.523438 73.613281 188.570312 65.246094 202.335938 C 61.984375 207.699219 58.941406 213.644531 56.1875 219.824219 C 55.175781 222.105469 33.15625 273.027344 58.28125 329.78125 Z M 157.730469 99.40625 C 157.726562 99.410156 156.945312 99.519531 156.640625 99.101562 C 156.476562 98.878906 156.207031 98.128906 157.253906 96.015625 C 158.035156 94.445312 158.140625 93.050781 157.570312 91.878906 C 156.617188 89.910156 154.125 89.367188 154.015625 89.347656 C 153.71875 89.285156 153.417969 89.476562 153.355469 89.777344 C 153.292969 90.078125 153.488281 90.378906 153.785156 90.4375 C 153.808594 90.445312 155.859375 90.898438 156.566406 92.371094 C 156.976562 93.214844 156.871094 94.277344 156.253906 95.519531 C 155.265625 97.511719 155.101562 98.902344 155.746094 99.773438 C 156.230469 100.429688 157.023438 100.539062 157.503906 100.539062 C 157.738281 100.539062 157.898438 100.515625 157.914062 100.511719 C 158.21875 100.460938 158.421875 100.171875 158.371094 99.871094 C 158.320312 99.566406 158.03125 99.363281 157.730469 99.40625 Z M 175.140625 91.300781 C 175.945312 91.308594 176.671875 90.753906 177.183594 89.863281 C 177.636719 89.078125 177.917969 88.035156 177.929688 86.886719 C 177.953125 84.996094 177.238281 83.382812 176.21875 82.726562 C 176.816406 82.542969 177.265625 82.496094 177.277344 82.492188 C 177.585938 82.464844 177.8125 82.1875 177.78125 81.882812 C 177.75 81.578125 177.464844 81.351562 177.171875 81.378906 C 177.046875 81.390625 174.152344 81.691406 172.738281 83.84375 C 172.585938 84.078125 172.636719 84.378906 172.839844 84.5625 C 172.589844 85.222656 172.4375 86 172.429688 86.832031 C 172.421875 87.613281 172.542969 88.347656 172.753906 88.984375 C 173.210938 90.355469 174.105469 91.289062 175.140625 91.300781 Z M 231.445312 91.328125 C 230.585938 92.3125 230.324219 93.683594 230.664062 95.402344 C 231.125 97.71875 230.667969 98.371094 230.449219 98.546875 C 230.046875 98.863281 229.324219 98.554688 229.324219 98.554688 C 229.042969 98.421875 228.707031 98.546875 228.578125 98.828125 C 228.449219 99.109375 228.570312 99.4375 228.851562 99.566406 C 228.882812 99.582031 229.378906 99.808594 229.972656 99.808594 C 230.347656 99.808594 230.769531 99.714844 231.140625 99.425781 C 231.992188 98.757812 232.191406 97.367188 231.761719 95.183594 C 231.492188 93.824219 231.667969 92.773438 232.285156 92.066406 C 233.351562 90.832031 235.453125 90.929688 235.46875 90.929688 C 235.8125 90.957031 236.042969 90.710938 236.058594 90.402344 C 236.078125 90.097656 235.84375 89.832031 235.535156 89.816406 C 235.425781 89.804688 232.878906 89.675781 231.445312 91.328125 Z M 213.242188 89.066406 C 213.460938 88.445312 213.59375 87.730469 213.597656 86.96875 C 213.621094 85.132812 212.925781 83.558594 211.933594 82.917969 C 212.207031 82.855469 212.394531 82.835938 212.402344 82.832031 C 212.710938 82.808594 212.9375 82.539062 212.914062 82.230469 C 212.886719 81.921875 212.621094 81.695312 212.3125 81.71875 C 212.195312 81.730469 209.40625 81.976562 208.53125 84.296875 C 208.464844 84.476562 208.503906 84.660156 208.601562 84.804688 C 208.378906 85.429688 208.246094 86.148438 208.238281 86.921875 C 208.226562 88.414062 208.683594 89.734375 209.390625 90.519531 C 209.8125 90.988281 210.324219 91.261719 210.878906 91.265625 C 211.882812 91.28125 212.769531 90.390625 213.242188 89.066406 Z M 187.992188 81.339844 C 187.746094 81.15625 187.394531 81.210938 187.210938 81.460938 C 187.03125 81.707031 187.082031 82.058594 187.332031 82.242188 C 187.359375 82.261719 190.035156 84.269531 190.242188 86.808594 C 190.34375 88.015625 189.855469 89.183594 188.800781 90.273438 C 186.367188 92.777344 186.480469 94.695312 187.007812 95.863281 C 187.722656 97.457031 189.546875 98.363281 190.960938 98.363281 C 191.015625 98.363281 191.066406 98.359375 191.117188 98.359375 C 191.429688 98.347656 191.664062 98.082031 191.648438 97.773438 C 191.632812 97.464844 191.398438 97.226562 191.0625 97.242188 C 190.1875 97.292969 188.59375 96.671875 188.027344 95.402344 C 187.476562 94.183594 188.023438 92.675781 189.601562 91.050781 C 190.894531 89.71875 191.488281 88.257812 191.355469 86.710938 C 191.101562 83.660156 188.117188 81.433594 187.992188 81.339844 Z M 195.894531 185.042969 C 195.351562 185.304688 194.765625 185.316406 194.15625 185.125 C 194.066406 185.429688 193.429688 187.800781 192.722656 194.085938 L 211.707031 209.300781 C 211.777344 193.113281 212.136719 175.527344 212.886719 156.542969 C 208.066406 167.476562 200.644531 182.753906 195.894531 185.042969 Z M 191.699219 193.265625 C 192.4375 186.964844 193.082031 184.816406 193.101562 184.742188 C 193.113281 184.707031 193.136719 184.679688 193.15625 184.648438 C 186.65625 180.550781 177.414062 156.886719 174.242188 148.351562 C 173.40625 154.207031 171.984375 163.972656 170.363281 176.171875 Z M 189.515625 259.828125 C 186.25 257.777344 185.601562 253.261719 185.476562 251.691406 C 185.46875 251.691406 185.457031 251.699219 185.445312 251.699219 C 185.316406 251.699219 185.183594 251.652344 185.078125 251.558594 C 184.917969 251.417969 184.863281 251.207031 184.90625 251.011719 C 177.332031 249.097656 179.378906 241.378906 179.378906 241.378906 L 185.609375 233.457031 L 165.734375 214.234375 C 162.765625 241.445312 160.238281 272.078125 160.238281 297.988281 C 160.238281 324.761719 167.757812 358.785156 167.757812 358.785156 C 167.757812 358.785156 166.996094 359.679688 165.761719 361.078125 C 175.441406 361.636719 184.722656 361.484375 193.078125 360.972656 C 193.078125 360.972656 193.074219 360.972656 193.074219 360.96875 C 190.730469 317.769531 189.738281 284.832031 189.515625 259.828125 Z M 217.773438 356.480469 C 216.140625 345.554688 215.574219 318.089844 215.402344 306.515625 C 214.449219 295.816406 213.5625 283.304688 212.898438 268.945312 C 207.464844 270.367188 205.089844 267.472656 204.367188 266.269531 C 204.285156 266.3125 204.199219 266.339844 204.109375 266.339844 C 203.988281 266.339844 203.867188 266.300781 203.765625 266.21875 C 203.667969 266.144531 203.613281 266.042969 203.585938 265.933594 C 198.34375 267.339844 195.726562 262.828125 195 261.269531 C 194.929688 261.296875 194.855469 261.320312 194.777344 261.320312 C 194.65625 261.320312 194.53125 261.28125 194.429688 261.199219 C 194.308594 261.097656 194.238281 260.960938 194.222656 260.816406 C 192.8125 260.933594 191.628906 260.761719 190.636719 260.382812 C 190.871094 285.285156 191.859375 318.03125 194.191406 360.90625 C 204.289062 360.246094 212.953125 359.078125 219.21875 358.046875 C 218.25 357.09375 217.773438 356.480469 217.773438 356.480469 Z M 117.617188 289.8125 C 117.617188 289.800781 117.617188 289.785156 117.617188 289.773438 C 117.605469 289.808594 117.597656 289.839844 117.582031 289.875 Z M 105.4375 314.230469 C 102.199219 319.777344 96.859375 325.808594 90.917969 330.886719 L 90.59375 335.078125 C 95.589844 339.347656 100.992188 342.957031 106.664062 346.019531 L 113.578125 299.214844 C 111.363281 303.769531 108.644531 308.742188 105.4375 314.230469 Z M 227.820312 32.738281 C 227.746094 35.582031 227.214844 54.796875 226.089844 58 C 225.988281 58.292969 226.144531 58.613281 226.433594 58.714844 C 226.496094 58.738281 226.558594 58.746094 226.617188 58.746094 C 226.847656 58.746094 227.066406 58.601562 227.144531 58.371094 C 228.414062 54.761719 228.925781 33.328125 228.945312 32.417969 C 228.949219 32.203125 228.832031 32.003906 228.644531 31.902344 C 187.761719 10.699219 159.136719 34.226562 158.847656 34.46875 C 158.613281 34.667969 158.585938 35.019531 158.78125 35.253906 C 158.984375 35.492188 159.335938 35.523438 159.570312 35.324219 C 159.847656 35.089844 187.765625 12.152344 227.820312 32.738281 Z M 194.023438 65.277344 L 224.238281 59.085938 C 224.539062 59.027344 224.738281 58.730469 224.675781 58.425781 C 224.609375 58.125 224.320312 57.929688 224.015625 57.988281 L 193.859375 64.175781 C 191.359375 64.410156 173.210938 61.152344 163.964844 59.394531 C 163.65625 59.335938 163.367188 59.535156 163.308594 59.839844 C 163.253906 60.144531 163.453125 60.4375 163.753906 60.496094 C 164.816406 60.695312 189.074219 65.292969 193.640625 65.292969 C 193.789062 65.292969 193.917969 65.289062 194.023438 65.277344 Z M 155.695312 86.148438 C 152.824219 79.128906 153.425781 73.242188 155.167969 68.699219 C 151.667969 67.257812 147.925781 65.644531 144.28125 63.945312 C 150.253906 66.601562 155.167969 68.699219 155.167969 68.699219 C 156.042969 65.855469 161.492188 59.390625 161.492188 59.390625 L 158.300781 35.550781 C 152.082031 22.800781 167.523438 11.894531 167.523438 11.894531 C 167.523438 11.894531 167.519531 11.894531 167.519531 11.894531 C 178.527344 4.550781 188.246094 -0.71875 191.898438 0.0742188 C 201.546875 2.175781 263.191406 30.933594 263.402344 34.082031 C 263.503906 35.59375 256.601562 44.105469 248.46875 52.679688 C 248.097656 53.070312 247.726562 53.457031 247.355469 53.847656 C 242.488281 58.910156 237.285156 63.878906 232.925781 67.328125 C 235.789062 73.339844 234.351562 80.988281 232.695312 86.234375 C 231.972656 85.996094 231.214844 85.839844 230.421875 85.785156 C 229.8125 85.742188 229.21875 85.761719 228.632812 85.835938 L 227.164062 91.300781 L 224.109375 92.792969 L 223.324219 88.324219 C 220.113281 86.734375 220.328125 80.265625 220.328125 80.265625 C 206.570312 83.203125 193.914062 70.1875 193.914062 70.1875 C 193.914062 74.59375 200.324219 77.113281 200.324219 77.113281 C 191.976562 78.265625 183.242188 69.824219 178.585938 64.417969 C 177.503906 67.199219 174.820312 73.015625 170.195312 76.589844 C 170.195312 76.589844 170.65625 82.277344 165.414062 83.386719 L 161.117188 90.367188 L 158.300781 88.324219 C 158.300781 88.324219 158.152344 87.351562 158.011719 85.769531 C 157.210938 85.792969 156.4375 85.929688 155.695312 86.148438 Z M 259.722656 293.015625 L 276.34375 309.167969 C 272.492188 314.085938 269.484375 319.414062 267.355469 324.722656 C 264.355469 314.570312 261.835938 303.898438 259.722656 293.015625 " fill-opacity="1" fill-rule="nonzero"/></g><g clip-path="url(#92c5e30147)"><path fill="#100f0d" d="M 224.238281 59.085938 C 224.539062 59.027344 224.738281 58.730469 224.675781 58.425781 C 224.609375 58.125 224.320312 57.929688 224.015625 57.988281 L 193.859375 64.175781 C 191.359375 64.410156 173.210938 61.152344 163.964844 59.394531 C 163.65625 59.335938 163.367188 59.535156 163.308594 59.839844 C 163.253906 60.144531 163.453125 60.4375 163.753906 60.496094 C 164.816406 60.695312 189.074219 65.292969 193.640625 65.292969 C 193.789062 65.292969 193.917969 65.289062 194.023438 65.277344 Z M 227.820312 32.738281 C 227.746094 35.582031 227.214844 54.796875 226.089844 58 C 225.988281 58.292969 226.144531 58.613281 226.433594 58.714844 C 226.496094 58.738281 226.558594 58.746094 226.617188 58.746094 C 226.847656 58.746094 227.066406 58.601562 227.144531 58.371094 C 228.414062 54.761719 228.925781 33.328125 228.945312 32.417969 C 228.949219 32.203125 228.832031 32.003906 228.644531 31.902344 C 187.761719 10.699219 159.136719 34.226562 158.847656 34.46875 C 158.613281 34.667969 158.585938 35.019531 158.78125 35.253906 C 158.984375 35.492188 159.335938 35.523438 159.570312 35.324219 C 159.847656 35.089844 187.765625 12.152344 227.820312 32.738281 Z M 161.492188 59.390625 L 158.300781 35.550781 C 152.082031 22.800781 167.523438 11.894531 167.523438 11.894531 C 167.523438 11.894531 167.519531 11.894531 167.519531 11.894531 C 160.558594 14.441406 131.027344 39.097656 126.605469 43.222656 C 122.1875 47.355469 120.535156 50.796875 123.414062 53.585938 C 125.101562 55.226562 135.769531 60.15625 144.28125 63.945312 C 150.253906 66.601562 155.167969 68.699219 155.167969 68.699219 C 156.042969 65.855469 161.492188 59.390625 161.492188 59.390625 Z M 209.964844 127.246094 C 209.964844 127.246094 189.644531 134.347656 176.230469 125.84375 L 175.554688 133.164062 L 175.394531 134.890625 C 175.394531 134.890625 194.460938 139.929688 209.964844 127.246094 Z M 254.835938 227.699219 C 254.859375 227.699219 254.878906 227.699219 254.894531 227.699219 C 255.03125 227.683594 255.144531 227.617188 255.234375 227.527344 C 255.347656 227.414062 255.414062 227.253906 255.394531 227.082031 L 253.273438 206.839844 C 253.242188 206.527344 252.957031 206.304688 252.664062 206.339844 C 252.355469 206.371094 252.128906 206.644531 252.164062 206.953125 L 254.214844 226.527344 L 254.285156 227.199219 C 254.3125 227.488281 254.558594 227.699219 254.835938 227.699219 Z M 252.605469 369.648438 C 252.582031 369.648438 252.5625 369.648438 252.53125 369.644531 C 250.683594 369.476562 235.5625 367.738281 221.800781 354.601562 C 221.800781 354.601562 216.089844 311.855469 215.339844 301.242188 C 215.339844 301.242188 215.355469 303.246094 215.402344 306.515625 C 215.574219 318.089844 216.140625 345.554688 217.773438 356.480469 C 217.773438 356.480469 218.25 357.09375 219.21875 358.046875 C 222.90625 361.671875 233.734375 370.328125 252.71875 369.660156 C 252.71875 369.660156 252.699219 369.660156 252.664062 369.65625 C 252.648438 369.65625 252.621094 369.652344 252.605469 369.648438 Z M 112.726562 350.699219 L 118.113281 288.855469 L 117.617188 289.8125 L 117.582031 289.875 C 117.597656 289.839844 117.605469 289.808594 117.617188 289.773438 C 117.730469 288.648438 117.839844 287.515625 117.953125 286.378906 C 107.863281 295.433594 90.699219 296.5 83.28125 289.621094 C 81.984375 288.421875 80.929688 286.78125 80.105469 284.839844 C 62.707031 303.472656 58.28125 329.78125 58.28125 329.78125 C 33.15625 273.027344 55.175781 222.105469 56.1875 219.824219 C 56.210938 219.769531 56.226562 219.734375 56.226562 219.734375 C 56.226562 219.734375 38.027344 256.226562 37.746094 286.621094 C 37.511719 312.628906 55.441406 333.917969 60.628906 339.53125 C 61.046875 340.101562 61.515625 340.585938 62.027344 340.996094 C 68.097656 345.832031 80.445312 339.839844 90.917969 330.886719 C 96.859375 325.808594 102.199219 319.777344 105.4375 314.230469 C 108.644531 308.742188 111.363281 303.769531 113.578125 299.214844 L 106.664062 346.019531 L 105.714844 352.4375 C 105.714844 352.4375 118.371094 375.730469 151.878906 374.957031 C 151.878906 374.957031 126.703125 371.265625 112.726562 350.699219 Z M 217.722656 249.320312 C 217.910156 249.078125 217.867188 248.726562 217.625 248.535156 C 217.382812 248.347656 217.03125 248.386719 216.839844 248.628906 L 203.667969 265.433594 C 203.554688 265.582031 203.535156 265.765625 203.585938 265.933594 C 203.613281 266.042969 203.667969 266.144531 203.765625 266.21875 C 203.867188 266.300781 203.988281 266.339844 204.109375 266.339844 C 204.199219 266.339844 204.285156 266.3125 204.367188 266.269531 C 204.4375 266.234375 204.5 266.1875 204.550781 266.125 Z M 210.199219 242.179688 C 210.390625 241.9375 210.351562 241.582031 210.109375 241.390625 C 209.867188 241.199219 209.515625 241.238281 209.324219 241.480469 L 194.339844 260.414062 C 194.246094 260.53125 194.210938 260.675781 194.222656 260.816406 C 194.238281 260.960938 194.308594 261.097656 194.429688 261.199219 C 194.53125 261.28125 194.65625 261.320312 194.777344 261.320312 C 194.855469 261.320312 194.929688 261.296875 195 261.269531 C 195.082031 261.234375 195.15625 261.179688 195.214844 261.109375 Z M 202.242188 232.890625 C 202.445312 232.65625 202.421875 232.304688 202.191406 232.101562 C 201.960938 231.894531 201.605469 231.917969 201.402344 232.152344 L 185.023438 250.769531 C 184.964844 250.839844 184.929688 250.925781 184.90625 251.011719 C 184.863281 251.207031 184.917969 251.417969 185.078125 251.558594 C 185.183594 251.652344 185.316406 251.699219 185.445312 251.699219 C 185.457031 251.699219 185.46875 251.691406 185.476562 251.691406 C 185.621094 251.683594 185.761719 251.625 185.863281 251.507812 Z M 163.585938 152.847656 C 163.585938 152.847656 163.582031 152.847656 163.582031 152.847656 C 163.285156 152.921875 163.101562 153.226562 163.175781 153.527344 C 163.183594 153.566406 164.164062 157.574219 163.171875 161.980469 C 163.105469 162.285156 163.296875 162.582031 163.59375 162.648438 C 163.640625 162.660156 163.679688 162.664062 163.71875 162.664062 C 163.976562 162.664062 164.207031 162.484375 164.265625 162.226562 C 165.25 157.839844 164.421875 153.945312 164.28125 153.332031 C 164.269531 153.292969 164.265625 153.265625 164.261719 153.253906 C 164.1875 152.957031 163.886719 152.777344 163.585938 152.847656 Z M 155.179688 145.332031 C 155.148438 145.34375 155.128906 145.363281 155.101562 145.378906 C 154.867188 145.507812 154.742188 145.785156 154.835938 146.046875 C 154.855469 146.101562 156.714844 151.539062 154.960938 156.25 C 154.851562 156.539062 154.996094 156.859375 155.285156 156.964844 C 155.351562 156.992188 155.414062 157.003906 155.484375 157.003906 C 155.707031 157.003906 155.921875 156.863281 156.003906 156.636719 C 157.816406 151.785156 156.148438 146.453125 155.917969 145.753906 C 155.90625 145.722656 155.894531 145.6875 155.886719 145.675781 C 155.789062 145.386719 155.472656 145.234375 155.179688 145.332031 Z M 143.421875 142.011719 C 143.457031 142.0625 147.144531 147.128906 145.359375 154.085938 C 145.277344 154.386719 145.460938 154.691406 145.761719 154.769531 C 145.804688 154.777344 145.851562 154.785156 145.898438 154.785156 C 146.148438 154.785156 146.375 154.617188 146.441406 154.363281 C 148.226562 147.417969 145.023438 142.363281 144.414062 141.480469 C 144.367188 141.414062 144.332031 141.359375 144.320312 141.34375 C 144.132812 141.097656 143.785156 141.046875 143.539062 141.230469 C 143.492188 141.261719 143.460938 141.308594 143.429688 141.347656 C 143.285156 141.542969 143.269531 141.8125 143.421875 142.011719 Z M 189.515625 259.828125 C 189.738281 284.832031 190.730469 317.769531 193.074219 360.96875 C 193.074219 360.972656 193.078125 360.972656 193.078125 360.972656 C 193.09375 361.269531 193.339844 361.5 193.632812 361.5 C 193.644531 361.5 193.65625 361.5 193.664062 361.496094 C 193.972656 361.480469 194.210938 361.21875 194.191406 360.90625 C 191.859375 318.03125 190.871094 285.285156 190.636719 260.382812 C 190.230469 260.230469 189.855469 260.042969 189.515625 259.828125 Z M 194.164062 185.089844 C 194.261719 184.796875 194.097656 184.480469 193.804688 184.386719 C 193.550781 184.300781 193.285156 184.421875 193.15625 184.648438 C 193.136719 184.679688 193.113281 184.707031 193.101562 184.742188 C 193.082031 184.816406 192.4375 186.964844 191.699219 193.265625 L 192.722656 194.085938 C 193.429688 187.800781 194.066406 185.429688 194.15625 185.125 C 194.160156 185.101562 194.164062 185.089844 194.164062 185.089844 Z M 302.679688 356.203125 C 289.636719 361.90625 273.503906 365.753906 266.75 355.4375 C 266.054688 354.378906 265.476562 353.203125 265.011719 351.929688 C 269.210938 341.300781 269.433594 331.457031 269.433594 331.457031 C 268.714844 329.242188 268.023438 326.992188 267.355469 324.722656 C 269.484375 319.414062 272.492188 314.085938 276.34375 309.167969 L 286.230469 318.765625 C 318.34375 322.039062 318.261719 289.621094 318.261719 289.621094 L 315.476562 287.171875 C 320.90625 287.316406 329.25 289.9375 331.277344 304.125 C 332.183594 310.488281 331.542969 316.824219 330.203125 322.59375 C 329.910156 323.613281 323.9375 343.703125 302.679688 356.203125 " fill-opacity="1" fill-rule="nonzero"/></g></svg>