<svg xmlns="http://www.w3.org/2000/svg" xmlns:xlink="http://www.w3.org/1999/xlink" width="500" zoomAndPan="magnify" viewBox="0 0 375 374.999991" height="500" preserveAspectRatio="xMidYMid meet" version="1.0"><defs><clipPath id="97ee7e8197"><path d="M 18.75 107 L 157 107 L 157 250 L 18.75 250 Z M 18.75 107 " clip-rule="nonzero"/></clipPath></defs><path fill="#ffffff" d="M 158.621094 244.546875 C 159.054688 244.976562 159.4375 245.449219 159.777344 245.953125 C 160.117188 246.460938 160.402344 246.996094 160.636719 247.5625 C 160.871094 248.125 161.046875 248.703125 161.164062 249.304688 C 161.285156 249.902344 161.34375 250.503906 161.34375 251.117188 C 161.34375 251.726562 161.285156 252.328125 161.164062 252.925781 C 161.046875 253.527344 160.871094 254.105469 160.636719 254.671875 C 160.402344 255.234375 160.117188 255.769531 159.777344 256.277344 C 159.441406 256.785156 159.054688 257.253906 158.625 257.683594 C 158.191406 258.113281 157.722656 258.5 157.214844 258.839844 C 156.707031 259.179688 156.171875 259.464844 155.609375 259.699219 C 155.046875 259.929688 154.464844 260.105469 153.867188 260.226562 C 153.269531 260.34375 152.664062 260.40625 152.054688 260.40625 C 151.445312 260.40625 150.839844 260.34375 150.242188 260.226562 C 149.644531 260.105469 149.0625 259.929688 148.5 259.699219 C 147.9375 259.464844 147.402344 259.179688 146.894531 258.839844 C 146.386719 258.5 145.917969 258.117188 145.488281 257.683594 C 145.054688 257.253906 144.671875 256.785156 144.332031 256.277344 C 143.992188 255.769531 143.707031 255.234375 143.472656 254.671875 C 143.238281 254.105469 143.0625 253.527344 142.945312 252.929688 C 142.824219 252.328125 142.765625 251.726562 142.765625 251.117188 C 142.765625 250.503906 142.824219 249.902344 142.945312 249.304688 C 143.0625 248.707031 143.238281 248.125 143.472656 247.5625 C 143.707031 246.996094 143.992188 246.460938 144.332031 245.953125 C 144.667969 245.449219 145.054688 244.976562 145.484375 244.546875 C 145.917969 244.117188 146.386719 243.730469 146.894531 243.390625 C 147.402344 243.054688 147.9375 242.765625 148.5 242.535156 C 149.0625 242.300781 149.644531 242.125 150.242188 242.003906 C 150.839844 241.886719 151.445312 241.828125 152.054688 241.828125 C 152.664062 241.828125 153.269531 241.886719 153.867188 242.003906 C 154.464844 242.125 155.046875 242.300781 155.609375 242.535156 C 156.171875 242.765625 156.707031 243.054688 157.214844 243.390625 C 157.722656 243.730469 158.191406 244.117188 158.621094 244.546875 Z M 158.621094 244.546875 " fill-opacity="1" fill-rule="nonzero"/><path fill="#e97584" d="M 193.707031 189.070312 C 193.707031 189.070312 185.589844 214.03125 162.179688 235.722656 C 162.179688 235.722656 127.628906 249.824219 122.085938 229.683594 C 122.085938 229.683594 133.53125 203.214844 138.621094 191.058594 C 162.351562 134.371094 193.707031 189.070312 193.707031 189.070312 " fill-opacity="1" fill-rule="nonzero"/><path fill="#3871c1" d="M 197.410156 105.730469 C 163.707031 110.847656 157.585938 148.847656 157.585938 148.847656 C 151.945312 162.8125 147.300781 172.847656 143.742188 180.300781 C 153.082031 177.71875 163.25 177.988281 172.167969 181.789062 C 179.898438 185.078125 187.976562 190.8125 191.71875 198.625 C 193.074219 197.023438 194.144531 195.261719 194.832031 193.277344 L 187.804688 176.132812 C 187.804688 176.132812 241.847656 98.988281 197.410156 105.730469 " fill-opacity="1" fill-rule="nonzero"/><path fill="#e97584" d="M 162.027344 216.839844 C 161.382812 216.820312 149.054688 212.386719 149.054688 212.386719 C 149.054688 212.386719 133.746094 196.675781 112.71875 189.722656 C 89.695312 182.113281 82.492188 161.207031 82.929688 154.746094 C 82.929688 154.746094 77.710938 149.144531 73.496094 149 C 72.160156 151.375 70.867188 153.824219 70.492188 156.546875 C 70.058594 159.734375 70.523438 162.945312 70.703125 166.136719 C 70.777344 167.554688 68.945312 170.515625 67.847656 170.398438 C 68.121094 172.695312 76.152344 188.6875 77.496094 190.714844 C 88.359375 207.148438 97.925781 231.152344 136.839844 244.148438 C 136.839844 244.148438 148.253906 240.804688 160.261719 236.582031 C 172.28125 232.359375 162.675781 216.859375 162.027344 216.839844 " fill-opacity="1" fill-rule="nonzero"/><path fill="#f79490" d="M 124.941406 220.816406 C 96.832031 209.347656 90.894531 198.625 90.894531 198.625 C 79.285156 181.101562 77.183594 169.503906 77.183594 169.503906 L 70.695312 166.023438 C 70.695312 166.0625 70.699219 166.082031 70.703125 166.136719 C 70.777344 167.554688 68.945312 170.515625 67.847656 170.398438 C 68.121094 172.695312 76.152344 188.6875 77.496094 190.714844 C 88.359375 207.148438 97.925781 231.152344 136.839844 244.148438 C 136.839844 244.148438 137.894531 243.84375 139.6875 243.289062 C 147.417969 239.773438 132.648438 223.949219 124.941406 220.816406 " fill-opacity="1" fill-rule="nonzero"/><path fill="#e97584" d="M 105.289062 264.75 C 105.289062 264.75 102.628906 264.882812 101.769531 265.035156 C 100.910156 265.171875 81.320312 261.519531 70.585938 263.164062 C 70.585938 263.164062 66.574219 263.203125 67.414062 266.71875 C 67.414062 266.71875 75.738281 267.3125 78.3125 268.246094 C 80.890625 269.183594 101.191406 272.71875 103.914062 276.789062 C 106.636719 280.859375 108.828125 272.605469 105.289062 264.75 " fill-opacity="1" fill-rule="nonzero"/><path fill="#e97584" d="M 115.78125 269.777344 C 115.78125 269.777344 113.117188 269.910156 112.257812 270.042969 C 111.402344 270.179688 91.8125 266.527344 81.078125 268.191406 C 81.078125 268.191406 77.0625 268.226562 77.90625 271.746094 C 77.90625 271.746094 86.351562 271.363281 88.925781 272.300781 C 91.5 273.234375 102.777344 276.3125 104.742188 278.109375 C 104.742188 278.109375 119.316406 277.613281 115.78125 269.777344 " fill-opacity="1" fill-rule="nonzero"/><path fill="#333254" d="M 229.855469 375.171875 C 214.15625 335.480469 185.476562 300.277344 178.410156 299.246094 L 176.195312 299.246094 C 176.195312 299.246094 175.242188 329.59375 176.617188 375.171875 L 229.855469 375.171875 " fill-opacity="1" fill-rule="nonzero"/><path fill="#4b4b69" d="M 286.570312 375.171875 C 287.332031 343.46875 289.855469 323.574219 275.378906 293.835938 C 262.71875 267.789062 183.03125 310.65625 183.03125 310.65625 C 183.03125 310.65625 189.90625 339.453125 204.476562 375.171875 L 286.570312 375.171875 " fill-opacity="1" fill-rule="nonzero"/><path fill="#4b4b69" d="M 195.882812 375.171875 L 209.59375 375.171875 C 208.21875 361.851562 206.425781 344.824219 206.289062 344.441406 C 206.082031 343.792969 189.601562 313.808594 189.601562 313.808594 L 181.523438 315.546875 C 181.523438 315.546875 184.101562 328.140625 189.3125 368.464844 L 195.882812 375.171875 " fill-opacity="1" fill-rule="nonzero"/><path fill="#333254" d="M 176.976562 313.445312 C 176.976562 313.445312 185.324219 342.722656 248.320312 339.472656 C 248.320312 339.472656 284.640625 335.460938 284.546875 320.496094 C 284.546875 320.496094 284.105469 312.070312 280.667969 309.355469 C 277.230469 306.660156 176.976562 313.445312 176.976562 313.445312 " fill-opacity="1" fill-rule="nonzero"/><path fill="#351f16" d="M 184.445312 33.476562 C 184.445312 33.476562 176.691406 33.464844 177.492188 41.957031 C 178.199219 49.488281 188.4375 50.277344 188.4375 50.277344 L 192.578125 31.640625 L 184.730469 33.644531 L 184.445312 33.476562 " fill-opacity="1" fill-rule="nonzero"/><path fill="#00acef" d="M 277.363281 279.121094 C 278.683594 265.820312 285.097656 246.347656 286.988281 240.824219 C 330.242188 187.886719 326.328125 151.542969 326.328125 151.542969 L 316.28125 154.511719 C 320.042969 140.152344 316.703125 129.289062 308.433594 124.675781 C 279.5625 108.582031 259.453125 90.210938 259.453125 90.210938 C 259.453125 90.210938 233.617188 95.71875 207.988281 101.664062 C 194.089844 104.894531 175.945312 128.214844 174.324219 149.804688 C 173.617188 159.066406 174.859375 182.898438 180.875 195.226562 L 180.683594 267.808594 L 174.054688 310.691406 C 176.347656 312.949219 178.675781 314.800781 181.066406 316.253906 C 181.007812 316.3125 180.96875 316.332031 180.96875 316.332031 C 235.03125 348.207031 286.09375 317.515625 285.175781 308.820312 C 284.011719 297.832031 276.5625 287.320312 277.363281 279.121094 " fill-opacity="1" fill-rule="nonzero"/><path fill="#3871c1" d="M 230.617188 207.457031 C 230.617188 207.457031 234.207031 184.371094 262.242188 162.125 L 265.660156 161.859375 L 230.617188 207.457031 " fill-opacity="1" fill-rule="nonzero"/><path fill="#e97584" d="M 250.117188 70.089844 C 250.117188 70.089844 252.902344 83.050781 259.453125 90.214844 C 265.984375 97.375 269.421875 114.183594 259.359375 127.804688 C 249.3125 141.425781 222.445312 158.488281 207.1875 150.441406 C 191.910156 142.398438 204.019531 106.441406 204.019531 106.441406 L 250.117188 70.089844 " fill-opacity="1" fill-rule="nonzero"/><path fill="#8266b9" d="M 203.140625 110.136719 C 203.140625 110.136719 203.675781 134.8125 219.277344 129.132812 C 223.210938 127.703125 250.878906 99.609375 248.777344 76.492188 L 203.140625 110.136719 " fill-opacity="1" fill-rule="nonzero"/><path fill="#f79490" d="M 183.777344 42.023438 C 183.777344 42.023438 178.316406 61.082031 187.042969 81.800781 C 187.042969 81.800781 193.171875 96.527344 196.417969 105.148438 C 199.742188 113.996094 216.542969 113.925781 227.621094 104.960938 C 240.261719 94.738281 247.84375 87.609375 252.0625 66.164062 C 256.285156 44.710938 248.320312 19.542969 220.402344 19.242188 C 190.097656 18.925781 183.777344 42.023438 183.777344 42.023438 " fill-opacity="1" fill-rule="nonzero"/><path fill="#e97584" d="M 247.058594 52.347656 C 247.058594 52.347656 239.976562 32.613281 239.269531 32.558594 C 238.5625 32.503906 203.558594 37.269531 207.644531 41.453125 C 211.75 45.632812 209.210938 51.871094 209.210938 51.871094 C 209.210938 51.871094 209.191406 55.316406 211.5625 56.125 C 213.929688 56.933594 212.859375 63.476562 213.242188 64.367188 C 213.625 65.253906 209.078125 66.945312 209.078125 66.945312 L 218.664062 73.589844 C 228.191406 78.636719 224.871094 101.941406 223.933594 107.507812 C 225.195312 106.753906 226.457031 105.910156 227.621094 104.960938 C 238.523438 96.148438 245.648438 89.625 250.117188 74.261719 L 247.058594 52.347656 " fill-opacity="1" fill-rule="nonzero"/><path fill="#351f16" d="M 243.871094 70.855469 L 241.445312 70.796875 L 236.460938 51.175781 L 233.730469 39.152344 C 233.730469 39.152344 204.894531 44.210938 194.640625 42.277344 C 184.386719 40.34375 185.515625 37.875 185.515625 37.875 C 185.515625 37.875 173.65625 32.363281 178.410156 16.972656 C 178.410156 16.972656 171.878906 1.148438 186.601562 5.140625 C 201.324219 9.132812 208.46875 12.6875 208.46875 12.6875 C 208.46875 12.6875 202.660156 4.792969 220.804688 9.90625 C 238.945312 15.027344 245.648438 21.257812 246.296875 26.902344 L 247.347656 19.820312 C 247.347656 19.820312 255.175781 24.574219 250.898438 30.402344 C 250.898438 30.402344 260.0625 34.113281 259.664062 44.6875 C 259.261719 55.25 254.46875 62.617188 254.46875 62.617188 L 243.871094 70.855469 " fill-opacity="1" fill-rule="nonzero"/><path fill="#e97584" d="M 244.921875 80.933594 C 244.921875 80.933594 249.617188 81.667969 253.054688 77.039062 C 258.859375 69.195312 258.269531 59.53125 250.746094 58.890625 C 243.203125 58.246094 241.695312 77.042969 244.921875 80.933594 " fill-opacity="1" fill-rule="nonzero"/><path fill="#8266b9" d="M 246.984375 77.300781 C 246.984375 77.300781 249.542969 72.914062 246.886719 72.066406 C 246.886719 72.066406 246.507812 63.011719 251.261719 61.585938 C 256.015625 60.160156 255.347656 67.917969 254.753906 69.375 C 254.125 70.832031 249.773438 74.363281 249.773438 74.363281 C 249.773438 74.363281 250.957031 75.957031 246.984375 77.300781 " fill-opacity="1" fill-rule="nonzero"/><path fill="#e97584" d="M 200.429688 84.402344 C 200.429688 84.402344 193.839844 86.367188 190.554688 85.6875 C 190.554688 85.6875 193.265625 72.789062 192.867188 68.351562 C 192.867188 68.351562 188.378906 85.03125 188.472656 85.296875 C 188.589844 85.558594 187.921875 86.664062 189.714844 86.910156 C 191.527344 87.15625 198.765625 85.703125 200.429688 84.402344 " fill-opacity="1" fill-rule="nonzero"/><path fill="#361116" d="M 194.910156 89.832031 C 194.910156 89.832031 195.789062 87.921875 202.757812 90.214844 C 202.757812 90.214844 199.835938 90.644531 194.910156 89.832031 " fill-opacity="1" fill-rule="nonzero"/><path fill="#00acef" d="M 262.625 164.09375 C 262.625 164.09375 269.171875 121.515625 308.433594 124.675781 C 308.433594 124.675781 356.25 151.542969 299.765625 208.296875 C 299.765625 208.296875 263.253906 234.613281 246.753906 264.253906 C 246.753906 264.253906 208.640625 262.09375 221.871094 226.183594 C 235.125 190.277344 255.269531 178.542969 262.625 164.09375 " fill-opacity="1" fill-rule="nonzero"/><path fill="#f79490" d="M 236.175781 198.09375 C 231.132812 205.546875 226.148438 214.605469 221.871094 226.183594 C 208.640625 262.09375 250.476562 264.828125 250.476562 264.828125 C 263.136719 254.964844 274.921875 237.441406 279.789062 224.867188 C 272.285156 190.160156 246.449219 194.765625 236.175781 198.09375 " fill-opacity="1" fill-rule="nonzero"/><path fill="#ffffff" d="M 190.363281 70.84375 C 190.363281 70.84375 186.449219 71.703125 184.808594 70.578125 C 184.808594 70.578125 184.214844 69.300781 183.910156 67.667969 C 183.910156 67.667969 183.222656 65.578125 189.886719 66.847656 C 190.652344 66.992188 190.363281 70.84375 190.363281 70.84375 " fill-opacity="1" fill-rule="nonzero"/><path fill="#cac0e5" d="M 189.886719 66.847656 C 183.242188 65.578125 183.910156 67.667969 183.910156 67.667969 L 183.929688 67.714844 C 184.636719 67.660156 185.359375 67.734375 186.105469 67.804688 C 187.003906 67.824219 187.863281 68.09375 188.492188 68.832031 C 189.007812 69.433594 189.332031 70.195312 189.503906 70.996094 C 190.019531 70.917969 190.363281 70.84375 190.363281 70.84375 C 190.363281 70.84375 190.652344 66.992188 189.886719 66.847656 " fill-opacity="1" fill-rule="nonzero"/><path fill="#ffffff" d="M 203.195312 66.496094 C 203.195312 66.496094 216.027344 64.613281 219.179688 67.308594 C 221.109375 68.945312 219.027344 72.828125 218.835938 73.171875 C 218.664062 73.515625 204.550781 72.597656 204.019531 72.195312 C 203.484375 71.796875 202.644531 67.027344 203.195312 66.496094 " fill-opacity="1" fill-rule="nonzero"/><path fill="#cac0e5" d="M 219.179688 67.308594 C 216.027344 64.613281 203.195312 66.496094 203.195312 66.496094 C 203.140625 66.5625 203.082031 66.699219 203.0625 66.882812 C 206.269531 66.449219 209.765625 66.664062 212.707031 68.085938 C 214.710938 69.050781 216.601562 71.046875 217.519531 73.246094 C 218.320312 73.253906 218.816406 73.234375 218.835938 73.171875 C 219.027344 72.828125 221.109375 68.945312 219.179688 67.308594 " fill-opacity="1" fill-rule="nonzero"/><path fill="#1c4255" d="M 185.78125 70.984375 C 185.78125 70.984375 185.324219 69.382812 185.304688 69.0625 C 185.265625 68.738281 185.722656 66.875 187.195312 68.507812 C 187.785156 69.167969 188.359375 71.121094 188.359375 71.121094 C 188.359375 71.121094 187.136719 71.316406 185.78125 70.984375 " fill-opacity="1" fill-rule="nonzero"/><path fill="#351f16" d="M 189.984375 60.71875 C 189.984375 60.71875 190.917969 60.289062 190.9375 59.148438 C 190.957031 58.003906 186.964844 53.183594 185.207031 52.550781 C 183.453125 51.914062 182.058594 57.175781 182.515625 57.710938 C 182.972656 58.25 184.386719 57.78125 189.984375 60.71875 " fill-opacity="1" fill-rule="nonzero"/><path fill="#351f16" d="M 202.605469 61.140625 C 202.605469 61.140625 201.402344 59.867188 202.488281 57.402344 C 203.214844 55.738281 207.53125 51.359375 209.59375 50.765625 C 211.636719 50.171875 220.476562 49.8125 224.910156 54.730469 C 225.902344 55.839844 225.367188 57.125 224.929688 57.4375 C 224.8125 57.523438 224.125 57.457031 223.054688 57.382812 C 220.117188 57.199219 214.195312 57.015625 208.125 59.84375 C 208.125 59.84375 204.171875 62.097656 202.605469 61.140625 " fill-opacity="1" fill-rule="nonzero"/><path fill="#1c4255" d="M 205.964844 72.511719 C 205.964844 72.511719 204.667969 68.574219 205.582031 67.753906 C 206.519531 66.925781 208.867188 66.984375 210.28125 72.867188 L 205.964844 72.511719 " fill-opacity="1" fill-rule="nonzero"/><path fill="#286489" d="M 187.824219 71.167969 C 187.652344 70.554688 187.175781 69.054688 186.660156 68.628906 C 186.257812 68.28125 185.722656 68.09375 185.4375 68.421875 C 185.324219 68.683594 185.285156 68.953125 185.304688 69.0625 C 185.324219 69.382812 185.78125 70.984375 185.78125 70.984375 C 186.582031 71.179688 187.347656 71.191406 187.824219 71.167969 " fill-opacity="1" fill-rule="nonzero"/><path fill="#66cdf5" d="M 185.398438 69.160156 L 185.667969 70.109375 C 185.667969 70.109375 186.105469 70.316406 187.214844 70.230469 C 187.214844 70.230469 187.042969 69.421875 186.792969 69.121094 L 185.398438 69.160156 " fill-opacity="1" fill-rule="nonzero"/><path fill="#286489" d="M 209.402344 72.792969 C 209.117188 71.808594 208.277344 69.1875 207.320312 68.566406 C 206.613281 68.113281 205.832031 68.28125 205.277344 68.496094 C 205.105469 69.914062 205.964844 72.511719 205.964844 72.511719 L 209.402344 72.792969 " fill-opacity="1" fill-rule="nonzero"/><path fill="#66cdf5" d="M 205.488281 69.804688 C 205.488281 69.804688 205.773438 71.417969 205.925781 71.625 L 208.503906 71.699219 L 207.835938 69.875 L 205.488281 69.804688 " fill-opacity="1" fill-rule="nonzero"/><path fill="#4c3929" d="M 203.234375 60.070312 C 201.859375 60.070312 202.527344 59.246094 202.527344 59.246094 C 202.527344 59.246094 205.679688 52.726562 208.734375 51.847656 C 209.019531 51.765625 209.308594 51.726562 209.574219 51.726562 C 212.210938 51.726562 214.101562 55.339844 213.527344 56.320312 C 212.878906 57.394531 204.800781 60.035156 203.3125 60.066406 C 203.292969 60.070312 203.253906 60.070312 203.234375 60.070312 " fill-opacity="1" fill-rule="nonzero"/><path fill="#fbc8c2" d="M 188.339844 59.894531 C 187.519531 59.632812 186.296875 59.132812 185.359375 58.648438 C 186.125 58.917969 187.097656 59.308594 188.339844 59.894531 " fill-opacity="1" fill-rule="nonzero"/><path fill="#4c3929" d="M 189.140625 60.082031 C 188.988281 60.082031 188.703125 60.011719 188.339844 59.894531 C 187.097656 59.308594 186.125 58.917969 185.359375 58.648438 C 184.882812 58.402344 184.484375 58.167969 184.234375 57.964844 C 183.300781 57.199219 184.425781 54.792969 185.800781 54.792969 C 185.875 54.792969 185.972656 54.800781 186.046875 54.816406 C 187.539062 55.140625 189.90625 59.050781 189.90625 59.050781 C 189.90625 59.050781 189.601562 59.90625 189.21875 60.070312 C 189.199219 60.078125 189.160156 60.082031 189.140625 60.082031 " fill-opacity="1" fill-rule="nonzero"/><path fill="#4c3929" d="M 197.027344 41.820312 C 187.976562 41.820312 184.863281 37.214844 181.332031 31.640625 C 176.445312 23.945312 181.332031 16.480469 181.332031 16.480469 C 180.015625 11.558594 180.472656 9.746094 182.304688 9.746094 C 183.644531 9.746094 185.742188 10.742188 188.453125 12.199219 C 194.777344 15.625 209.402344 38.867188 209.402344 38.867188 L 210.28125 39.617188 C 204.761719 41.152344 200.464844 41.820312 197.027344 41.820312 " fill-opacity="1" fill-rule="nonzero"/><path fill="#e97584" d="M 185.246094 78.078125 L 186.390625 80.140625 C 186.390625 80.140625 190.019531 78.933594 192.292969 78.390625 C 192.292969 78.390625 203.214844 81.015625 208.753906 84.152344 C 214.292969 87.292969 243.566406 92.050781 247.441406 71.507812 C 250.667969 54.488281 244.234375 55.164062 244.234375 55.164062 L 185.246094 78.078125 " fill-opacity="1" fill-rule="nonzero"/><path fill="#23255d" d="M 182 51.777344 L 182.058594 51.140625 C 182.058594 51.140625 181.695312 50.617188 182.515625 50.664062 C 183.335938 50.710938 187.367188 53.179688 191.871094 53.3125 C 196.359375 53.445312 212.25 52.917969 226.492188 48.691406 C 240.757812 44.46875 242.628906 49.765625 243.910156 51.894531 C 245.167969 54.027344 250.957031 68.921875 238.277344 77.875 L 182 51.777344 " fill-opacity="1" fill-rule="nonzero"/><path fill="#cac0e5" d="M 176.347656 53.835938 L 182.058594 51.144531 C 182.058594 51.144531 188.550781 59.59375 223.953125 50.976562 C 223.953125 50.976562 238.027344 46.636719 241.386719 51.144531 C 241.386719 51.144531 249.867188 61.730469 240.300781 76.039062 C 240.300781 76.039062 230.21875 88.464844 205.429688 78.996094 C 205.429688 78.996094 198.136719 76.953125 193.191406 76.6875 C 193.191406 76.6875 191.03125 76.910156 183.144531 79.480469 C 170.792969 83.515625 168.539062 55.035156 176.347656 53.835938 " fill-opacity="1" fill-rule="nonzero"/><path fill="#23255d" d="M 239.765625 57.113281 L 258.5 53.257812 L 257.371094 57.476562 L 240.988281 63.5625 L 239.765625 57.113281 " fill-opacity="1" fill-rule="nonzero"/><path fill="#ffffff" d="M 233.519531 61.742188 C 230.980469 52.1875 222.253906 55.277344 222.253906 55.277344 C 222.253906 55.277344 209.34375 59.128906 195.253906 59.03125 C 181.199219 58.929688 176.367188 53.851562 175.449219 54.113281 C 168.730469 57.273438 171.289062 83.355469 183.164062 79.480469 C 191.03125 76.90625 193.191406 76.6875 193.191406 76.6875 C 198.136719 76.953125 205.429688 79 205.429688 79 C 215.113281 82.695312 222.558594 83.050781 228.019531 82.113281 C 234.417969 77.71875 234.875 66.863281 233.519531 61.742188 " fill-opacity="1" fill-rule="nonzero"/><path fill="#cac0e5" d="M 172.566406 66.664062 C 172.566406 66.664062 169.988281 76.546875 234.953125 72.230469 C 234.953125 72.230469 240.988281 63.5625 233.292969 64.726562 L 230.5625 68.40625 C 230.5625 68.40625 188.28125 71.40625 172.566406 66.664062 " fill-opacity="1" fill-rule="nonzero"/><path fill="#23255d" d="M 171.785156 64.082031 C 171.785156 64.082031 190.667969 72.417969 233.292969 64.726562 C 233.292969 64.726562 235.488281 66.609375 233.539062 69.109375 C 232.28125 70.710938 182.113281 75.042969 172.03125 67.523438 C 172.03125 67.523438 170.292969 65.660156 171.785156 64.082031 " fill-opacity="1" fill-rule="nonzero"/><path fill="#63568d" d="M 237.417969 67.808594 L 243.738281 66.636719 L 243.355469 68.195312 L 237.265625 69.519531 L 237.417969 67.808594 " fill-opacity="1" fill-rule="nonzero"/><path fill="#63568d" d="M 243.144531 68.960938 L 242.667969 70.34375 L 237.109375 71.644531 L 237.207031 70.074219 L 243.144531 68.960938 " fill-opacity="1" fill-rule="nonzero"/><path fill="#63568d" d="M 242.457031 71.160156 L 241.902344 72.425781 L 236.730469 73.8125 L 236.957031 72.625 L 242.457031 71.160156 " fill-opacity="1" fill-rule="nonzero"/><path fill="#63568d" d="M 241.617188 73.140625 L 240.796875 74.460938 L 236.136719 76.152344 L 236.5 74.707031 L 241.617188 73.140625 " fill-opacity="1" fill-rule="nonzero"/><path fill="#c2b8d1" d="M 171.726562 65.152344 C 171.726562 65.152344 171.6875 64.363281 172.128906 64.527344 C 172.566406 64.691406 178.621094 68.082031 195.902344 68.363281 C 195.902344 68.363281 201.117188 69.332031 192.980469 69.09375 C 184.539062 68.847656 173.332031 67.539062 171.726562 65.152344 " fill-opacity="1" fill-rule="nonzero"/><path fill="#f79490" d="M 220.230469 231.804688 C 220.230469 231.804688 200.773438 232.183594 175.414062 248.371094 C 157.339844 259.894531 137.425781 258.636719 137.425781 258.636719 C 137.425781 258.636719 124.253906 277.707031 135.9375 280.9375 C 135.9375 280.9375 152.351562 279.234375 185.496094 276.734375 C 204.09375 275.335938 244.671875 269.605469 250.476562 264.828125 C 250.476562 264.828125 250 243.9375 220.230469 231.804688 " fill-opacity="1" fill-rule="nonzero"/><path fill="#f79490" d="M 140.015625 262 C 140.015625 262 137.800781 256.992188 132.355469 250.226562 C 129.816406 247.074219 123.988281 241.453125 120.058594 236.582031 C 120.058594 236.582031 113.605469 235.929688 106.5 231.917969 C 106.5 231.917969 105.683594 233.332031 105.945312 234.765625 C 106.207031 236.21875 111.320312 242.410156 116.261719 243.652344 C 116.261719 243.652344 122.296875 251.679688 113.808594 253.09375 C 108.398438 254.011719 118.363281 262.226562 118.363281 262.226562 L 139.039062 267.902344 L 140.015625 262 " fill-opacity="1" fill-rule="nonzero"/><path fill="#f79490" d="M 126.734375 256.839844 C 126.734375 256.839844 124.175781 253.167969 110.804688 252.824219 C 110.804688 252.824219 97.988281 250.113281 95.148438 248.714844 C 92.300781 247.320312 82.253906 244.320312 82.253906 244.320312 C 82.253906 244.320312 67.945312 239.65625 66.792969 245.410156 C 66.792969 245.410156 71.59375 246.539062 74.667969 247.683594 C 81.835938 250.339844 85.324219 252.386719 85.324219 252.386719 L 97.945312 259.953125 C 97.945312 259.953125 97.050781 264.023438 97.769531 266.183594 C 98.414062 268.113281 97.648438 267.75 98.96875 271 C 99.648438 272.664062 100.199219 274.304688 100.199219 274.304688 L 104.742188 278.109375 C 104.742188 278.109375 128.230469 280.171875 135.9375 280.9375 L 140.015625 262 L 126.734375 256.839844 " fill-opacity="1" fill-rule="nonzero"/><path fill="#f79490" d="M 99.007812 258.40625 C 99.007812 258.40625 96.363281 258.75 95.515625 258.960938 C 94.675781 259.152344 74.863281 256.992188 64.285156 259.4375 C 64.285156 259.4375 60.285156 259.78125 61.386719 263.222656 C 61.386719 263.222656 69.730469 263.183594 72.371094 263.929688 C 75.007812 264.675781 95.519531 266.660156 98.542969 270.523438 C 101.5625 274.382812 103.125 265.972656 99.007812 258.40625 " fill-opacity="1" fill-rule="nonzero"/><path fill="#e97584" d="M 83.945312 139.621094 L 85.605469 138.699219 L 87.117188 134.070312 C 87.117188 134.070312 84.242188 127.640625 85.566406 125.949219 C 85.566406 125.949219 87.636719 124.761719 88.671875 125.542969 C 89.410156 126.101562 92.175781 131.722656 93.316406 132.542969 C 94.464844 133.367188 93.765625 134.886719 93.765625 134.886719 C 93.765625 134.886719 91.40625 144.425781 92.476562 150.398438 C 93.441406 155.75 90.484375 166.730469 86.984375 167.457031 C 86.984375 167.457031 77.433594 151.632812 83.945312 139.621094 " fill-opacity="1" fill-rule="nonzero"/><path fill="#e97584" d="M 84.492188 139.867188 C 84.492188 139.867188 81.910156 136.777344 80.480469 132.625 C 79.054688 128.472656 78.375 122.292969 78.375 122.292969 L 77.960938 115.863281 C 77.960938 115.863281 80.027344 112.066406 79.628906 109.417969 C 79.167969 106.363281 75.894531 107.941406 75.746094 108.273438 C 75.597656 108.605469 74.003906 113.578125 73.660156 114.167969 C 73.3125 114.753906 72.875 121.132812 72.511719 122.546875 C 72.144531 123.960938 72.921875 132.144531 72.484375 132.621094 C 72.046875 133.09375 72.484375 132.621094 72.484375 132.621094 C 72.484375 132.621094 72.21875 126.511719 71.273438 123.785156 C 71.273438 123.785156 72.054688 117.183594 71.632812 114.964844 C 71.632812 114.964844 73.292969 107.027344 72.519531 105.179688 C 72.519531 105.179688 69.410156 103.316406 68.144531 104.675781 C 68.144531 104.675781 66.25 113.472656 65.988281 114.128906 C 65.722656 114.789062 65.59375 124.523438 65.59375 124.523438 L 65.960938 134.386719 C 65.960938 134.386719 58.933594 153.3125 59.246094 154.402344 C 59.914062 156.730469 61.96875 162.105469 63.421875 165.507812 C 64.304688 167.570312 68.09375 170.859375 68.382812 171.03125 C 68.675781 171.222656 83.960938 175.828125 86.984375 167.457031 C 86.984375 167.457031 86.625 163.882812 86.699219 162.183594 C 86.773438 160.476562 84.492188 139.867188 84.492188 139.867188 " fill-opacity="1" fill-rule="nonzero"/><path fill="#e97584" d="M 67.277344 135.003906 L 65.160156 128.726562 C 65.160156 128.726562 70.261719 124.796875 70.949219 123.972656 C 71.636719 123.148438 73.238281 122.667969 73.546875 120.957031 C 73.855469 119.253906 72.574219 118.457031 72.574219 118.457031 C 72.574219 118.457031 62.796875 123.363281 60.683594 124.113281 L 58.570312 124.863281 C 58.570312 124.863281 59.691406 133.675781 59.691406 135.503906 C 59.683594 137.324219 57.070312 139.769531 56.015625 140.144531 C 56.015625 140.144531 55.515625 143.230469 59.246094 154.402344 L 60.761719 158.710938 L 67.371094 152.074219 L 67.277344 135.003906 " fill-opacity="1" fill-rule="nonzero"/><path fill="#e97584" d="M 56.0625 140.535156 C 56.0625 140.535156 54.894531 131.253906 54.832031 129.832031 C 54.777344 128.414062 64.046875 126.335938 64.050781 126.289062 C 64.054688 126.246094 69.226562 129.902344 69.878906 130.164062 C 69.878906 130.164062 68.457031 133.433594 63.765625 131.378906 L 59.484375 132.589844 L 60.886719 137.527344 C 60.886719 137.527344 61.304688 140.3125 56.0625 140.535156 " fill-opacity="1" fill-rule="nonzero"/><path fill="#f79490" d="M 59.363281 139.808594 C 59.363281 139.808594 61.515625 137.402344 58.902344 132.167969 C 58.902344 132.167969 61.671875 131.96875 63.722656 130.660156 C 63.722656 130.660156 66.632812 133.105469 68.136719 130.402344 C 68.136719 130.402344 67.007812 129.015625 63.597656 127.34375 C 63.597656 127.34375 56.539062 129.726562 55.582031 129.730469 C 54.625 129.734375 56.273438 134.734375 56.734375 139.066406 C 56.734375 139.066406 56.804688 140.820312 59 139.730469 L 59.363281 139.808594 " fill-opacity="1" fill-rule="nonzero"/><path fill="#f79490" d="M 59.710938 127.457031 L 59.457031 125.023438 C 59.457031 125.023438 69.773438 120.503906 71.636719 119.375 C 71.636719 119.375 72.808594 119.921875 72.445312 121.699219 C 72.085938 123.476562 63.195312 126.511719 63.195312 126.511719 L 59.710938 127.457031 " fill-opacity="1" fill-rule="nonzero"/><path fill="#f79490" d="M 58.609375 138.957031 C 58.609375 138.957031 60.003906 139.226562 61.898438 142.75 C 63.792969 146.273438 63.011719 150.535156 64.988281 154.464844 C 66.96875 158.398438 74.125 160.042969 76.066406 165.105469 C 78.011719 170.152344 71.625 169.902344 69.621094 170.152344 C 67.617188 170.398438 64.59375 167.171875 62.796875 162.8125 C 61.007812 158.46875 55.628906 143.191406 56.734375 139.066406 C 57.839844 134.949219 58.609375 138.957031 58.609375 138.957031 " fill-opacity="1" fill-rule="nonzero"/><path fill="#f79490" d="M 68.9375 119.890625 C 68.9375 119.890625 69.273438 116.542969 68.9375 115.199219 C 68.9375 115.199219 70.738281 109.894531 70.222656 107.199219 C 70.222656 107.199219 69.492188 105.527344 68.839844 106.257812 C 68.183594 106.984375 66.507812 114.128906 66.507812 114.128906 C 66.507812 114.128906 66.320312 121.128906 66.296875 121.222656 C 66.273438 121.316406 68.9375 119.890625 68.9375 119.890625 " fill-opacity="1" fill-rule="nonzero"/><path fill="#f79490" d="M 73.433594 118.070312 C 73.433594 118.070312 75.371094 117.027344 75.375 116.625 C 75.382812 116.222656 75.320312 115.789062 75.320312 115.789062 C 75.320312 115.789062 77.214844 113.011719 76.839844 110.960938 C 76.46875 108.914062 76.089844 109.496094 76.089844 109.496094 L 73.804688 114.558594 L 73.433594 118.070312 " fill-opacity="1" fill-rule="nonzero"/><path fill="#7ad4f6" d="M 201.25 228 C 195.386719 228 190 225.457031 188.109375 219.191406 C 183.375 203.386719 185.246094 195.605469 185.246094 195.605469 C 185.246094 195.605469 177.683594 174.96875 180.089844 160.121094 L 180.050781 158.933594 C 180.050781 158.933594 180.894531 142.476562 185.246094 142.476562 C 186.085938 142.476562 187.078125 143.101562 188.207031 144.59375 C 193.726562 151.863281 199.855469 161.648438 215.398438 161.648438 C 219.429688 161.648438 224.070312 160.996094 229.472656 159.480469 C 235.488281 157.804688 239.804688 157.078125 242.800781 157.078125 C 252.960938 157.078125 247.863281 165.46875 242.230469 173.609375 C 234.953125 184.121094 221.375 202.410156 220.613281 214.71875 C 220.152344 222.152344 210.167969 228 201.25 228 " fill-opacity="1" fill-rule="nonzero"/><path fill="#7ad4f6" d="M 273.144531 208.125 C 266.691406 198.472656 257.65625 195.835938 249.695312 195.835938 C 246.867188 195.835938 244.175781 196.160156 241.789062 196.640625 C 248.605469 185.765625 257.277344 174.394531 267.703125 165.335938 C 267.703125 165.335938 269.382812 135.980469 289.546875 133.410156 C 290.542969 133.285156 291.496094 133.222656 292.429688 133.222656 C 310.417969 133.222656 316.339844 156.136719 287.503906 174.644531 C 287.503906 174.644531 283.226562 190.601562 273.144531 208.125 " fill-opacity="1" fill-rule="nonzero"/><path fill="#decbcd" d="M 239.746094 244.128906 C 235.890625 240.328125 230.636719 236.523438 223.535156 233.238281 C 224.8125 229.777344 230.980469 213.839844 241.789062 196.640625 C 244.175781 196.160156 246.867188 195.835938 249.695312 195.835938 C 257.65625 195.835938 266.691406 198.472656 273.144531 208.125 C 266.003906 220.527344 255.957031 233.714844 242.476562 242.542969 C 242.476562 242.542969 241.542969 243.136719 239.746094 244.128906 " fill-opacity="1" fill-rule="nonzero"/><path fill="#decbcd" d="M 143.914062 264.710938 C 142.003906 264.710938 140.46875 264.578125 139.65625 264.175781 L 140.015625 262 C 140.015625 262 155.550781 261.882812 161.546875 258.253906 C 167.542969 254.640625 206.902344 234.171875 223.265625 233.925781 C 223.265625 233.925781 223.363281 233.675781 223.535156 233.238281 C 230.636719 236.523438 235.890625 240.328125 239.746094 244.128906 C 231.132812 248.90625 202.851562 262.742188 164.03125 262.742188 L 162.695312 262.742188 C 162.695312 262.742188 150.84375 264.710938 143.914062 264.710938 " fill-opacity="1" fill-rule="nonzero"/><path fill="#decbcd" d="M 139.65625 264.175781 C 139.621094 264.15625 139.589844 264.15625 139.554688 264.140625 L 140.015625 262 L 139.65625 264.175781 " fill-opacity="1" fill-rule="nonzero"/><path fill="#decbcd" d="M 139.554688 264.140625 C 138.773438 263.71875 138.792969 263.03125 140.015625 262 L 139.554688 264.140625 " fill-opacity="1" fill-rule="nonzero"/><g clip-path="url(#97ee7e8197)"><path fill="#b4e7fa" d="M 98.570312 249.882812 C 97.066406 249.441406 95.824219 249.042969 95.148438 248.714844 C 92.300781 247.320312 82.253906 244.320312 82.253906 244.320312 C 82.253906 244.320312 76.773438 242.542969 72.324219 242.542969 C 69.582031 242.542969 67.230469 243.210938 66.792969 245.410156 C 66.792969 245.410156 71.59375 246.539062 74.667969 247.683594 C 76.5625 248.390625 78.199219 249.042969 79.582031 249.632812 C 45.167969 244.609375 18.742188 214.929688 18.742188 179.09375 C 18.742188 147.921875 38.734375 121.421875 66.585938 111.730469 C 66.300781 112.96875 66.066406 113.929688 65.988281 114.128906 C 65.8125 114.5625 65.695312 118.933594 65.636719 121.867188 C 63.511719 122.890625 61.511719 123.820312 60.683594 124.113281 L 58.570312 124.863281 C 58.570312 124.863281 58.726562 126.082031 58.921875 127.699219 C 56.785156 128.375 54.808594 129.175781 54.832031 129.832031 C 54.886719 131.078125 55.792969 138.378906 56.011719 140.148438 C 56.003906 140.222656 55.5625 143.367188 59.246094 154.402344 C 59.914062 156.730469 61.96875 162.105469 63.421875 165.507812 C 64.136719 167.191406 66.773438 169.675781 67.890625 170.628906 C 68.582031 173.609375 76.191406 188.746094 77.496094 190.714844 C 86.457031 204.265625 94.535156 222.992188 118.941406 236.410156 C 116.796875 236.046875 111.832031 234.9375 106.5 231.917969 C 106.5 231.917969 105.683594 233.332031 105.945312 234.765625 C 106.207031 236.21875 111.320312 242.410156 116.261719 243.652344 C 116.261719 243.652344 116.667969 244.207031 117.125 245.027344 C 111.289062 247.4375 105.0625 249.097656 98.570312 249.882812 M 124.382812 241.53125 C 123.101562 240.15625 121.832031 238.722656 120.691406 237.34375 C 122.582031 238.339844 124.570312 239.292969 126.660156 240.230469 C 125.910156 240.671875 125.148438 241.109375 124.382812 241.53125 M 134.546875 200.671875 C 128.585938 196.675781 121.109375 192.511719 112.71875 189.722656 C 99.097656 185.230469 91.011719 176.058594 86.769531 167.992188 C 86.847656 167.820312 86.917969 167.648438 86.984375 167.457031 C 90.484375 166.730469 93.441406 155.75 92.476562 150.398438 C 91.40625 144.425781 93.765625 134.886719 93.765625 134.886719 C 93.765625 134.886719 94.464844 133.367188 93.316406 132.542969 C 92.175781 131.722656 89.410156 126.101562 88.671875 125.542969 C 88.414062 125.347656 88.097656 125.277344 87.761719 125.277344 C 86.742188 125.277344 85.566406 125.949219 85.566406 125.949219 C 84.242188 127.640625 87.117188 134.070312 87.117188 134.070312 L 85.605469 138.699219 L 84.191406 139.488281 C 83.472656 138.539062 81.613281 135.917969 80.480469 132.625 C 79.054688 128.472656 78.375 122.292969 78.375 122.292969 L 77.960938 115.863281 C 77.960938 115.863281 80.027344 112.066406 79.628906 109.417969 C 79.578125 109.089844 79.492188 108.8125 79.386719 108.582031 C 82.84375 108.066406 86.378906 107.800781 89.980469 107.800781 C 119.929688 107.800781 145.5625 126.292969 156.097656 152.496094 C 151.121094 164.589844 146.984375 173.515625 143.742188 180.300781 C 143.828125 180.28125 143.914062 180.261719 144 180.222656 C 142.175781 183.28125 140.378906 186.855469 138.621094 191.058594 C 137.503906 193.714844 136.085938 197.058594 134.546875 200.671875 " fill-opacity="1" fill-rule="nonzero"/></g><path fill="#ecaab6" d="M 152.355469 213.550781 C 150.464844 212.882812 149.054688 212.386719 149.054688 212.386719 C 149.054688 212.386719 143.523438 206.710938 134.546875 200.671875 C 136.085938 197.058594 137.503906 193.714844 138.621094 191.058594 C 140.378906 186.855469 142.175781 183.28125 144 180.222656 C 147.945312 179.171875 152.039062 178.597656 156.117188 178.597656 C 157.824219 178.597656 159.527344 178.695312 161.21875 178.90625 L 161.21875 179.09375 C 161.21875 191.59375 158.003906 203.347656 152.355469 213.550781 " fill-opacity="1" fill-rule="nonzero"/><path fill="#2b94d9" d="M 143.742188 180.300781 C 146.984375 173.515625 151.121094 164.589844 156.097656 152.496094 C 159.378906 160.660156 161.195312 169.578125 161.21875 178.90625 C 159.527344 178.695312 157.824219 178.597656 156.117188 178.597656 C 152.039062 178.597656 147.945312 179.171875 144 180.222656 C 143.914062 180.261719 143.828125 180.28125 143.742188 180.300781 M 147.53125 174.738281 C 147.519531 174.71875 147.507812 174.699219 147.496094 174.679688 C 147.492188 174.660156 147.480469 174.660156 147.472656 174.644531 C 147.480469 174.644531 147.488281 174.660156 147.496094 174.679688 C 147.519531 174.71875 147.53125 174.738281 147.53125 174.738281 " fill-opacity="1" fill-rule="nonzero"/><path fill="#ecaab6" d="M 137.992188 231.765625 C 134.304688 227.027344 128.753906 222.363281 124.941406 220.816406 C 96.832031 209.347656 90.894531 198.625 90.894531 198.625 C 82.753906 186.339844 79.289062 176.957031 77.945312 172.464844 C 81.601562 172.367188 85.253906 171.335938 86.769531 167.992188 C 91.011719 176.058594 99.097656 185.230469 112.71875 189.722656 C 121.109375 192.511719 128.585938 196.675781 134.546875 200.671875 C 143.523438 206.710938 149.054688 212.386719 149.054688 212.386719 C 149.054688 212.386719 150.464844 212.882812 152.355469 213.550781 C 148.578125 220.394531 143.714844 226.546875 137.992188 231.765625 " fill-opacity="1" fill-rule="nonzero"/><path fill="#fbc8c2" d="M 126.660156 240.230469 C 124.570312 239.292969 122.582031 238.339844 120.691406 237.34375 C 120.476562 237.097656 120.261719 236.828125 120.058594 236.582031 C 120.058594 236.582031 119.65625 236.542969 118.941406 236.410156 C 94.535156 222.992188 86.457031 204.265625 77.496094 190.714844 C 76.191406 188.746094 68.582031 173.609375 67.890625 170.628906 C 68.152344 170.859375 68.332031 171.011719 68.382812 171.03125 C 68.539062 171.125 72.882812 172.464844 77.386719 172.464844 L 77.945312 172.464844 C 79.289062 176.957031 82.753906 186.339844 90.894531 198.625 C 90.894531 198.625 96.832031 209.347656 124.941406 220.816406 C 128.753906 222.363281 134.304688 227.027344 137.992188 231.765625 C 134.511719 234.9375 130.71875 237.785156 126.660156 240.230469 " fill-opacity="1" fill-rule="nonzero"/><path fill="#b4e7fa" d="M 72.289062 132.832031 C 72.289062 132.828125 72.484375 132.621094 72.484375 132.621094 C 72.339844 132.777344 72.289062 132.832031 72.289062 132.832031 M 72.484375 132.621094 C 72.484375 132.621094 72.21875 126.511719 71.273438 123.785156 C 71.273438 123.785156 71.28125 123.734375 71.292969 123.636719 C 71.640625 123.34375 72.074219 123.070312 72.472656 122.722656 C 72.199219 124.542969 72.90625 132.164062 72.484375 132.621094 M 71.695312 118.894531 C 71.78125 117.351562 71.796875 115.828125 71.632812 114.964844 C 71.632812 114.964844 72.152344 112.480469 72.476562 109.964844 C 73.4375 109.722656 74.414062 109.496094 75.390625 109.296875 C 74.859375 110.871094 73.914062 113.730469 73.660156 114.167969 C 73.460938 114.503906 73.230469 116.730469 73.003906 118.84375 C 72.78125 118.582031 72.574219 118.457031 72.574219 118.457031 L 71.695312 118.894531 " fill-opacity="1" fill-rule="nonzero"/><path fill="#2f9dde" d="M 147.53125 174.738281 C 147.53125 174.738281 147.519531 174.71875 147.496094 174.679688 C 147.507812 174.699219 147.519531 174.71875 147.53125 174.738281 M 147.496094 174.679688 C 147.488281 174.660156 147.480469 174.644531 147.472656 174.644531 C 147.480469 174.660156 147.492188 174.660156 147.496094 174.679688 " fill-opacity="1" fill-rule="nonzero"/><path fill="#fbc8c2" d="M 117.125 245.027344 C 116.667969 244.207031 116.261719 243.652344 116.261719 243.652344 C 111.320312 242.410156 106.207031 236.21875 105.945312 234.765625 C 105.683594 233.332031 106.5 231.917969 106.5 231.917969 C 111.832031 234.9375 116.796875 236.046875 118.941406 236.410156 C 119.65625 236.542969 120.058594 236.582031 120.058594 236.582031 C 120.261719 236.828125 120.476562 237.097656 120.691406 237.34375 C 121.832031 238.722656 123.101562 240.15625 124.382812 241.53125 C 122.042969 242.832031 119.621094 243.996094 117.125 245.027344 " fill-opacity="1" fill-rule="nonzero"/><path fill="#fbc8c2" d="M 89.980469 250.398438 C 86.449219 250.398438 82.976562 250.128906 79.582031 249.632812 C 78.199219 249.042969 76.5625 248.390625 74.667969 247.683594 C 71.59375 246.539062 66.792969 245.410156 66.792969 245.410156 C 67.230469 243.210938 69.582031 242.542969 72.324219 242.542969 C 76.773438 242.542969 82.253906 244.320312 82.253906 244.320312 C 82.253906 244.320312 92.300781 247.320312 95.148438 248.714844 C 95.824219 249.042969 97.066406 249.441406 98.570312 249.882812 C 95.753906 250.207031 92.890625 250.398438 89.980469 250.398438 " fill-opacity="1" fill-rule="nonzero"/><path fill="#ecaab6" d="M 86.984375 167.457031 C 86.984375 167.457031 86.625 163.882812 86.699219 162.183594 C 86.773438 160.476562 84.492188 139.867188 84.492188 139.867188 C 84.492188 139.867188 84.378906 139.734375 84.191406 139.488281 L 85.605469 138.699219 L 87.117188 134.070312 C 87.117188 134.070312 84.242188 127.640625 85.566406 125.949219 C 85.566406 125.949219 86.742188 125.277344 87.761719 125.277344 C 88.097656 125.277344 88.414062 125.347656 88.671875 125.542969 C 89.410156 126.101562 92.175781 131.722656 93.316406 132.542969 C 94.464844 133.367188 93.765625 134.886719 93.765625 134.886719 C 93.765625 134.886719 91.40625 144.425781 92.476562 150.398438 C 93.441406 155.75 90.484375 166.730469 86.984375 167.457031 " fill-opacity="1" fill-rule="nonzero"/><path fill="#ecaab6" d="M 77.386719 172.464844 C 72.882812 172.464844 68.539062 171.125 68.382812 171.03125 C 68.332031 171.011719 68.152344 170.859375 67.890625 170.628906 C 66.773438 169.675781 64.136719 167.191406 63.421875 165.507812 C 61.96875 162.105469 59.914062 156.730469 59.246094 154.402344 L 60.761719 158.710938 L 61.117188 158.355469 C 61.785156 160.238281 62.386719 161.820312 62.796875 162.8125 C 64.527344 167 67.40625 170.171875 69.402344 170.171875 C 69.476562 170.171875 69.546875 170.171875 69.621094 170.152344 C 71.625 169.902344 78.011719 170.152344 76.066406 165.105469 C 74.125 160.042969 66.96875 158.398438 64.988281 154.464844 L 67.371094 152.074219 L 67.277344 135.003906 L 66.28125 132.046875 C 66.386719 132.050781 66.492188 132.054688 66.59375 132.054688 C 69.054688 132.054688 69.878906 130.164062 69.878906 130.164062 C 69.519531 130.019531 67.792969 128.847656 66.308594 127.832031 C 67.855469 126.621094 70.472656 124.546875 70.949219 123.972656 C 71.046875 123.855469 71.164062 123.746094 71.292969 123.636719 C 71.28125 123.734375 71.273438 123.785156 71.273438 123.785156 C 72.21875 126.511719 72.484375 132.621094 72.484375 132.621094 C 72.90625 132.164062 72.199219 124.542969 72.472656 122.722656 C 72.964844 122.300781 73.402344 121.765625 73.546875 120.957031 C 73.734375 119.933594 73.34375 119.238281 73.003906 118.84375 C 73.230469 116.730469 73.460938 114.503906 73.660156 114.167969 C 73.914062 113.730469 74.859375 110.871094 75.390625 109.296875 C 76.710938 109.019531 78.042969 108.78125 79.386719 108.582031 C 79.492188 108.8125 79.578125 109.089844 79.628906 109.417969 C 80.027344 112.066406 77.960938 115.863281 77.960938 115.863281 L 78.375 122.292969 C 78.375 122.292969 79.054688 128.472656 80.480469 132.625 C 81.613281 135.917969 83.472656 138.539062 84.191406 139.488281 C 84.378906 139.734375 84.492188 139.867188 84.492188 139.867188 C 84.492188 139.867188 86.773438 160.476562 86.699219 162.183594 C 86.625 163.882812 86.984375 167.457031 86.984375 167.457031 C 86.917969 167.648438 86.847656 167.820312 86.769531 167.992188 C 85.253906 171.335938 81.601562 172.367188 77.945312 172.464844 L 77.386719 172.464844 M 72.484375 132.621094 C 72.484375 132.621094 72.289062 132.828125 72.289062 132.832031 C 72.289062 132.832031 72.339844 132.777344 72.484375 132.621094 M 76.222656 109.417969 C 76.140625 109.417969 76.089844 109.496094 76.089844 109.496094 L 73.804688 114.558594 L 73.433594 118.070312 C 73.433594 118.070312 75.371094 117.027344 75.375 116.625 C 75.382812 116.222656 75.320312 115.789062 75.320312 115.789062 C 75.320312 115.789062 77.214844 113.011719 76.839844 110.960938 C 76.601562 109.660156 76.363281 109.417969 76.222656 109.417969 M 65.636719 121.867188 C 65.695312 118.933594 65.8125 114.5625 65.988281 114.128906 C 66.066406 113.929688 66.300781 112.96875 66.585938 111.730469 C 66.773438 111.667969 66.960938 111.605469 67.148438 111.539062 C 66.78125 112.972656 66.507812 114.128906 66.507812 114.128906 C 66.507812 114.128906 66.320312 121.128906 66.296875 121.222656 C 66.296875 121.222656 66.300781 121.226562 66.304688 121.226562 C 66.445312 121.226562 68.9375 119.890625 68.9375 119.890625 C 68.9375 119.890625 69.273438 116.542969 68.9375 115.199219 C 68.9375 115.199219 69.707031 112.9375 70.09375 110.613281 C 70.882812 110.382812 71.675781 110.167969 72.476562 109.964844 C 72.152344 112.480469 71.632812 114.964844 71.632812 114.964844 C 71.796875 115.828125 71.78125 117.351562 71.695312 118.894531 C 70.421875 119.527344 67.953125 120.753906 65.636719 121.867188 " fill-opacity="1" fill-rule="nonzero"/><path fill="#ecaab6" d="M 60.761719 158.710938 L 59.246094 154.402344 C 55.5625 143.367188 56.003906 140.222656 56.011719 140.148438 C 56.046875 140.394531 56.0625 140.535156 56.0625 140.535156 C 56.246094 140.527344 56.417969 140.515625 56.589844 140.503906 C 56.601562 144.574219 59.152344 152.804688 61.117188 158.355469 L 60.761719 158.710938 M 64.988281 154.464844 C 63.011719 150.535156 63.792969 146.273438 61.898438 142.75 C 61.015625 141.105469 60.242188 140.171875 59.664062 139.640625 C 61.070312 138.75 60.886719 137.527344 60.886719 137.527344 L 59.484375 132.589844 L 63.765625 131.378906 C 64.738281 131.804688 65.570312 132 66.28125 132.046875 L 67.277344 135.003906 L 67.371094 152.074219 L 64.988281 154.464844 M 66.308594 127.832031 C 65.113281 127.011719 64.078125 126.289062 64.050781 126.289062 C 64.050781 126.296875 63.722656 126.378906 63.191406 126.515625 L 63.195312 126.511719 C 63.195312 126.511719 72.085938 123.476562 72.445312 121.699219 C 72.808594 119.921875 71.636719 119.375 71.636719 119.375 C 69.773438 120.503906 59.457031 125.023438 59.457031 125.023438 L 59.710938 127.457031 C 59.445312 127.535156 59.183594 127.617188 58.921875 127.699219 C 58.726562 126.082031 58.570312 124.863281 58.570312 124.863281 L 60.683594 124.113281 C 61.511719 123.820312 63.511719 122.890625 65.636719 121.867188 C 67.953125 120.753906 70.421875 119.527344 71.695312 118.894531 L 72.574219 118.457031 C 72.574219 118.457031 72.78125 118.582031 73.003906 118.84375 C 73.34375 119.238281 73.734375 119.933594 73.546875 120.957031 C 73.402344 121.765625 72.964844 122.300781 72.472656 122.722656 C 72.074219 123.070312 71.640625 123.34375 71.292969 123.636719 C 71.164062 123.746094 71.046875 123.855469 70.949219 123.972656 C 70.472656 124.546875 67.855469 126.621094 66.308594 127.832031 " fill-opacity="1" fill-rule="nonzero"/><path fill="#ecaab6" d="M 56.0625 140.535156 C 56.0625 140.535156 56.046875 140.394531 56.011719 140.148438 C 55.792969 138.378906 54.886719 131.078125 54.832031 129.832031 C 54.808594 129.175781 56.785156 128.375 58.921875 127.699219 C 59.183594 127.617188 59.445312 127.535156 59.710938 127.457031 L 63.191406 126.515625 C 63.722656 126.378906 64.050781 126.296875 64.050781 126.289062 C 64.078125 126.289062 65.113281 127.011719 66.308594 127.832031 C 67.792969 128.847656 69.519531 130.019531 69.878906 130.164062 C 69.878906 130.164062 69.054688 132.054688 66.59375 132.054688 C 66.492188 132.054688 66.386719 132.050781 66.28125 132.046875 C 65.570312 132 64.738281 131.804688 63.765625 131.378906 L 59.484375 132.589844 L 60.886719 137.527344 C 60.886719 137.527344 61.070312 138.75 59.664062 139.640625 C 59.628906 139.605469 59.589844 139.574219 59.554688 139.542969 C 60.015625 138.78125 61.011719 136.394531 58.902344 132.167969 C 58.902344 132.167969 61.671875 131.96875 63.722656 130.660156 C 63.722656 130.660156 64.929688 131.675781 66.191406 131.675781 C 66.890625 131.675781 67.601562 131.363281 68.136719 130.402344 C 68.136719 130.402344 67.007812 129.015625 63.597656 127.34375 C 63.597656 127.34375 56.539062 129.726562 55.582031 129.730469 C 54.625 129.734375 56.273438 134.734375 56.734375 139.066406 C 56.632812 139.453125 56.585938 139.941406 56.589844 140.503906 C 56.417969 140.515625 56.246094 140.527344 56.0625 140.535156 " fill-opacity="1" fill-rule="nonzero"/><path fill="#fbc8c2" d="M 59.554688 139.542969 C 58.960938 139.023438 58.609375 138.957031 58.609375 138.957031 C 58.609375 138.957031 58.273438 137.207031 57.726562 137.207031 C 57.449219 137.207031 57.113281 137.667969 56.734375 139.066406 C 56.273438 134.734375 54.625 129.734375 55.582031 129.730469 C 56.539062 129.726562 63.597656 127.34375 63.597656 127.34375 C 67.007812 129.015625 68.136719 130.402344 68.136719 130.402344 C 67.601562 131.363281 66.890625 131.675781 66.191406 131.675781 C 64.929688 131.675781 63.722656 130.660156 63.722656 130.660156 C 61.671875 131.96875 58.902344 132.167969 58.902344 132.167969 C 61.011719 136.394531 60.015625 138.78125 59.554688 139.542969 " fill-opacity="1" fill-rule="nonzero"/><path fill="#fbc8c2" d="M 59.710938 127.457031 L 59.457031 125.023438 C 59.457031 125.023438 69.773438 120.503906 71.636719 119.375 C 71.636719 119.375 72.808594 119.921875 72.445312 121.699219 C 72.085938 123.476562 63.195312 126.511719 63.195312 126.511719 L 63.191406 126.515625 L 59.710938 127.457031 " fill-opacity="1" fill-rule="nonzero"/><path fill="#fbc8c2" d="M 69.402344 170.171875 C 67.40625 170.171875 64.527344 167 62.796875 162.8125 C 62.386719 161.820312 61.785156 160.238281 61.117188 158.355469 C 59.152344 152.804688 56.601562 144.574219 56.589844 140.503906 C 56.585938 139.941406 56.632812 139.453125 56.734375 139.066406 C 57.113281 137.667969 57.449219 137.207031 57.726562 137.207031 C 58.273438 137.207031 58.609375 138.957031 58.609375 138.957031 C 58.609375 138.957031 58.960938 139.023438 59.554688 139.542969 C 59.589844 139.574219 59.628906 139.605469 59.664062 139.640625 C 60.242188 140.171875 61.015625 141.105469 61.898438 142.75 C 63.792969 146.273438 63.011719 150.535156 64.988281 154.464844 C 66.96875 158.398438 74.125 160.042969 76.066406 165.105469 C 78.011719 170.152344 71.625 169.902344 69.621094 170.152344 C 69.546875 170.171875 69.476562 170.171875 69.402344 170.171875 " fill-opacity="1" fill-rule="nonzero"/><path fill="#fbc8c2" d="M 66.304688 121.226562 C 66.300781 121.226562 66.296875 121.222656 66.296875 121.222656 C 66.320312 121.128906 66.507812 114.128906 66.507812 114.128906 C 66.507812 114.128906 66.78125 112.972656 67.148438 111.539062 C 68.121094 111.210938 69.105469 110.902344 70.09375 110.613281 C 69.707031 112.9375 68.9375 115.199219 68.9375 115.199219 C 69.273438 116.542969 68.9375 119.890625 68.9375 119.890625 C 68.9375 119.890625 66.445312 121.226562 66.304688 121.226562 " fill-opacity="1" fill-rule="nonzero"/><path fill="#fbc8c2" d="M 73.433594 118.070312 L 73.804688 114.558594 L 76.089844 109.496094 C 76.089844 109.496094 76.140625 109.417969 76.222656 109.417969 C 76.363281 109.417969 76.601562 109.660156 76.839844 110.960938 C 77.214844 113.011719 75.320312 115.789062 75.320312 115.789062 C 75.320312 115.789062 75.382812 116.222656 75.375 116.625 C 75.371094 117.027344 73.433594 118.070312 73.433594 118.070312 " fill-opacity="1" fill-rule="nonzero"/><path fill="#ffffff" d="M 96.296875 179.6875 L 95.460938 179.59375 L 90.6875 224.828125 C 90.652344 225.152344 90.804688 225.457031 91.074219 225.628906 C 91.34375 225.800781 91.691406 225.800781 91.964844 225.648438 L 127.949219 203.613281 C 128.15625 203.5 128.300781 203.289062 128.339844 203.042969 L 134.75 162.527344 C 134.796875 162.222656 134.675781 161.914062 134.425781 161.722656 C 134.175781 161.53125 133.847656 161.496094 133.5625 161.628906 L 95.945312 178.90625 C 95.671875 179.039062 95.492188 179.285156 95.460938 179.59375 L 96.296875 179.6875 L 96.648438 180.453125 L 132.835938 163.824219 L 126.734375 202.390625 L 92.542969 223.300781 L 97.136719 179.765625 L 96.296875 179.6875 L 96.648438 180.453125 L 96.296875 179.6875 " fill-opacity="1" fill-rule="nonzero"/><path fill="#ffffff" d="M 134.425781 161.722656 L 100.246094 135.839844 C 100.011719 135.664062 99.703125 135.621094 99.429688 135.726562 L 59.027344 151.480469 C 58.742188 151.589844 58.535156 151.851562 58.496094 152.15625 C 58.457031 152.460938 58.582031 152.761719 58.832031 152.945312 L 95.796875 180.355469 C 96.171875 180.644531 96.699219 180.546875 96.972656 180.183594 C 97.253906 179.804688 97.175781 179.269531 96.800781 179 L 61.0625 152.5 L 99.605469 137.46875 L 133.40625 163.0625 C 133.777344 163.347656 134.304688 163.273438 134.589844 162.910156 C 134.871094 162.527344 134.796875 162.011719 134.425781 161.722656 " fill-opacity="1" fill-rule="nonzero"/><path fill="#ffffff" d="M 59.332031 152.265625 L 58.492188 152.21875 L 56.222656 192.398438 C 56.207031 192.625 56.304688 192.875 56.484375 193.046875 L 90.945312 225.535156 C 91.179688 225.746094 91.519531 225.820312 91.816406 225.707031 C 92.117188 225.59375 92.332031 225.324219 92.363281 225.019531 L 97.136719 179.765625 C 97.167969 179.476562 97.039062 179.171875 96.800781 179 L 59.835938 151.585938 C 59.585938 151.402344 59.253906 151.371094 58.972656 151.5 C 58.695312 151.632812 58.507812 151.910156 58.492188 152.21875 L 59.332031 152.265625 L 58.832031 152.945312 L 95.410156 180.070312 L 90.867188 223.144531 L 57.929688 192.089844 L 60.175781 152.3125 L 59.332031 152.265625 L 58.832031 152.945312 L 59.332031 152.265625 " fill-opacity="1" fill-rule="nonzero"/></svg>